{
.appVersion = "3343";
.formatVersion = 3;
axes = (
{
name = Weight;
tag = wght;
}
);
classes = (
{
automatic = 1;
code = "A Aacute Abreve Acircumflex Adieresis Agrave Amacron Aogonek Aring Atilde AE B C Cacute Ccaron Ccedilla D Eth Dcaron Dcroat E Eacute Ecaron Ecircumflex Edieresis Edotaccent Egrave Emacron Eogonek F G Gbreve Gcommaaccent H I IJ Iacute Icircumflex Idieresis Idotaccent Igrave Imacron Iogonek J K Kcommaaccent L Lacute Lcaron Lcommaaccent Ldot Lslash M N Nacute Ncaron Ncommaaccent Ntilde O Oacute Ocircumflex Odieresis Ograve Ohungarumlaut Omacron Oslash Otilde OE P Thorn Q R Racute Rcaron Rcommaaccent S Sacute Scaron Scedilla Scommaaccent T Tcaron Tcedilla Tcommaaccent U Uacute Ucircumflex Udieresis Ugrave Uhungarumlaut Umacron Uogonek Uring V W Wacute Wcircumflex Wdieresis Wgrave X Y Yacute Ycircumflex Ydieresis Ygrave Z Zacute Zcaron Zdotaccent A-cy Be-cy Ve-cy Ge-cy Gje-cy Gheupturn-cy De-cy Ie-cy Iegrave-cy Io-cy Zhe-cy Ze-cy Ii-cy Iishort-cy Iigrave-cy Ka-cy Kje-cy El-cy Em-cy En-cy O-cy Pe-cy Er-cy Es-cy Te-cy U-cy Ushort-cy Ef-cy Ha-cy Che-cy Tse-cy Sha-cy Shcha-cy Dzhe-cy Softsign-cy Hardsign-cy Yeru-cy Lje-cy Nje-cy Dze-cy E-cy Ereversed-cy I-cy Yi-cy Je-cy Tshe-cy Iu-cy Ia-cy Dje-cy Yat-cy Yusbig-cy Izhitsa-cy Kadescender-cy Kaverticalstroke-cy Endescender-cy Ustraitstroke-cy Cheverticalstroke-cy Schwa-cy De-cy.loclBGR Ii-cy.loclBGR Iishort-cy.loclBGR Iigrave-cy.loclBGR El-cy.loclBGR Ef-cy.loclBGR Gamma Delta Pi Omega";
name = Uppercase;
}
);
customParameters = (
{
name = fsType;
value = (
);
},
{
name = "Use Typo Metrics";
value = 1;
},
{
name = "Write lastChange";
value = 0;
},
{
name = "Use Line Breaks";
value = 1;
}
);
date = "2023-12-13 13:58:25 +0000";
familyName = "Yanone Kaffeesatz";
featurePrefixes = (
{
automatic = 1;
code = "languagesystem DFLT dflt;
languagesystem latn dflt;
languagesystem cyrl dflt;
languagesystem latn ROM;
languagesystem latn MOL;
languagesystem latn CAT;
languagesystem cyrl SRB;
languagesystem cyrl BGR;
";

glyphs = (
{
color = 3;
glyphname = A;
kernLeft = A;
kernRight = A;
layers = (
{
anchors = (
{
name = bottom;
pos = (218,0);
},
{
name = ogonek;
pos = (420,10);
},
{
name = top;
pos = (218,700);
}
);
hints = (
{
horizontal = 1;
place = (0,0);
type = Stem;
},
{
horizontal = 1;
place = (0,0);
type = Stem;
}
);
layerId = "B965DA2D-85AA-48ED-BC60-A8A438260572";
shapes = (
{
closed = 1;
nodes = (
(31,-1,o),
(36,-1,o),
(38,6,cs),
(166,470,ls),
(191,562,o),
(214,648,o),
(217,669,c),
(219,648,o),
(243,561,o),
(268,470,cs),
(401,0,l),
(406,-1,o),
(413,-1,o),
(417,-1,cs),
(425,-1,o),
(427,2,o),
(425,10,c),
(224,703,l),
(223,704,o),
(219,705,o),
(215,705,cs),
(212,705,o),
(210,704,o),
(210,703,c),
(10,0,l),
(17,-1,o),
(22,-1,o),
(24,-1,cs)
);
},
{
closed = 1;
nodes = (
(355,212,l),
(355,236,l),
(92,236,l),
(92,212,l)
);
}
);
width = 436;
},
{
anchors = (
{
name = bottom;
pos = (219,0);
},
{
name = ogonek;
pos = (403,10);
},
{
name = top;
pos = (219,700);
}
);
hints = (
{
horizontal = 1;
place = (0,0);
type = Stem;
},
{
horizontal = 1;
place = (0,0);
type = Stem;
}
);
layerId = "113A2EC7-7A34-4A41-8395-62473D9E96C5";
shapes = (
{
closed = 1;
nodes = (
(118,-2,o),
(121,5,o),
(124,19,cs),
(193,353,ls),
(204,406,o),
(213,479,o),
(220,542,c),
(226,479,o),
(235,406,o),
(246,353,cs),
(319,0,l),
(348,-2,o),
(369,-2,o),
(384,-2,cs),
(429,-2,o),
(437,5,o),
(434,18,c),
(267,698,l),
(253,701,o),
(233,702,o),
(214,702,cs),
(188,702,o),
(172,696,o),
(169,681,c),
(2,2,l),
(28,-1,o),
(58,-2,o),
(73,-2,cs)
);
},
{
closed = 1;
nodes = (
(342,159,l),
(342,260,l),
(116,260,l),
(116,159,l)
);
}
);
width = 437;
}
);
unicode = 65;
},
{
glyphname = Aogonek;
kernLeft = A;
kernRight = A;
layers = (
{
associatedMasterId = "B965DA2D-85AA-48ED-BC60-A8A438260572";
layerId = "AFD4A0AA-4700-45E0-B7A4-2B37255411CB";
name = "Light Apr 18 13, 15:18";
shapes = (
{
closed = 1;
nodes = (
(166,470,ls),
(191,562,o),
(214,648,o),
(217,669,c),
(219,648,o),
(243,561,o),
(268,470,cs),
(401,0,l),
(406,-1,o),
(413,-1,o),
(417,-1,cs),
(425,-1,o),
(427,2,o),
(425,10,c),
(224,703,l),
(223,704,o),
(219,705,o),
(215,705,cs),
(212,705,o),
(210,704,o),
(210,703,c),
(10,0,l),
(17,-1,o),
(22,-1,o),
(24,-1,cs),
(31,-1,o),
(36,-1,o),
(38,6,cs)
);
},
{
closed = 1;
nodes = (
(92,212,l),
(355,212,l),
(355,236,l),
(92,236,l)
);
},
{
closed = 1;
nodes = (
(354,-12,o),
(313,-66,o),
(313,-118,cs),
(313,-168,o),
(337,-195,o),
(383,-195,cs),
(405,-195,o),
(424,-190,o),
(424,-177,cs),
(424,-175,o),
(423,-172,o),
(422,-169,cs),
(421,-166,o),
(420,-164,o),
(418,-162,c),
(406,-168,o),
(398,-171,o),
(384,-171,cs),
(350,-171,o),
(337,-153,o),
(337,-118,cs),
(337,-71,o),
(378,-20,o),
(423,0,c),
(422,7,o),
(417,15,o),
(410,15,cs),
(407,15,o),
(401,13,o),
(393,8,cs)
);
}
);
width = 436;
},
{
associatedMasterId = "B965DA2D-85AA-48ED-BC60-A8A438260572";
guides = (
{
angle = 90;
pos = (435,32);
}
);
layerId = "9BB2E435-5D00-417D-9661-512C1A0542FC";
name = "Bold Apr 18 13, 18:23";
shapes = (
{
closed = 1;
nodes = (
(267,698,l),
(253,701,o),
(233,702,o),
(214,702,cs),
(188,702,o),
(172,696,o),
(169,681,c),
(2,2,l),
(28,-1,o),
(58,-2,o),
(73,-2,cs),
(118,-2,o),
(121,5,o),
(124,19,cs),
(152.922,159,l),
(286.119,159,l),
(318.714,1.384,l),
(292.271,-24,o),
(271,-63,o),
(271,-106,cs),
(271,-176,o),
(312,-195,o),
(360,-195,cs),
(401,-195,o),
(431,-184,o),
(431,-154,cs),
(431,-144,o),
(427,-125,o),
(420,-110,c),
(413,-115,o),
(405,-117,o),
(395,-117,cs),
(377,-117,o),
(370,-108,o),
(370,-90,cs),
(370,-57,o),
(403,-16,o),
(428.994,4.184,cs),
(434,8,o),
(435.35,12.149,o),
(434,18,cs)
);
},
{
closed = 1;
nodes = (
(173.787,260,l),
(193,353,ls),
(204,406,o),
(213,479,o),
(220,542,c),
(226,479,o),
(235,406,o),
(246,353,cs),
(265.232,260,l)
);
}
);
width = 437;
},
{
guides = (
{
angle = 90;
pos = (426,85);
}
);
layerId = "B965DA2D-85AA-48ED-BC60-A8A438260572";
shapes = (
{
closed = 1;
nodes = (
(403,-195,o),
(424,-190,o),
(424,-178,cs),
(424,-172,o),
(421,-167,o),
(418,-162,c),
(410,-167,o),
(400,-172,o),
(384,-172,cs),
(350,-172,o),
(337,-152,o),
(337,-117,cs),
(337,-70,o),
(377,-26,o),
(420,0,cs),
(425,3,o),
(427,5,o),
(425,11,cs),
(224,703,l),
(223,704,o),
(219,705,o),
(215,705,cs),
(212,705,o),
(210,704,o),
(210,703,c),
(10,0,l),
(17,-1,o),
(22,-1,o),
(24,-1,cs),
(31,-1,o),
(36,-1,o),
(38,6,cs),
(95,212,l),
(341,212,l),
(398,11,l),
(359,-15,o),
(313,-63,o),
(313,-118,cs),
(313,-168,o),
(339,-195,o),
(383,-195,cs)
);
},
{
closed = 1;
nodes = (
(166,470,l),
(191,562,o),
(214,648,o),
(217,669,c),
(219,648,o),
(243,561,o),
(268,470,cs),
(334,236,l),
(101,236,l)
);
}
);
width = 436;
},
{
guides = (
{
angle = 90;
pos = (435,32);
}
);
layerId = "113A2EC7-7A34-4A41-8395-62473D9E96C5";
shapes = (
{
closed = 1;
nodes = (
(401,-195,o),
(431,-184,o),
(431,-154,cs),
(431,-144,o),
(427,-125,o),
(420,-110,c),
(413,-115,o),
(405,-117,o),
(395,-117,cs),
(377,-117,o),
(370,-108,o),
(370,-90,cs),
(370,-57,o),
(395,-26,o),
(420,-3,cs),
(432,8,o),
(435,15,o),
(431,31,cs),
(267,698,l),
(253,701,o),
(233,702,o),
(214,702,cs),
(188,702,o),
(172,696,o),
(169,681,c),
(2,2,l),
(28,-1,o),
(58,-2,o),
(73,-2,cs),
(118,-2,o),
(121,5,o),
(124,19,cs),
(152.922,159,l),
(286.119,159,l),
(318.714,1.384,l),
(292.271,-24,o),
(271,-63,o),
(271,-106,cs),
(271,-176,o),
(312,-195,o),
(360,-195,cs)
);
},
{
closed = 1;
nodes = (
(193,353,ls),
(204,406,o),
(213,479,o),
(220,542,c),
(226,479,o),
(235,406,o),
(246,353,cs),
(265.232,260,l),
(173.787,260,l)
);
}
);
width = 437;
}
);
unicode = 260;
},
{
color = 3;
glyphname = AE;
kernLeft = AE;
kernRight = E;
layers = (
{
anchors = (
{
name = top;
pos = (338,700);
}
);
layerId = "B965DA2D-85AA-48ED-BC60-A8A438260572";
shapes = (
{
closed = 1;
nodes = (
(40,-1,o),
(44,0,o),
(47,6,cs),
(292,466,ls),
(337,551,o),
(399,676,o),
(410,700,c),
(396,700,l),
(393,700,o),
(389,696,o),
(388,694,cs),
(19,0,l),
(26,-1,o),
(31,-1,o),
(33,-1,cs)
);
},
{
closed = 1;
nodes = (
(400,212,l),
(400,236,l),
(157,236,l),
(147,212,l)
);
},
{
closed = 1;
nodes = (
(632,0,l),
(640,0,o),
(640,3,o),
(640,24,c),
(413,24,l),
(413,676,l),
(632,676,l),
(638,676,o),
(638,680,o),
(638,700,c),
(399,700,l),
(390,700,o),
(389,690,o),
(389,690,c),
(389,0,l)
);
},
{
closed = 1;
nodes = (
(610,372,l),
(618,372,o),
(618,376,o),
(618,396,c),
(405,396,l),
(405,372,l)
);
}
);
width = 675;
},
{
anchors = (
{
name = top;
pos = (291,700);
}
);
layerId = "113A2EC7-7A34-4A41-8395-62473D9E96C5";
shapes = (
{
closed = 1;
nodes = (
(126,-2,o),
(133,5,o),
(138,19,cs),
(249,350,ls),
(285,457,o),
(328,637,o),
(333,700,c),
(304,700,l),
(287,700,o),
(273,696,o),
(268,681,cs),
(16,2,l),
(42,-1,o),
(72,-2,o),
(87,-2,cs)
);
},
{
closed = 1;
nodes = (
(344,159,l),
(344,260,l),
(159,260,l),
(117,159,l)
);
},
{
closed = 1;
nodes = (
(545,0,l),
(565,0,o),
(565,6,o),
(565,100,c),
(424,100,l),
(424,600,l),
(552,600,l),
(572,600,o),
(572,610,o),
(572,700,c),
(332,700,l),
(313,700,o),
(312,680,o),
(312,680,c),
(312,0,l)
);
},
{
closed = 1;
nodes = (
(526,328,l),
(545,328,o),
(545,346,o),
(545,430,c),
(320,430,l),
(320,328,l)
);
}
);
width = 582;
}
);
unicode = 198;
},
{
color = 3;
glyphname = B;
kernRight = B;
layers = (
{
layerId = "B965DA2D-85AA-48ED-BC60-A8A438260572";
shapes = (
{
closed = 1;
nodes = (
(185,0,l),
(230,0,o),
(380,4,o),
(380,239,cs),
(380,365,o),
(296,386,o),
(257,387,c),
(296,393,o),
(359,424,o),
(359,550,cs),
(359,677,o),
(265,700,o),
(193,700,c),
(92,700,l),
(72,700,o),
(68,693,o),
(68,684,c),
(68,0,l)
);
},
{
closed = 1;
nodes = (
(92,371,l),
(183,371,l),
(279,371,o),
(356,365,o),
(356,237,cs),
(356,64,o),
(269,24,o),
(184,24,c),
(92,24,l)
);
},
{
closed = 1;
nodes = (
(92,677,l),
(188,677,l),
(261,677,o),
(335,652,o),
(335,549,cs),
(335,427,o),
(272,395,o),
(197,395,c),
(92,395,l)
);
}
);
width = 410;
},
{
layerId = "113A2EC7-7A34-4A41-8395-62473D9E96C5";
shapes = (
{
closed = 1;
nodes = (
(161,0,l),
(296,0,o),
(348,106,o),
(348,238,cs),
(348,355,o),
(282,378,o),
(233,383,c),
(277,389,o),
(325,441,o),
(325,543,cs),
(325,673,o),
(240,700,o),
(156,700,c),
(58,700,l),
(36,700,o),
(30,693,o),
(30,680,c),
(30,0,l)
);
},
{
closed = 1;
nodes = (
(144,330,l),
(166,330,l),
(197,330,o),
(214,318,o),
(214,228,cs),
(214,146,o),
(195,97,o),
(164,97,c),
(144,97,l)
);
},
{
closed = 1;
nodes = (
(144,602,l),
(167,602,l),
(185,602,o),
(201,589,o),
(201,519,cs),
(201,462,o),
(187,424,o),
(163,424,c),
(144,424,l)
);
}
);
width = 358;
}
);
unicode = 66;
},
{
color = 3;
glyphname = C;
kernLeft = O;
kernRight = C;
layers = (
{
anchors = (
{
name = bottom;
pos = (220,0);
},
{
name = top;
pos = (215,700);
}
);
layerId = "B965DA2D-85AA-48ED-BC60-A8A438260572";
shapes = (
{
closed = 1;
nodes = (
(282,-9,o),
(339,35,o),
(339,58,cs),
(339,64,o),
(335,71,o),
(332,76,c),
(316,51,o),
(267,16,o),
(214,16,cs),
(150,16,o),
(73,47,o),
(73,306,cs),
(73,653,o),
(160,686,o),
(236,686,cs),
(282,686,o),
(318,654,o),
(324,647,c),
(328,650,o),
(331,658,o),
(331,663,cs),
(331,679,o),
(294,709,o),
(239,709,cs),
(151,709,o),
(48,677,o),
(48,311,cs),
(48,-2,o),
(150,-9,o),
(213,-9,cs)
);
}
);
width = 369;
},
{
anchors = (
{
name = bottom;
pos = (196,0);
},
{
name = top;
pos = (193,700);
}
);
layerId = "113A2EC7-7A34-4A41-8395-62473D9E96C5";
shapes = (
{
closed = 1;
nodes = (
(263,-10,o),
(309,17,o),
(309,64,cs),
(309,88,o),
(302,113,o),
(294,130,c),
(275,120,o),
(247,115,o),
(216,115,cs),
(160,115,o),
(138,162,o),
(138,336,cs),
(138,554,o),
(190,600,o),
(247,600,cs),
(269,600,o),
(287,592,o),
(299,583,c),
(307,600,o),
(315,624,o),
(315,651,cs),
(315,681,o),
(305,710,o),
(220,710,cs),
(130,710,o),
(20,655,o),
(20,327,cs),
(20,47,o),
(74,-10,o),
(187,-10,cs)
);
}
);
width = 325;
}
);
unicode = 67;
},
{
color = 3;
glyphname = D;
kernLeft = H;
kernRight = O;
layers = (
{
anchors = (
{
name = center;
pos = (219,350);
},
{
name = top;
pos = (190,700);
}
);
layerId = "B965DA2D-85AA-48ED-BC60-A8A438260572";
shapes = (
{
closed = 1;
nodes = (
(187,0,ls),
(288,0,o),
(389,47,o),
(389,388,cs),
(389,606,o),
(321,700,o),
(195,700,c),
(94,700,l),
(74,700,o),
(70,693,o),
(70,684,cs),
(70,0,l)
);
},
{
closed = 1;
nodes = (
(94,676,l),
(190,676,l),
(313,676,o),
(365,585,o),
(365,388,cs),
(365,69,o),
(277,24,o),
(186,24,c),
(94,24,l)
);
}
);
width = 437;
},
{
anchors = (
{
name = center;
pos = (180,350);
},
{
name = top;
pos = (172,700);
}
);
layerId = "113A2EC7-7A34-4A41-8395-62473D9E96C5";
shapes = (
{
closed = 1;
nodes = (
(159,0,ls),
(294,0,o),
(350,118,o),
(350,385,cs),
(350,642,o),
(287,700,o),
(154,700,c),
(58,700,l),
(36,700,o),
(30,693,o),
(30,680,cs),
(30,0,l)
);
},
{
closed = 1;
nodes = (
(142,598,l),
(161,598,l),
(197,598,o),
(221,576,o),
(221,397,cs),
(221,143,o),
(193,106,o),
(162,106,c),
(142,106,l)
);
}
);
width = 360;
}
);
unicode = 68;
},
{
color = 3;
glyphname = Eth;
kernLeft = H;
kernRight = O;
layers = (
{
layerId = "B965DA2D-85AA-48ED-BC60-A8A438260572";
shapes = (
{
closed = 1;
nodes = (
(187,0,ls),
(288,0,o),
(389,47,o),
(389,388,cs),
(389,606,o),
(321,700,o),
(195,700,c),
(94,700,l),
(74,700,o),
(70,693,o),
(70,684,cs),
(70,0,l)
);
},
{
closed = 1;
nodes = (
(217,359,l),
(227,359,o),
(227,362,o),
(227,384,c),
(30,384,ls),
(20,384,o),
(20,381,o),
(20,359,c)
);
},
{
closed = 1;
nodes = (
(94,676,l),
(190,676,l),
(313,676,o),
(365,585,o),
(365,388,cs),
(365,69,o),
(277,24,o),
(186,24,c),
(94,24,l)
);
}
);
width = 437;
},
{
layerId = "113A2EC7-7A34-4A41-8395-62473D9E96C5";
shapes = (
{
closed = 1;
nodes = (
(159,0,ls),
(294,0,o),
(350,118,o),
(350,397,cs),
(350,642,o),
(287,700,o),
(154,700,c),
(58,700,l),
(36,700,o),
(30,693,o),
(30,680,cs),
(30,0,l)
);
},
{
closed = 1;
nodes = (
(172,315,l),
(192,315,o),
(192,345,o),
(192,411,c),
(16,411,ls),
(-4,411,o),
(-4,381,o),
(-4,315,c)
);
},
{
closed = 1;
nodes = (
(142,598,l),
(161,598,l),
(197,598,o),
(221,576,o),
(221,397,cs),
(221,143,o),
(193,106,o),
(162,106,c),
(142,107,l)
);
}
);
width = 360;
}
);
unicode = 208;
},
{
color = 3;
glyphname = E;
kernLeft = H;
kernRight = E;
layers = (
{
anchors = (
{
name = bottom;
pos = (179,0);
},
{
name = ogonek;
pos = (321,10);
},
{
name = top;
pos = (197,700);
},
{
name = topleft;
pos = (20,700);
}
);
layerId = "B965DA2D-85AA-48ED-BC60-A8A438260572";
shapes = (
{
closed = 1;
nodes = (
(314,0,l),
(322,0,o),
(322,3,o),
(322,24,c),
(95,24,l),
(95,676,l),
(314,676,l),
(320,676,o),
(320,680,o),
(320,700,c),
(81,700,l),
(71,700,o),
(71,690,o),
(71,690,c),
(71,0,l)
);
},
{
closed = 1;
nodes = (
(292,372,l),
(300,372,o),
(300,376,o),
(300,396,c),
(87,396,l),
(87,372,l)
);
}
);
width = 357;
},
{
anchors = (
{
name = bottom;
pos = (150,0);
},
{
name = ogonek;
pos = (270,10);
},
{
name = top;
pos = (155,700);
},
{
name = topleft;
pos = (20,700);
}
);
layerId = "113A2EC7-7A34-4A41-8395-62473D9E96C5";
shapes = (
{
closed = 1;
nodes = (
(263,0,l),
(283,0,o),
(283,6,o),
(283,100,c),
(142,100,l),
(142,600,l),
(270,600,l),
(290,600,o),
(290,610,o),
(290,700,c),
(50,700,l),
(31,700,o),
(30,680,o),
(30,680,c),
(30,0,l)
);
},
{
closed = 1;
nodes = (
(244,328,l),
(263,328,o),
(263,346,o),
(263,430,c),
(38,430,l),
(38,328,l)
);
}
);
width = 300;
}
);
unicode = 69;
},
{
glyphname = Eogonek;
kernLeft = H;
kernRight = E;
layers = (
{
associatedMasterId = "B965DA2D-85AA-48ED-BC60-A8A438260572";
guides = (
{
angle = 90;
pos = (283,262);
}
);
layerId = "A86C0D18-4940-4857-9DB8-C549E76BDA08";
name = "Bold Apr 18 13, 18:12";
shapes = (
{
closed = 1;
nodes = (
(142,100,l),
(142,328,l),
(244,328,ls),
(263,328,o),
(263,346,o),
(263,430,c),
(142,430,l),
(142,600,l),
(270,600,ls),
(290,600,o),
(290,610,o),
(290,700,c),
(50,700,ls),
(31,700,o),
(30,680,o),
(30,680,c),
(30,0,l),
(163,0,l),
(138,-25,o),
(116,-62,o),
(116,-106,cs),
(116,-176,o),
(157,-195,o),
(205,-195,cs),
(246,-195,o),
(276,-184,o),
(276,-154,cs),
(276,-144,o),
(272,-125,o),
(265,-110,c),
(258,-115,o),
(250,-117,o),
(240,-117,cs),
(222,-117,o),
(215,-108,o),
(215,-90,cs),
(215,-59,o),
(242,-21,o),
(265,-5,cs),
(283,7,o),
(283,13,o),
(283,100,c)
);
}
);
width = 300;
},
{
guides = (
{
angle = 90;
pos = (322,65);
}
);
layerId = "B965DA2D-85AA-48ED-BC60-A8A438260572";
shapes = (
{
closed = 1;
nodes = (
(299,-195,o),
(320,-190,o),
(320,-178,cs),
(320,-172,o),
(317,-167,o),
(314,-162,c),
(302,-169,o),
(293,-172,o),
(279,-172,cs),
(248,-172,o),
(233,-154,o),
(233,-119,cs),
(233,-72,o),
(270,-29,o),
(312,-2,cs),
(321,4,o),
(322,6,o),
(322,24,c),
(95,24,l),
(95,372,l),
(292,372,ls),
(300,372,o),
(300,376,o),
(300,396,c),
(95,396,l),
(95,676,l),
(314,676,ls),
(320,676,o),
(320,680,o),
(320,700,c),
(81,700,ls),
(71,700,o),
(71,690,o),
(71,690,c),
(71,0,l),
(279,0,l),
(242,-27,o),
(209,-73,o),
(209,-119,cs),
(209,-169,o),
(236,-195,o),
(278,-195,cs)
);
}
);
width = 357;
},
{
guides = (
{
angle = 90;
pos = (283,262);
}
);
layerId = "113A2EC7-7A34-4A41-8395-62473D9E96C5";
shapes = (
{
closed = 1;
nodes = (
(246,-195,o),
(276,-184,o),
(276,-154,cs),
(276,-144,o),
(272,-125,o),
(265,-110,c),
(258,-115,o),
(250,-117,o),
(240,-117,cs),
(222,-117,o),
(215,-108,o),
(215,-90,cs),
(215,-56,o),
(246,-22,o),
(266,-5,cs),
(282,8,o),
(283,9,o),
(283,100,c),
(142,100,l),
(142,328,l),
(244,328,ls),
(263,328,o),
(263,346,o),
(263,430,c),
(142,430,l),
(142,600,l),
(270,600,ls),
(290,600,o),
(290,610,o),
(290,700,c),
(50,700,ls),
(31,700,o),
(30,680,o),
(30,680,c),
(30,0,l),
(163,0,l),
(138,-25,o),
(116,-62,o),
(116,-106,cs),
(116,-176,o),
(157,-195,o),
(205,-195,cs)
);
}
);
width = 300;
}
);
unicode = 280;
},
{
color = 3;
glyphname = F;
kernLeft = H;
kernRight = F;
layers = (
{
hints = (
{
horizontal = 1;
place = (0,0);
type = Stem;
}
);
layerId = "B965DA2D-85AA-48ED-BC60-A8A438260572";
shapes = (
{
closed = 1;
nodes = (
(85,0,l),
(95,0,o),
(95,10,o),
(95,10,c),
(95,676,l),
(314,676,ls),
(320,676,o),
(320,680,o),
(320,700,c),
(81,700,ls),
(71,700,o),
(71,690,o),
(71,690,c),
(71,0,l)
);
},
{
closed = 1;
nodes = (
(292,373,ls),
(300,373,o),
(300,377,o),
(300,397,c),
(87,397,l),
(87,373,l)
);
}
);
width = 344;
},
{
hints = (
{
horizontal = 1;
place = (0,0);
type = Stem;
}
);
layerId = "113A2EC7-7A34-4A41-8395-62473D9E96C5";
shapes = (
{
closed = 1;
nodes = (
(124,0,l),
(144,0,o),
(142,20,o),
(142,20,c),
(142,605,l),
(270,605,ls),
(290,605,o),
(290,610,o),
(290,700,c),
(50,700,ls),
(31,700,o),
(30,680,o),
(30,680,c),
(30,0,l)
);
},
{
closed = 1;
nodes = (
(244,328,ls),
(263,328,o),
(263,346,o),
(263,430,c),
(38,430,l),
(38,328,l)
);
}
);
width = 295;
}
);
unicode = 70;
},
{
color = 3;
glyphname = G;
kernLeft = O;
kernRight = G;
layers = (
{
anchors = (
{
name = bottom;
pos = (218,0);
},
{
name = top;
pos = (228,700);
}
);
layerId = "B965DA2D-85AA-48ED-BC60-A8A438260572";
shapes = (
{
closed = 1;
nodes = (
(326,-10,o),
(360,44,o),
(367,60,c),
(367,384,l),
(228,384,l),
(222,384,o),
(218,381,o),
(218,374,c),
(218,360,l),
(343,360,l),
(343,67,l),
(336,50,o),
(298,14,o),
(235,14,cs),
(149,14,o),
(72,47,o),
(72,346,cs),
(72,628,o),
(151,686,o),
(256,686,cs),
(301,686,o),
(328,673,o),
(351,655,c),
(355,661,o),
(356,666,o),
(356,671,cs),
(356,691,o),
(309,710,o),
(253,710,cs),
(134,710,o),
(48,644,o),
(48,346,cs),
(48,41,o),
(132,-10,o),
(233,-10,cs)
);
}
);
width = 415;
},
{
anchors = (
{
name = bottom;
pos = (209,0);
},
{
name = top;
pos = (217,700);
}
);
layerId = "113A2EC7-7A34-4A41-8395-62473D9E96C5";
shapes = (
{
closed = 1;
nodes = (
(267,-10,o),
(316,0,o),
(348,21,c),
(349,425,l),
(222,425,l),
(206,425,o),
(198,418,o),
(198,405,c),
(198,333,l),
(244,333,l),
(244,109,l),
(240,105,o),
(232,100,o),
(212,100,cs),
(158,100,o),
(141,132,o),
(141,336,cs),
(141,528,o),
(163,600,o),
(264,600,cs),
(290,600,o),
(320,592,o),
(335,580,c),
(342,600,o),
(349,626,o),
(349,652,cs),
(349,682,o),
(312,710,o),
(240,710,cs),
(101,710,o),
(20,649,o),
(20,327,cs),
(20,59,o),
(59,-10,o),
(210,-10,cs)
);
}
);
width = 369;
}
);
unicode = 71;
},
{
color = 3;
glyphname = H;
layers = (
{
anchors = (
{
name = center;
pos = (230,350);
},
{
name = top;
pos = (230,700);
}
);
hints = (
{
horizontal = 1;
place = (0,0);
type = Stem;
},
{
horizontal = 1;
place = (0,0);
type = Stem;
}
);
layerId = "B965DA2D-85AA-48ED-BC60-A8A438260572";
shapes = (
{
closed = 1;
nodes = (
(390,0,o),
(391,0,o),
(391,10,c),
(391,700,l),
(367,700,o),
(367,699,o),
(367,690,c),
(367,0,l)
);
},
{
closed = 1;
nodes = (
(91,0,o),
(92,0,o),
(92,10,c),
(92,700,l),
(69,700,o),
(68,700,o),
(68,690,c),
(68,0,l)
);
},
{
closed = 1;
nodes = (
(379,373,l),
(379,397,l),
(84,397,l),
(84,373,l)
);
}
);
width = 459;
},
{
anchors = (
{
name = center;
pos = (191,350);
},
{
name = top;
pos = (191,700);
}
);
hints = (
{
horizontal = 1;
place = (0,0);
type = Stem;
},
{
horizontal = 1;
place = (0,0);
type = Stem;
}
);
layerId = "113A2EC7-7A34-4A41-8395-62473D9E96C5";
shapes = (
{
closed = 1;
nodes = (
(353,0,o),
(351,0,o),
(351,20,c),
(351,700,l),
(237,700,o),
(239,700,o),
(239,680,c),
(239,0,l)
);
},
{
closed = 1;
nodes = (
(145,0,o),
(143,0,o),
(143,20,c),
(143,700,l),
(29,700,o),
(31,700,o),
(31,680,c),
(31,0,l)
);
},
{
closed = 1;
nodes = (
(290,320,l),
(289,425,l),
(84,425,l),
(84,320,l)
);
}
);
width = 382;
}
);
unicode = 72;
},
{
glyphname = Hbar;
layers = (
{
layerId = "B965DA2D-85AA-48ED-BC60-A8A438260572";
shapes = (
{
closed = 1;
nodes = (
(453,541,l),
(460,541,o),
(463,545,o),
(464,553,cs),
(464,557,o),
(464,561,o),
(463,566,c),
(47,566,ls),
(40,566,o),
(37,562,o),
(36,554,cs),
(36,550,o),
(36,546,o),
(37,541,c)
);
},
{
pos = (20,0);
ref = H;
}
);
width = 499;
},
{
layerId = "113A2EC7-7A34-4A41-8395-62473D9E96C5";
shapes = (
{
closed = 1;
nodes = (
(383,497,l),
(409,497,o),
(425,522,o),
(425,555,cs),
(425,570,o),
(422,586,o),
(414,602,c),
(55,602,ls),
(27,602,o),
(10,579,o),
(10,547,cs),
(10,531,o),
(11,516,o),
(18,497,c)
);
},
{
pos = (27,0);
ref = H;
}
);
width = 435;
}
);
unicode = 294;
},
{
color = 9;
glyphname = I;
layers = (
{
anchors = (
{
name = bottom;
pos = (81,0);
},
{
name = ogonek;
pos = (93,10);
},
{
name = top;
pos = (81,700);
},
{
name = topleft;
pos = (20,700);
}
);
hints = (
{
horizontal = 1;
place = (0,0);
type = Stem;
},
{
horizontal = 1;
place = (0,0);
type = Stem;
}
);
layerId = "B965DA2D-85AA-48ED-BC60-A8A438260572";
shapes = (
{
closed = 1;
nodes = (
(91,0,o),
(93,0,o),
(93,10,c),
(93,700,l),
(69,700,o),
(68,700,o),
(68,684,c),
(68,0,l)
);
}
);
width = 161;
},
{
anchors = (
{
name = bottom;
pos = (87,0);
},
{
name = ogonek;
pos = (130,10);
},
{
name = top;
pos = (87,700);
},
{
name = topleft;
pos = (20,700);
}
);
hints = (
{
horizontal = 1;
place = (0,0);
type = Stem;
},
{
horizontal = 1;
place = (0,0);
type = Stem;
}
);
layerId = "113A2EC7-7A34-4A41-8395-62473D9E96C5";
shapes = (
{
closed = 1;
nodes = (
(143,0,o),
(144,0,o),
(144,20,c),
(144,700,l),
(32,700,o),
(30,700,o),
(30,651,c),
(30,0,l)
);
}
);
width = 174;
}
);
unicode = 73;
},
{
glyphname = Iogonek;
layers = (
{
layerId = "B965DA2D-85AA-48ED-BC60-A8A438260572";
shapes = (
{
closed = 1;
nodes = (
(88,-195,o),
(105,-188,o),
(104,-177,cs),
(104,-173,o),
(101,-165,o),
(98,-162,c),
(86,-168,o),
(78,-171,o),
(64,-171,cs),
(31,-171,o),
(17,-153,o),
(17,-122,cs),
(17,-74,o),
(49,-30,o),
(79,-6,cs),
(86,-1,o),
(92,2,o),
(92,10,c),
(92,700,l),
(69,700,o),
(68,700,o),
(68,684,cs),
(68,11.895,l),
(29,-21,o),
(-7,-64,o),
(-7,-121,cs),
(-7,-167,o),
(17,-195,o),
(64,-195,cs)
);
}
);
width = 160;
},
{
layerId = "113A2EC7-7A34-4A41-8395-62473D9E96C5";
shapes = (
{
closed = 1;
nodes = (
(116,-195,o),
(147,-184,o),
(147,-154,cs),
(147,-144,o),
(143,-125,o),
(136,-110,c),
(129,-115,o),
(121,-117,o),
(112,-117,cs),
(93,-117,o),
(86,-108,o),
(86,-91,cs),
(86,-55,o),
(116,-21,o),
(133,-3,cs),
(142,6,o),
(144,11,o),
(144,20,cs),
(144,700,l),
(32,700,o),
(30,700,o),
(30,651,cs),
(30,0,l),
(9,-30,o),
(-13,-62,o),
(-13,-110,cs),
(-13,-176,o),
(30,-195,o),
(79,-195,cs)
);
}
);
width = 174;
}
);
unicode = 302;
},
{
color = 3;
glyphname = J;
kernLeft = J;
kernRight = J;
layers = (
{
anchors = (
{
name = top;
pos = (149,700);
}
);
hints = (
{
horizontal = 1;
place = (0,0);
type = Stem;
}
);
layerId = "B965DA2D-85AA-48ED-BC60-A8A438260572";
shapes = (
{
closed = 1;
nodes = (
(227,-10,o),
(229,97,o),
(229,172,cs),
(229,700,l),
(205,700,o),
(205,700,o),
(205,685,c),
(205,184,ls),
(205,102,o),
(203,14,o),
(115,14,cs),
(76,14,o),
(48,31,o),
(29,54,c),
(25,50,o),
(21,42,o),
(21,35,cs),
(21,15,o),
(62,-10,o),
(116,-10,cs)
);
}
);
width = 297;
},
{
anchors = (
{
name = top;
pos = (151,700);
}
);
hints = (
{
horizontal = 1;
place = (0,0);
type = Stem;
}
);
layerId = "113A2EC7-7A34-4A41-8395-62473D9E96C5";
shapes = (
{
closed = 1;
nodes = (
(230,-9,o),
(271,49,o),
(271,161,cs),
(271,700,l),
(157,700,o),
(157,700,o),
(157,651,c),
(157,183,ls),
(157,107,o),
(148,90,o),
(105,90,cs),
(76,90,o),
(44,105,o),
(25,119,c),
(19,105,o),
(10,87,o),
(10,58,cs),
(10,24,o),
(25,-9,o),
(121,-9,cs)
);
}
);
width = 301;
}
);
unicode = 74;
},
{
color = 3;
glyphname = K;
kernRight = K;
layers = (
{
anchors = (
{
name = bottom;
pos = (196,0);
},
{
name = top;
pos = (196,700);
}
);
hints = (
{
horizontal = 1;
place = (0,0);
type = Stem;
},
{
horizontal = 1;
place = (0,0);
type = Stem;
}
);
layerId = "B965DA2D-85AA-48ED-BC60-A8A438260572";
shapes = (
{
closed = 1;
nodes = (
(370,-1,o),
(374,3,o),
(370,13,c),
(296,230,o),
(205,346,o),
(115,392,c),
(363,685,ls),
(371,694,o),
(369,700,o),
(357,700,cs),
(352,700,o),
(347,700,o),
(342,699,c),
(84,389,l),
(84,379,l),
(108,369,o),
(131,359,o),
(151,339,cs),
(206,286,o),
(268,219,o),
(350,0,c),
(354,-1,o),
(359,-1,o),
(363,-1,cs)
);
},
{
closed = 1;
nodes = (
(92,0,o),
(92,0,o),
(92,10,c),
(92,700,l),
(68,700,o),
(68,700,o),
(68,690,c),
(68,0,l)
);
}
);
width = 392;
},
{
anchors = (
{
name = bottom;
pos = (194,0);
},
{
name = top;
pos = (194,700);
}
);
hints = (
{
horizontal = 1;
place = (0,0);
type = Stem;
},
{
horizontal = 1;
place = (0,0);
type = Stem;
}
);
layerId = "113A2EC7-7A34-4A41-8395-62473D9E96C5";
shapes = (
{
closed = 1;
nodes = (
(358,-2,o),
(365,3,o),
(365,21,c),
(365,198,o),
(330,333,o),
(257,401,c),
(371,673,ls),
(379,693,o),
(363,701,o),
(323,701,cs),
(304,701,o),
(278,699,o),
(251,693,c),
(118,352,l),
(118,335,l),
(136,333,o),
(157,323,o),
(172,306,cs),
(229,242,o),
(238,123,o),
(238,1,c),
(266,-1,o),
(293,-2,o),
(318,-2,cs)
);
},
{
closed = 1;
nodes = (
(142,0,o),
(142,0,o),
(142,20,c),
(142,700,l),
(28,700,o),
(28,700,o),
(28,680,c),
(28,0,l)
);
}
);
width = 388;
}
);
unicode = 75;
},
{
color = 3;
glyphname = L;
kernLeft = H;
kernRight = L;
layers = (
{
anchors = (
{
name = bottom;
pos = (172,0);
},
{
name = top;
pos = (172,700);
}
);
hints = (
{
horizontal = 1;
place = (0,0);
type = Stem;
}
);
layerId = "B965DA2D-85AA-48ED-BC60-A8A438260572";
shapes = (
{
closed = 1;
nodes = (
(313,0,l),
(319,0,o),
(323,1,o),
(323,10,c),
(323,23,l),
(94,23,l),
(94,700,l),
(68,700,o),
(68,700,o),
(68,685,c),
(68,0,l)
);
}
);
width = 343;
},
{
anchors = (
{
name = bottom;
pos = (149,0);
},
{
name = top;
pos = (89,700);
}
);
hints = (
{
horizontal = 1;
place = (0,0);
type = Stem;
}
);
layerId = "113A2EC7-7A34-4A41-8395-62473D9E96C5";
shapes = (
{
closed = 1;
nodes = (
(263,0,l),
(275,0,o),
(283,4,o),
(283,20,c),
(283,105,l),
(142,105,l),
(142,700,l),
(32,700,o),
(30,700,o),
(30,672,c),
(30,0,l)
);
}
);
width = 298;
}
);
unicode = 76;
},
{
color = 3;
glyphname = Lslash;
kernLeft = H;
kernRight = L;
layers = (
{
hints = (
{
horizontal = 1;
place = (0,0);
type = Stem;
},
{
horizontal = 1;
place = (0,0);
type = Stem;
},
{
horizontal = 1;
place = (0,0);
type = Stem;
}
);
layerId = "B965DA2D-85AA-48ED-BC60-A8A438260572";
shapes = (
{
closed = 1;
nodes = (
(313,0,l),
(323,0,o),
(323,10,o),
(323,10,c),
(323,23,l),
(94,23,l),
(94,700,l),
(68,700,o),
(68,700,o),
(68,685,c),
(68,0,l)
);
},
{
closed = 1;
nodes = (
(200,402,ls),
(209,406,o),
(208,408,o),
(200,429,c),
(17,355,ls),
(8,351,o),
(9,348,o),
(17,328,c)
);
}
);
width = 343;
},
{
hints = (
{
horizontal = 1;
place = (0,0);
type = Stem;
},
{
horizontal = 1;
place = (0,0);
type = Stem;
},
{
horizontal = 1;
place = (0,0);
type = Stem;
}
);
layerId = "113A2EC7-7A34-4A41-8395-62473D9E96C5";
shapes = (
{
closed = 1;
nodes = (
(283,0,l),
(303,0,o),
(303,20,o),
(303,20,c),
(303,105,l),
(162,105,l),
(162,700,l),
(52,700,o),
(50,700,o),
(50,672,c),
(50,0,l)
);
},
{
closed = 1;
nodes = (
(244,339,ls),
(264,343,o),
(257,373,o),
(243,437,c),
(13,388,ls),
(-7,383,o),
(-1,353,o),
(13,289,c)
);
}
);
width = 318;
}
);
unicode = 321;
},
{
color = 3;
glyphname = M;
kernLeft = H;
kernRight = H;
layers = (
{
hints = (
{
horizontal = 1;
place = (0,0);
type = Stem;
},
{
horizontal = 1;
place = (0,0);
type = Stem;
}
);
layerId = "B965DA2D-85AA-48ED-BC60-A8A438260572";
shapes = (
{
closed = 1;
nodes = (
(256,129,l),
(260,129,o),
(265,132,o),
(267,139,cs),
(330,328,ls),
(330,328,o),
(425,630,o),
(425,630,c),
(418,690,l),
(293,289,l),
(293,289,o),
(254,163,o),
(254,163,c),
(254,163,o),
(214,293,o),
(214,293,cs),
(89,700,l),
(81,637,l),
(81,637,o),
(180,328,o),
(180,328,cs),
(241,129,l)
);
},
{
closed = 1;
nodes = (
(92,0,o),
(92,0,o),
(92,10,c),
(92,352,ls),
(92,352,o),
(92,631,o),
(92,631,c),
(92,686,l),
(89,700,l),
(78,700,ls),
(72,700,o),
(68,697,o),
(68,690,c),
(68,0,l)
);
},
{
closed = 1;
nodes = (
(442,0,o),
(442,0,o),
(442,10,c),
(442,700,l),
(442,700,o),
(442,700,o),
(428,700,c),
(420,700,o),
(418,690,o),
(418,690,c),
(418,659,l),
(418,647,l),
(418,647,o),
(418,342,o),
(418,342,cs),
(418,0,l)
);
}
);
width = 510;
},
{
hints = (
{
horizontal = 1;
place = (0,0);
type = Stem;
},
{
horizontal = 1;
place = (0,0);
type = Stem;
}
);
layerId = "113A2EC7-7A34-4A41-8395-62473D9E96C5";
shapes = (
{
closed = 1;
nodes = (
(254,167,l),
(258,167,o),
(263,168,o),
(265,174,cs),
(313,307,ls),
(331,358,o),
(385,578,o),
(385,578,c),
(333,680,l),
(265,452,l),
(247,393,o),
(241,353,o),
(241,353,c),
(241,353,o),
(234,392,o),
(214,454,cs),
(135,700,l),
(91,580,l),
(91,580,o),
(145,355,o),
(161,307,cs),
(208,167,l)
);
},
{
closed = 1;
nodes = (
(134,0,o),
(141,0,o),
(141,20,c),
(138,191,ls),
(136,355,o),
(109,489,o),
(109,489,c),
(141,510,l),
(135,700,l),
(50,700,ls),
(39,700,o),
(30,700,o),
(30,680,c),
(30,0,l)
);
},
{
closed = 1;
nodes = (
(447,0,o),
(447,0,o),
(447,20,c),
(447,700,l),
(447,700,o),
(447,700,o),
(353,700,c),
(341,700,o),
(338,695,o),
(333,680,c),
(333,512,l),
(366,489,l),
(366,489,o),
(341,352,o),
(337,190,cs),
(332,0,l)
);
}
);
width = 477;
}
);
unicode = 77;
},
{
color = 3;
glyphname = N;
kernLeft = H;
kernRight = H;
layers = (
{
anchors = (
{
name = bottom;
pos = (235,0);
},
{
name = top;
pos = (235,700);
}
);
hints = (
{
horizontal = 1;
place = (0,0);
type = Stem;
},
{
horizontal = 1;
place = (0,0);
type = Stem;
}
);
layerId = "B965DA2D-85AA-48ED-BC60-A8A438260572";
shapes = (
{
closed = 1;
nodes = (
(392,0,l),
(399,17,l),
(384,50,l),
(384,50,o),
(218,417,o),
(218,417,cs),
(90,700,l),
(78,700,l),
(71,683,l),
(80,664,l),
(80,664,o),
(249,288,o),
(249,288,cs),
(380,0,l)
);
},
{
closed = 1;
nodes = (
(92,0,o),
(92,0,o),
(92,10,c),
(92,257,ls),
(92,257,o),
(92,669,o),
(92,669,c),
(92,690,l),
(78,700,l),
(71,700,o),
(68,697,o),
(68,690,c),
(68,0,l)
);
},
{
closed = 1;
nodes = (
(398,0,o),
(402,3,o),
(402,10,c),
(402,700,l),
(378,700,o),
(378,700,o),
(378,690,c),
(378,450,ls),
(378,450,o),
(378,37,o),
(378,37,c),
(378,10,l),
(392,0,l)
);
}
);
width = 470;
},
{
anchors = (
{
name = bottom;
pos = (215,0);
},
{
name = top;
pos = (215,700);
}
);
hints = (
{
horizontal = 1;
place = (0,0);
type = Stem;
},
{
horizontal = 1;
place = (0,0);
type = Stem;
}
);
layerId = "113A2EC7-7A34-4A41-8395-62473D9E96C5";
shapes = (
{
closed = 1;
nodes = (
(380,0,l),
(388,65,l),
(320,138,l),
(320,138,o),
(284,331,o),
(243,437,cs),
(139,700,l),
(50,700,l),
(45,635,l),
(111,569,l),
(111,569,o),
(150,362,o),
(187,268,cs),
(293,0,l)
);
},
{
closed = 1;
nodes = (
(141,0,o),
(142,0,o),
(142,20,c),
(142,260,ls),
(142,329,o),
(135,426,o),
(125,511,c),
(142,680,l),
(50,700,l),
(36,700,o),
(30,694,o),
(30,680,c),
(30,0,l)
);
},
{
closed = 1;
nodes = (
(393,0,o),
(400,8,o),
(400,20,c),
(400,700,l),
(290,700,o),
(288,700,o),
(288,680,c),
(288,447,ls),
(288,375,o),
(292,304,o),
(303,212,c),
(288,20,l),
(380,0,l)
);
}
);
width = 430;
}
);
unicode = 78;
},
{
color = 3;
glyphname = O;
kernLeft = O;
kernRight = O;
layers = (
{
anchors = (
{
name = bottom;
pos = (233,0);
},
{
name = center;
pos = (233,350);
},
{
name = ogonek;
pos = (419,10);
},
{
name = top;
pos = (233,700);
},
{
name = topleft;
pos = (20,700);
},
{
name = topright;
pos = (359,700);
}
);
layerId = "B965DA2D-85AA-48ED-BC60-A8A438260572";
shapes = (
{
closed = 1;
nodes = (
(362,-10,o),
(418,91,o),
(418,355,cs),
(418,615,o),
(370,710,o),
(241,710,cs),
(111,710,o),
(48,609,o),
(48,355,cs),
(48,80,o),
(103,-10,o),
(230,-10,cs)
);
},
{
closed = 1;
nodes = (
(120,14,o),
(72,101,o),
(72,343,cs),
(72,596,o),
(128,686,o),
(240,686,cs),
(347,686,o),
(394,605,o),
(394,358,cs),
(394,104,o),
(344,14,o),
(229,14,cs)
);
}
);
width = 466;
},
{
anchors = (
{
name = bottom;
pos = (205,0);
},
{
name = center;
pos = (205,350);
},
{
name = ogonek;
pos = (368,10);
},
{
name = top;
pos = (205,700);
},
{
name = topleft;
pos = (20,700);
},
{
name = topright;
pos = (334,700);
}
);
layerId = "113A2EC7-7A34-4A41-8395-62473D9E96C5";
shapes = (
{
closed = 1;
nodes = (
(331,-10,o),
(389,77,o),
(389,358,cs),
(389,634,o),
(341,710,o),
(211,710,cs),
(82,710,o),
(20,626,o),
(20,354,cs),
(20,58,o),
(69,-10,o),
(200,-10,cs)
);
},
{
closed = 1;
nodes = (
(155,106,o),
(148,173,o),
(148,329,cs),
(148,525,o),
(161,594,o),
(209,594,cs),
(261,594,o),
(266,528,o),
(266,354,cs),
(266,177,o),
(255,106,o),
(206,106,cs)
);
}
);
width = 409;
}
);
unicode = 79;
},
{
color = 3;
glyphname = Oslash;
kernLeft = O;
kernRight = O;
layers = (
{
anchors = (
{
name = top;
pos = (233,700);
}
);
layerId = "B965DA2D-85AA-48ED-BC60-A8A438260572";
shapes = (
{
closed = 1;
nodes = (
(109,710,o),
(48,609,o),
(48,355,cs),
(48,80,o),
(103,-10,o),
(230,-10,cs),
(362,-10,o),
(418,91,o),
(418,355,cs),
(418,615,o),
(368,710,o),
(239,710,cs)
);
},
{
closed = 1;
nodes = (
(347,686,o),
(394,605,o),
(394,358,cs),
(394,104,o),
(344,14,o),
(229,14,cs),
(120,14,o),
(72,101,o),
(72,343,cs),
(72,596,o),
(128,686,o),
(240,686,cs)
);
},
{
closed = 1;
nodes = (
(101,60,o),
(73,-7,o),
(73,-7,c),
(75,-19,o),
(92,-17,o),
(92,-17,c),
(92,-17,o),
(120,50,o),
(120,50,c),
(118,60,o),
(101,60,o),
(101,60,c)
);
},
{
closed = 1;
nodes = (
(106,48,o),
(123,50,o),
(123,50,c),
(123,50,o),
(362,646,o),
(362,646,c),
(360,656,o),
(343,656,o),
(343,656,c),
(104,60,l)
);
},
{
closed = 1;
nodes = (
(364,644,o),
(390,709,o),
(390,709,c),
(388,719,o),
(371,719,o),
(371,719,c),
(371,719,o),
(345,654,o),
(345,654,c),
(347,642,o),
(364,644,o),
(364,644,c)
);
}
);
width = 466;
},
{
anchors = (
{
name = top;
pos = (210,700);
}
);
layerId = "113A2EC7-7A34-4A41-8395-62473D9E96C5";
shapes = (
{
closed = 1;
nodes = (
(84,710,o),
(25,626,o),
(25,354,cs),
(25,58,o),
(74,-10,o),
(205,-10,cs),
(336,-10,o),
(394,77,o),
(394,358,cs),
(394,634,o),
(343,710,o),
(213,710,cs)
);
},
{
closed = 1;
nodes = (
(266,595,o),
(271,528,o),
(271,354,cs),
(271,123,o),
(239,106,o),
(201,106,cs),
(150,106,o),
(153,173,o),
(153,329,cs),
(153,525,o),
(166,595,o),
(212,595,cs)
);
},
{
closed = 1;
nodes = (
(48,156,o),
(-6,29,o),
(-4,18,c),
(0,-2,o),
(39,-16,o),
(63,-15,c),
(69,-1,o),
(112,100,o),
(109,118,c),
(105,144,o),
(48,156,o),
(48,156,c)
);
},
{
closed = 1;
nodes = (
(103,85,o),
(159,76,o),
(159,76,c),
(159,76,o),
(330,583,o),
(327,601,c),
(322,627,o),
(270,635,o),
(270,635,c),
(99,106,l)
);
},
{
closed = 1;
nodes = (
(375,508,o),
(431,668,o),
(428,686,c),
(423,712,o),
(359,719,o),
(359,719,c),
(346,696,o),
(295,550,o),
(295,550,c),
(299,530,o),
(375,508,o),
(375,508,c)
);
}
);
width = 419;
}
);
unicode = 216;
},
{
color = 3;
glyphname = OE;
kernLeft = O;
kernRight = E;
layers = (
{
anchors = (
{
name = top;
pos = (335,700);
}
);
layerId = "B965DA2D-85AA-48ED-BC60-A8A438260572";
shapes = (
{
closed = 1;
nodes = (
(362,-10,o),
(408,91,o),
(408,355,cs),
(408,615,o),
(368,710,o),
(239,710,cs),
(109,710,o),
(48,609,o),
(48,355,cs),
(48,80,o),
(103,-10,o),
(230,-10,cs)
);
},
{
closed = 1;
nodes = (
(120,14,o),
(72,101,o),
(72,343,cs),
(72,596,o),
(128,686,o),
(240,686,cs),
(347,686,o),
(384,605,o),
(384,358,cs),
(384,104,o),
(344,14,o),
(229,14,cs)
);
},
{
closed = 1;
nodes = (
(627,0,l),
(635,0,o),
(635,3,o),
(635,24,c),
(408,24,l),
(408,676,l),
(627,676,l),
(633,676,o),
(633,680,o),
(633,700,c),
(394,700,l),
(384,700,o),
(384,690,o),
(384,690,c),
(384,0,l)
);
},
{
closed = 1;
nodes = (
(605,372,l),
(613,372,o),
(613,376,o),
(613,396,c),
(400,396,l),
(400,372,l)
);
}
);
width = 670;
},
{
anchors = (
{
name = top;
pos = (274,700);
}
);
layerId = "113A2EC7-7A34-4A41-8395-62473D9E96C5";
shapes = (
{
closed = 1;
nodes = (
(326,-8,o),
(384,82,o),
(384,356,cs),
(384,627,o),
(333,709,o),
(203,709,cs),
(74,709,o),
(15,619,o),
(15,352,cs),
(15,63,o),
(64,-8,o),
(195,-8,cs)
);
},
{
closed = 1;
nodes = (
(150,101,o),
(143,173,o),
(143,329,cs),
(143,525,o),
(156,603,o),
(202,603,cs),
(256,603,o),
(261,528,o),
(261,354,cs),
(261,177,o),
(250,101,o),
(201,101,cs)
);
},
{
closed = 1;
nodes = (
(511,0,l),
(531,0,o),
(531,6,o),
(531,100,c),
(390,100,l),
(390,600,l),
(518,600,l),
(538,600,o),
(538,610,o),
(538,700,c),
(318,700,l),
(299,700,o),
(298,680,o),
(298,680,c),
(298,0,l)
);
},
{
closed = 1;
nodes = (
(492,328,l),
(511,328,o),
(511,346,o),
(511,430,c),
(286,430,l),
(286,328,l)
);
}
);
width = 548;
}
);
unicode = 338;
},
{
color = 3;
glyphname = P;
kernRight = P;
layers = (
{
hints = (
{
horizontal = 1;
place = (0,0);
type = Stem;
}
);
layerId = "B965DA2D-85AA-48ED-BC60-A8A438260572";
shapes = (
{
closed = 1;
nodes = (
(179,310,ls),
(290,310,o),
(351,383,o),
(351,518,cs),
(351,610,o),
(313,700,o),
(187,700,cs),
(81,700,l),
(79,700,o),
(80,693,o),
(80,684,cs),
(80,321,ls),
(80,316,o),
(69,310,o),
(86,310,cs)
);
},
{
closed = 1;
nodes = (
(92,0,o),
(92,0,o),
(92,10,c),
(92,690,l),
(92,690,o),
(92,700,o),
(82,700,cs),
(78,700,ls),
(72,700,o),
(68,697,o),
(68,690,c),
(68,0,l)
);
},
{
closed = 1;
nodes = (
(86,676,l),
(182,676,l),
(295,676,o),
(327,602,o),
(327,518,cs),
(327,408,o),
(281,334,o),
(178,334,c),
(86,334,l)
);
}
);
width = 381;
},
{
hints = (
{
horizontal = 1;
place = (0,0);
type = Stem;
}
);
layerId = "113A2EC7-7A34-4A41-8395-62473D9E96C5";
shapes = (
{
closed = 1;
nodes = (
(149,270,ls),
(242,270,o),
(339,313,o),
(339,494,cs),
(339,658,o),
(270,700,o),
(144,700,cs),
(58,700,l),
(36,700,o),
(40,680,o),
(40,680,cs),
(40,298,ls),
(40,277,o),
(40,270,o),
(63,270,cs)
);
},
{
closed = 1;
nodes = (
(141,0,o),
(142,0,o),
(142,20,c),
(142,680,l),
(142,680,o),
(142,700,o),
(122,700,cs),
(50,700,ls),
(33,700,o),
(30,694,o),
(30,680,c),
(30,0,l)
);
},
{
closed = 1;
nodes = (
(142,603,l),
(169,603,l),
(200,603,o),
(213,572,o),
(213,508,cs),
(213,396,o),
(193,373,o),
(162,373,c),
(142,373,l)
);
}
);
width = 349;
}
);
unicode = 80;
},
{
color = 3;
glyphname = Thorn;
layers = (
{
hints = (
{
horizontal = 1;
place = (0,0);
type = Stem;
},
{
horizontal = 1;
place = (0,0);
type = Stem;
}
);
layerId = "B965DA2D-85AA-48ED-BC60-A8A438260572";
shapes = (
{
closed = 1;
nodes = (
(92,0,o),
(92,0,o),
(92,10,cs),
(92,169,l),
(179,169,l),
(290,169,o),
(351,242,o),
(351,377,cs),
(351,469,o),
(313,559,o),
(187,559,c),
(92,559,l),
(92,700,l),
(85,700,ls),
(75,700,o),
(68,700,o),
(68,692,cs),
(68,0,l)
);
},
{
closed = 1;
nodes = (
(149,193,o),
(121,193,o),
(92,193,c),
(92,535,l),
(122,535,o),
(152,535,o),
(182,535,cs),
(295,535,o),
(327,461,o),
(327,377,cs),
(327,267,o),
(281,193,o),
(178,193,cs)
);
}
);
width = 381;
},
{
hints = (
{
horizontal = 1;
place = (0,0);
type = Stem;
},
{
horizontal = 1;
place = (0,0);
type = Stem;
}
);
layerId = "113A2EC7-7A34-4A41-8395-62473D9E96C5";
shapes = (
{
closed = 1;
nodes = (
(136,0,o),
(142,0,o),
(142,20,cs),
(142,140,l),
(149,140,ls),
(242,140,o),
(339,183,o),
(339,364,cs),
(339,528,o),
(270,570,o),
(144,570,cs),
(142,570,l),
(142,700,l),
(106,700,ls),
(43,700,o),
(30,697,o),
(30,673,cs),
(30,0,l)
);
},
{
closed = 1;
nodes = (
(149,243,o),
(142,247,o),
(142,247,c),
(142,470,l),
(148,472,o),
(153,473,o),
(169,473,cs),
(200,473,o),
(213,442,o),
(213,378,cs),
(213,266,o),
(193,243,o),
(162,243,cs)
);
}
);
width = 349;
}
);
unicode = 222;
},
{
color = 3;
glyphname = Q;
kernLeft = O;
kernRight = O;
layers = (
{
layerId = "B965DA2D-85AA-48ED-BC60-A8A438260572";
shapes = (
{
closed = 1;
nodes = (
(359,-129,o),
(395,-117,o),
(395,-105,cs),
(395,-100,o),
(393,-94,o),
(389,-90,c),
(374,-100,o),
(354,-107,o),
(322,-107,cs),
(284,-107,o),
(265,-85,o),
(250,1,c),
(225,1,l),
(241,-94,o),
(268,-129,o),
(319,-129,cs)
);
},
{
ref = O;
}
);
width = 466;
},
{
layerId = "113A2EC7-7A34-4A41-8395-62473D9E96C5";
shapes = (
{
closed = 1;
nodes = (
(351,-142,o),
(418,-135,o),
(418,-92,cs),
(418,-77,o),
(413,-49,o),
(403,-33,c),
(381,-47,o),
(357,-50,o),
(343,-50,cs),
(311,-50,o),
(300,-24,o),
(295,35,c),
(166,5,l),
(192,-96,o),
(238,-142,o),
(320,-142,cs)
);
},
{
ref = O;
}
);
width = 409;
}
);
unicode = 81;
},
{
color = 3;
glyphname = R;
kernRight = R;
layers = (
{
anchors = (
{
name = bottom;
pos = (193,0);
},
{
name = top;
pos = (173,700);
}
);
hints = (
{
horizontal = 1;
place = (0,0);
type = Stem;
}
);
layerId = "B965DA2D-85AA-48ED-BC60-A8A438260572";
shapes = (
{
closed = 1;
nodes = (
(179,310,ls),
(290,310,o),
(351,383,o),
(351,518,cs),
(351,610,o),
(313,700,o),
(187,700,cs),
(81,700,l),
(79,700,o),
(80,693,o),
(80,684,cs),
(80,321,ls),
(80,316,o),
(69,310,o),
(86,310,cs)
);
},
{
closed = 1;
nodes = (
(92,0,o),
(92,0,o),
(92,10,cs),
(92,690,l),
(92,690,o),
(92,700,o),
(82,700,cs),
(78,700,ls),
(68,700,o),
(68,690,o),
(68,690,c),
(68,0,l)
);
},
{
closed = 1;
nodes = (
(339,1,o),
(341,3,o),
(340,12,c),
(316,210,o),
(222,325,o),
(222,325,c),
(219,329,o),
(218,330,o),
(212,330,c),
(204,326,ls),
(196,322,o),
(200,314,o),
(200,314,c),
(200,314,o),
(285,222,o),
(317,0,c),
(323,0,o),
(327,0,o),
(330,0,cs)
);
},
{
closed = 1;
nodes = (
(86,676,l),
(182,676,l),
(295,676,o),
(327,602,o),
(327,518,cs),
(327,408,o),
(281,334,o),
(178,334,c),
(86,334,l)
);
}
);
width = 385;
},
{
anchors = (
{
name = bottom;
pos = (183,0);
},
{
name = top;
pos = (163,700);
}
);
hints = (
{
horizontal = 1;
place = (0,0);
type = Stem;
}
);
layerId = "113A2EC7-7A34-4A41-8395-62473D9E96C5";
shapes = (
{
closed = 1;
nodes = (
(149,270,ls),
(242,270,o),
(339,313,o),
(339,494,cs),
(339,658,o),
(270,700,o),
(144,700,cs),
(58,700,l),
(36,700,o),
(40,680,o),
(40,680,cs),
(40,298,ls),
(40,277,o),
(40,270,o),
(63,270,cs)
);
},
{
closed = 1;
nodes = (
(140,0,o),
(142,0,o),
(142,20,cs),
(142,680,l),
(142,680,o),
(142,700,o),
(122,700,cs),
(50,700,ls),
(30,700,o),
(30,680,o),
(30,680,c),
(30,0,l)
);
},
{
closed = 1;
nodes = (
(351,-3,o),
(355,3,o),
(355,22,c),
(347,259,o),
(236,341,o),
(236,341,c),
(233,348,o),
(228,352,o),
(215,352,c),
(152,316,ls),
(134,307,o),
(145,295,o),
(145,295,c),
(145,295,o),
(226,235,o),
(231,0,c),
(256,-2,o),
(279,-3,o),
(297,-3,cs)
);
},
{
closed = 1;
nodes = (
(142,603,l),
(169,603,l),
(200,603,o),
(213,572,o),
(213,500,cs),
(213,396,o),
(193,373,o),
(162,373,c),
(142,373,l)
);
}
);
width = 365;
}
);
unicode = 82;
},
{
color = 3;
glyphname = S;
kernLeft = S;
kernRight = S;
layers = (
{
anchors = (
{
name = bottom;
pos = (191,0);
},
{
name = top;
pos = (192,700);
}
);
layerId = "B965DA2D-85AA-48ED-BC60-A8A438260572";
shapes = (
{
closed = 1;
nodes = (
(291,-10,o),
(345,61,o),
(345,166,cs),
(345,237,o),
(326,284,o),
(266,344,cs),
(135,467,ls),
(99,503,o),
(70,538,o),
(70,585,cs),
(70,645,o),
(123,687,o),
(202,687,cs),
(263,687,o),
(302,670,o),
(320,655,cs),
(325,659,o),
(329,666,o),
(329,672,cs),
(329,687,o),
(291,710,o),
(208,710,cs),
(107,710,o),
(46,657,o),
(46,584,cs),
(46,531,o),
(76,490,o),
(121,445,cs),
(238,337,ls),
(300,275,o),
(321,229,o),
(321,161,cs),
(321,75,o),
(278,14,o),
(176,14,cs),
(107,14,o),
(75,32,o),
(54,52,cs),
(46,49,o),
(42,43,o),
(42,36,cs),
(42,22,o),
(81,-10,o),
(174,-10,cs)
);
}
);
width = 383;
},
{
anchors = (
{
name = bottom;
pos = (172,0);
},
{
name = top;
pos = (172,700);
}
);
layerId = "113A2EC7-7A34-4A41-8395-62473D9E96C5";
shapes = (
{
closed = 1;
nodes = (
(292,-10,o),
(329,85,o),
(329,185,cs),
(329,242,o),
(317,286,o),
(269,348,cs),
(173,471,ls),
(147,507,o),
(137,529,o),
(137,560,cs),
(137,595,o),
(167,611,o),
(216,611,cs),
(254,611,o),
(292,599,o),
(303,591,cs),
(322,612,o),
(329,635,o),
(329,654,cs),
(329,689,o),
(294,710,o),
(193,710,cs),
(75,710,o),
(15,647,o),
(15,557,cs),
(15,513,o),
(25,471,o),
(71,410,cs),
(162,288,ls),
(197,242,o),
(207,216,o),
(207,182,cs),
(207,135,o),
(189,105,o),
(134,105,cs),
(98,105,o),
(62,119,o),
(41,138,cs),
(24,112,o),
(16,79,o),
(16,57,cs),
(16,22,o),
(57,-10,o),
(147,-10,cs)
);
}
);
width = 344;
}
);
unicode = 83;
},
{
glyphname = Germandbls;
layers = (
{
layerId = "B965DA2D-85AA-48ED-BC60-A8A438260572";
shapes = (
{
closed = 1;
nodes = (
(82,0,ls),
(92,0,o),
(92,10,o),
(92,10,c),
(92,676,l),
(350,676,l),
(312,549,o),
(202,470,o),
(202,387,cs),
(202,291,o),
(394,266,o),
(394,131,cs),
(394,48,o),
(335,14,o),
(276,14,cs),
(225,14,o),
(195,25,o),
(168,50,c),
(168,50,o),
(159,40,o),
(159,31,cs),
(159,20,o),
(203,-9,o),
(275,-9,cs),
(356,-9,o),
(417,37,o),
(417,133,cs),
(417,285,o),
(226,307,o),
(226,388,cs),
(226,460,o),
(330,537,o),
(374,673,cs),
(377,681,o),
(378,684,o),
(378,689,cs),
(378,693,o),
(377,697,o),
(374,700,c),
(78,700,l),
(68,700,o),
(68,690,o),
(68,690,c),
(68,0,l)
);
}
);
width = 447;
},
{
layerId = "113A2EC7-7A34-4A41-8395-62473D9E96C5";
shapes = (
{
closed = 1;
nodes = (
(125,0,ls),
(143,0,o),
(143,20,o),
(143,20,c),
(143,605,l),
(274,605,l),
(264,524,o),
(200,495,o),
(200,405,cs),
(200,300,o),
(328,228,o),
(328,141,cs),
(328,110,o),
(312,91,o),
(278,91,cs),
(239,91,o),
(213,113,o),
(213,113,c),
(200,98,o),
(186,78,o),
(186,39,cs),
(186,15,o),
(223,-9,o),
(307,-9,cs),
(401,-9,o),
(455,53,o),
(455,141,cs),
(455,286,o),
(324,355,o),
(324,411,cs),
(324,455,o),
(373,499,o),
(410,617,cs),
(415,633,o),
(419,649,o),
(419,665,cs),
(419,682,o),
(415,690,o),
(409,700,c),
(51,700,l),
(32,700,o),
(31,680,o),
(31,680,c),
(31,0,l)
);
}
);
width = 465;
}
);
metricLeft = H;
metricRight = B;
unicode = 7838;
},
{
color = 3;
glyphname = T;
kernLeft = T;
kernRight = T;
layers = (
{
anchors = (
{
name = bottom;
pos = (177,0);
},
{
name = center;
pos = (180,350);
},
{
name = top;
pos = (180,700);
}
);
hints = (
{
horizontal = 1;
place = (0,0);
type = Stem;
}
);
layerId = "B965DA2D-85AA-48ED-BC60-A8A438260572";
shapes = (
{
closed = 1;
nodes = (
(190,0,o),
(190,0,o),
(190,9,c),
(190,683,l),
(190,683,o),
(190,693,o),
(180,693,cs),
(176,693,ls),
(166,693,o),
(166,683,o),
(166,683,c),
(166,0,l)
);
},
{
closed = 1;
nodes = (
(345,676,l),
(353,676,o),
(355,680,o),
(355,686,c),
(355,700,l),
(15,700,l),
(8,700,o),
(5,697,o),
(5,690,cs),
(5,676,l)
);
}
);
width = 360;
},
{
anchors = (
{
name = bottom;
pos = (190,0);
},
{
name = center;
pos = (190,350);
},
{
name = top;
pos = (190,700);
}
);
hints = (
{
horizontal = 1;
place = (0,0);
type = Stem;
}
);
layerId = "113A2EC7-7A34-4A41-8395-62473D9E96C5";
shapes = (
{
closed = 1;
nodes = (
(242,0,o),
(244,0,o),
(244,20,c),
(244,690,l),
(244,690,o),
(244,690,o),
(224,690,cs),
(152,690,ls),
(132,690,o),
(132,690,o),
(132,690,c),
(132,0,l)
);
},
{
closed = 1;
nodes = (
(350,595,l),
(364,595,o),
(370,599,o),
(370,615,c),
(370,700,l),
(30,700,l),
(16,700,o),
(10,694,o),
(10,680,cs),
(10,595,l)
);
}
);
width = 380;
}
);
unicode = 84;
},
{
color = 3;
glyphname = U;
kernLeft = U;
kernRight = H;
layers = (
{
anchors = (
{
name = bottom;
pos = (242,0);
},
{
name = ogonek;
pos = (406,10);
},
{
name = top;
pos = (242,700);
},
{
name = topright;
pos = (454,700);
}
);
hints = (
{
horizontal = 1;
place = (0,0);
type = Stem;
}
);
layerId = "B965DA2D-85AA-48ED-BC60-A8A438260572";
shapes = (
{
closed = 1;
nodes = (
(317,-10,o),
(389,6,o),
(416,23,c),
(416,700,l),
(395,700,o),
(392,700,o),
(392,691,c),
(392,41,l),
(368,29,o),
(307,14,o),
(250,14,cs),
(106,14,o),
(92,117,o),
(92,227,cs),
(92,700,l),
(68,700,o),
(68,700,o),
(68,690,c),
(68,227,ls),
(68,102,o),
(83,-10,o),
(250,-10,cs)
);
}
);
width = 484;
},
{
anchors = (
{
name = bottom;
pos = (206,0);
},
{
name = ogonek;
pos = (370,10);
},
{
name = top;
pos = (206,700);
},
{
name = topright;
pos = (376,700);
}
);
hints = (
{
horizontal = 1;
place = (0,0);
type = Stem;
}
);
layerId = "113A2EC7-7A34-4A41-8395-62473D9E96C5";
shapes = (
{
closed = 1;
nodes = (
(294,-10,o),
(357,12,o),
(381,28,c),
(381,700,l),
(267,700,o),
(267,700,o),
(267,679,c),
(267,105,l),
(254,98,o),
(232,93,o),
(209,93,cs),
(157,93,o),
(146,123,o),
(146,188,cs),
(146,700,l),
(30,700,o),
(30,700,o),
(30,679,c),
(30,192,ls),
(30,81,o),
(52,-10,o),
(209,-10,cs)
);
}
);
width = 411;
}
);
unicode = 85;
},
{
glyphname = Uogonek;
kernLeft = U;
kernRight = H;
layers = (
{
guides = (
{
angle = 90;
pos = (416,19);
}
);
layerId = "B965DA2D-85AA-48ED-BC60-A8A438260572";
shapes = (
{
closed = 1;
nodes = (
(393,-195,o),
(412,-189,o),
(412,-178,cs),
(412,-172,o),
(409,-167,o),
(406,-162,c),
(396,-168,o),
(386,-172,o),
(372,-172,cs),
(339,-172,o),
(325,-153,o),
(325,-118,cs),
(325,-71,o),
(371,-4,o),
(416,23,c),
(416,700,l),
(395,700,o),
(392,700,o),
(392,691,cs),
(392,40,l),
(368,28,o),
(307,14,o),
(250,14,cs),
(106,14,o),
(92,117,o),
(92,227,cs),
(92,700,l),
(68,700,o),
(68,700,o),
(68,690,cs),
(68,227,ls),
(68,102,o),
(83,-10,o),
(250,-10,cs),
(287.651,-10,o),
(329,-5,o),
(359,3,c),
(330,-29,o),
(301,-80,o),
(301,-118,cs),
(301,-168,o),
(327,-195,o),
(371,-195,cs)
);
}
);
width = 484;
},
{
layerId = "113A2EC7-7A34-4A41-8395-62473D9E96C5";
shapes = (
{
closed = 1;
nodes = (
(346,-195,o),
(376,-184,o),
(376,-154,cs),
(376,-144,o),
(372,-125,o),
(365,-110,c),
(358,-115,o),
(350,-117,o),
(340,-117,cs),
(322,-117,o),
(315,-108,o),
(315,-90,cs),
(315,-57,o),
(343,-7,o),
(381,28,c),
(381,700,l),
(267,700,o),
(267,700,o),
(267,679,cs),
(267,105,l),
(254,98,o),
(232,93,o),
(209,93,cs),
(157,93,o),
(146,123,o),
(146,188,cs),
(146,700,l),
(30,700,o),
(30,700,o),
(30,679,cs),
(30,192,ls),
(30,81,o),
(52,-10,o),
(209,-10,cs),
(223.722,-10,o),
(237.783,-9,o),
(251.096,-8,c),
(230.468,-38,o),
(216,-73,o),
(216,-106,cs),
(216,-176,o),
(257,-195,o),
(305,-195,cs)
);
}
);
width = 411;
}
);
unicode = 370;
},
{
color = 3;
glyphname = V;
kernLeft = V;
kernRight = V;
layers = (
{
hints = (
{
horizontal = 1;
place = (0,0);
type = Stem;
},
{
horizontal = 1;
place = (0,0);
type = Stem;
}
);
layerId = "B965DA2D-85AA-48ED-BC60-A8A438260572";
shapes = (
{
closed = 1;
nodes = (
(219,-10,o),
(224,-9,o),
(224,-9,c),
(417,700,l),
(400,700,ls),
(393,700,o),
(392,694,o),
(390,686,cs),
(258,201,l),
(239,131,o),
(228,86,o),
(216,27,c),
(203,86,o),
(192,130,o),
(171,201,c),
(27,700,l),
(11,700,ls),
(3,700,o),
(4,694,o),
(7,686,c),
(7,686,o),
(142,218,o),
(190,48,cs),
(200,12,o),
(206,-10,o),
(211,-10,cs)
);
}
);
width = 421;
},
{
hints = (
{
horizontal = 1;
place = (0,0);
type = Stem;
},
{
horizontal = 1;
place = (0,0);
type = Stem;
}
);
layerId = "113A2EC7-7A34-4A41-8395-62473D9E96C5";
shapes = (
{
closed = 1;
nodes = (
(228,-6,o),
(249,-4,o),
(283,0,c),
(415,700,l),
(316,700,ls),
(296,700,o),
(292,691,o),
(289,670,cs),
(246,374,l),
(231,275,o),
(219,158,o),
(213,92,c),
(205,158,o),
(191,275,o),
(176,374,c),
(126,700,l),
(32,700,ls),
(3,700,o),
(3,693,o),
(7,671,c),
(7,671,o),
(87,212,o),
(122,53,cs),
(129,20,o),
(147,-6,o),
(185,-6,cs)
);
}
);
width = 420;
}
);
unicode = 86;
},
{
color = 3;
glyphname = W;
kernLeft = V;
kernRight = V;
layers = (
{
anchors = (
{
name = top;
pos = (315,700);
}
);
hints = (
{
horizontal = 1;
place = (0,0);
type = Stem;
},
{
horizontal = 1;
place = (0,0);
type = Stem;
}
);
layerId = "B965DA2D-85AA-48ED-BC60-A8A438260572";
shapes = (
{
closed = 1;
nodes = (
(469,-11,o),
(473,-9,o),
(473,-9,c),
(626,700,l),
(609,700,ls),
(602,700,o),
(601,694,o),
(599,686,cs),
(495,200,ls),
(482,140,o),
(475,86,o),
(467,43,c),
(465,43,l),
(454,102,o),
(451,127,o),
(434,200,cs),
(327,660,l),
(310,660,ls),
(302,660,o),
(303,654,o),
(306,646,cs),
(312,625,l),
(312,625,o),
(342,474,o),
(342,474,c),
(446,34,ls),
(452,8,o),
(457,-11,o),
(460,-11,cs)
);
},
{
closed = 1;
nodes = (
(177,-10,o),
(183,-9,o),
(183,-9,c),
(288,476,l),
(288,476,o),
(316,625,o),
(316,625,c),
(323,646,ls),
(325,653,o),
(327,660,o),
(318,660,cs),
(309,660,ls),
(302,660,o),
(301,654,o),
(299,646,cs),
(204,200,ls),
(192,143,o),
(183,99,o),
(176,41,c),
(174,41,l),
(163,100,o),
(158,128,o),
(142,200,cs),
(27,700,l),
(10,700,ls),
(3,700,o),
(5,691,o),
(6,686,c),
(6,686,o),
(114,224,o),
(152,50,cs),
(160,12,o),
(165,-10,o),
(169,-10,cs)
);
}
);
width = 629;
},
{
anchors = (
{
name = top;
pos = (334,700);
}
);
hints = (
{
horizontal = 1;
place = (0,0);
type = Stem;
},
{
horizontal = 1;
place = (0,0);
type = Stem;
}
);
layerId = "113A2EC7-7A34-4A41-8395-62473D9E96C5";
shapes = (
{
closed = 1;
nodes = (
(489,-6,o),
(499,-5,o),
(544,0,c),
(663,700,l),
(566,700,ls),
(546,700,o),
(542,691,o),
(539,670,cs),
(497,374,ls),
(485,290,o),
(476,187,o),
(473,114,c),
(465,114,l),
(460,180,o),
(453,275,o),
(436,374,cs),
(385,670,l),
(312,670,ls),
(292,670,o),
(283,663,o),
(287,641,cs),
(322,534,l),
(322,534,o),
(339,292,o),
(364,165,c),
(386,57,ls),
(394,17,o),
(411,-6,o),
(446,-6,cs)
);
},
{
closed = 1;
nodes = (
(214,-5,o),
(234,-4,o),
(273,0,c),
(300,165,l),
(321,292,o),
(341,532,o),
(341,532,c),
(379,642,ls),
(382,659,o),
(383,670,o),
(355,670,cs),
(306,670,ls),
(285,670,o),
(282,661,o),
(279,640,cs),
(236,374,ls),
(223,294,o),
(213,205,o),
(211,114,c),
(203,114,l),
(199,180,o),
(190,275,o),
(175,374,cs),
(126,700,l),
(32,700,ls),
(6,700,o),
(3,693,o),
(7,671,c),
(7,671,o),
(79,219,o),
(112,57,cs),
(119,22,o),
(136,-5,o),
(166,-5,cs)
);
}
);
width = 668;
}
);
unicode = 87;
},
{
color = 3;
glyphname = X;
kernLeft = X;
kernRight = X;
layers = (
{
hints = (
{
horizontal = 1;
place = (0,0);
type = Stem;
},
{
horizontal = 1;
place = (0,0);
type = Stem;
}
);
layerId = "B965DA2D-85AA-48ED-BC60-A8A438260572";
shapes = (
{
closed = 1;
nodes = (
(34,0,ls),
(39,0,o),
(41,1,o),
(43,4,c),
(127,170,l),
(174,262,o),
(219,353,o),
(219,353,c),
(230,357,l),
(397,700,l),
(366,700,o),
(369,700,o),
(366,695,c),
(306,571,l),
(261,479,o),
(213,377,o),
(213,377,c),
(202,371,l),
(12,0,l)
);
},
{
closed = 1;
nodes = (
(411,0,ls),
(415,0,o),
(419,3,o),
(416,9,c),
(227,371,l),
(219,378,l),
(219,378,o),
(173,477,o),
(127,571,cs),
(64,700,l),
(33,700,o),
(36,700,o),
(39,695,c),
(203,359,l),
(213,353,l),
(213,353,o),
(259,262,o),
(305,169,c),
(389,0,l)
);
}
);
width = 429;
},
{
hints = (
{
horizontal = 1;
place = (0,0);
type = Stem;
},
{
horizontal = 1;
place = (0,0);
type = Stem;
}
);
layerId = "113A2EC7-7A34-4A41-8395-62473D9E96C5";
shapes = (
{
closed = 1;
nodes = (
(104,0,ls),
(116,0,o),
(121,3,o),
(127,14,c),
(165,116,l),
(195,196,o),
(217,295,o),
(217,295,c),
(263,307,l),
(397,700,l),
(283,700,o),
(283,700,o),
(278,682,c),
(252,595,l),
(229,518,o),
(214,429,o),
(214,429,c),
(153,388,l),
(7,0,l)
);
},
{
closed = 1;
nodes = (
(398,0,ls),
(412,0,o),
(414,6,o),
(409,16,c),
(274,407,l),
(234,429,l),
(234,429,o),
(219,517,o),
(197,595,cs),
(168,700,l),
(37,700,o),
(28,700,o),
(34,681,c),
(150,335,l),
(187,295,l),
(187,295,o),
(210,196,o),
(236,116,c),
(274,0,l)
);
}
);
width = 421;
}
);
unicode = 88;
},
{
color = 3;
glyphname = Y;
kernLeft = Y;
kernRight = Y;
layers = (
{
anchors = (
{
name = bottom;
pos = (179,0);
},
{
name = top;
pos = (179,700);
},
{
name = topleft;
pos = (20,700);
}
);
hints = (
{
horizontal = 1;
place = (0,0);
type = Stem;
},
{
horizontal = 1;
place = (0,0);
type = Stem;
}
);
layerId = "B965DA2D-85AA-48ED-BC60-A8A438260572";
shapes = (
{
closed = 1;
nodes = (
(352,700,l),
(327,700,o),
(326,700,o),
(324,695,c),
(269,551,ls),
(233,457,o),
(180,311,o),
(180,311,c),
(180,311,o),
(128,458,o),
(91,551,cs),
(32,700,l),
(5,700,o),
(4,700,o),
(6,695,c),
(176,267,l),
(184,266,l)
);
},
{
closed = 1;
nodes = (
(192,0,o),
(192,0,o),
(192,10,c),
(192,301,l),
(168,301,l),
(168,0,l)
);
}
);
width = 357;
},
{
anchors = (
{
name = bottom;
pos = (184,0);
},
{
name = top;
pos = (184,700);
},
{
name = topleft;
pos = (20,700);
}
);
hints = (
{
horizontal = 1;
place = (0,0);
type = Stem;
},
{
horizontal = 1;
place = (0,0);
type = Stem;
}
);
layerId = "113A2EC7-7A34-4A41-8395-62473D9E96C5";
shapes = (
{
closed = 1;
nodes = (
(364,700,l),
(250,700,o),
(250,700,o),
(244,680,c),
(220,570,ls),
(210,522,o),
(195,422,o),
(191,377,c),
(187,422,o),
(174,521,o),
(163,569,cs),
(134,700,l),
(3,700,o),
(1,700,o),
(6,683,c),
(153,217,l),
(220,217,l)
);
},
{
closed = 1;
nodes = (
(245,0,o),
(243,0,o),
(243,20,c),
(243,365,l),
(131,365,l),
(131,0,l)
);
}
);
width = 368;
}
);
unicode = 89;
},
{
color = 3;
glyphname = Z;
kernLeft = Z;
kernRight = Z;
layers = (
{
anchors = (
{
name = top;
pos = (201,700);
}
);
layerId = "B965DA2D-85AA-48ED-BC60-A8A438260572";
shapes = (
{
closed = 1;
nodes = (
(358,0,ls),
(366,0,o),
(368,5,o),
(368,10,c),
(368,27,l),
(358,24,o),
(341,24,o),
(323,24,cs),
(60,24,l),
(364,673,ls),
(367,680,o),
(368,684,o),
(368,689,cs),
(368,693,o),
(367,697,o),
(364,700,c),
(67,700,ls),
(60,700,o),
(57,696,o),
(57,690,c),
(57,676,l),
(57,676,o),
(71,676,o),
(95,676,cs),
(337,676,l),
(35,27,ls),
(33,22,o),
(31,17,o),
(31,11,cs),
(31,5,o),
(34,1,o),
(38,0,c)
);
}
);
width = 402;
},
{
anchors = (
{
name = top;
pos = (188,700);
}
);
layerId = "113A2EC7-7A34-4A41-8395-62473D9E96C5";
shapes = (
{
closed = 1;
nodes = (
(337,0,ls),
(353,0,o),
(357,8,o),
(357,20,c),
(357,109,l),
(338,101,o),
(315,99,o),
(290,99,cs),
(135,99,l),
(346,617,ls),
(352,632,o),
(356,649,o),
(356,665,cs),
(356,682,o),
(352,690,o),
(346,700,c),
(46,700,ls),
(34,700,o),
(25,692,o),
(25,679,c),
(25,596,l),
(39,600,o),
(58,601,o),
(72,601,cs),
(228,601,l),
(22,90,ls),
(15,72,o),
(13,58,o),
(13,43,cs),
(13,23,o),
(20,9,o),
(28,0,c)
);
}
);
width = 376;
}
);
unicode = 90;
},
{
color = 3;
glyphname = a;
kernLeft = a;
kernRight = a;
layers = (
{
anchors = (
{
name = bottom;
pos = (192,0);
},
{
name = ogonek;
pos = (335,10);
},
{
name = top;
pos = (185,500);
}
);
layerId = "B965DA2D-85AA-48ED-BC60-A8A438260572";
shapes = (
{
closed = 1;
nodes = (
(265,-10,o),
(305,18,o),
(321,28,c),
(324,108,o),
(327,209,o),
(327,323,cs),
(327,389,ls),
(327,479,o),
(283,510,o),
(209,510,cs),
(140,510,o),
(72,498,o),
(49,486,cs),
(45,484,o),
(44,480,o),
(44,473,cs),
(44,468,o),
(45,465,o),
(48,460,c),
(71,472,o),
(128,486,o),
(204,486,cs),
(260,486,o),
(303,471,o),
(303,385,cs),
(303,357,o),
(303,287,o),
(303,287,c),
(279,294,o),
(246,297,o),
(212,297,cs),
(129,297,o),
(45,278,o),
(45,135,cs),
(45,0,o),
(119,-12,o),
(190,-10,cs)
);
},
{
closed = 1;
nodes = (
(132,14,o),
(69,16,o),
(69,136,cs),
(69,265,o),
(142,275,o),
(217,275,cs),
(242,275,o),
(278,271,o),
(303,264,c),
(303,187,o),
(301,96,o),
(297,43,c),
(283,31,o),
(242,14,o),
(197,14,cs)
);
}
);
width = 383;
},
{
anchors = (
{
name = bottom;
pos = (169,0);
},
{
name = ogonek;
pos = (304,10);
},
{
name = top;
pos = (169,500);
}
);
layerId = "113A2EC7-7A34-4A41-8395-62473D9E96C5";
shapes = (
{
closed = 1;
nodes = (
(222,-10,o),
(272,2,o),
(306,22,c),
(311,96,o),
(311,226,o),
(311,341,cs),
(311,388,ls),
(311,478,o),
(277,510,o),
(185,510,cs),
(105,510,o),
(50,492,o),
(36,481,cs),
(27,474,o),
(22,458,o),
(22,446,cs),
(22,430,o),
(25,404,o),
(37,381,c),
(70,393,o),
(120,402,o),
(157,402,cs),
(188,402,o),
(199,391,o),
(199,365,cs),
(199,337,o),
(199,296,o),
(199,296,c),
(181,308,o),
(150,311,o),
(135,311,cs),
(76,311,o),
(20,283,o),
(20,146,cs),
(20,7,o),
(88,-10,o),
(162,-10,cs)
);
},
{
closed = 1;
nodes = (
(145,82,o),
(138,101,o),
(138,149,cs),
(138,213,o),
(151,229,o),
(173,229,cs),
(181,229,o),
(192,227,o),
(199,221,c),
(199,179,o),
(199,114,o),
(197,92,c),
(191,85,o),
(179,82,o),
(170,82,cs)
);
}
);
width = 338;
}
);
unicode = 97;
},
{
glyphname = aogonek;
kernLeft = a;
kernRight = a;
layers = (
{
layerId = "B965DA2D-85AA-48ED-BC60-A8A438260572";
shapes = (
{
closed = 1;
nodes = (
(304,-195,o),
(323,-190,o),
(323,-177,cs),
(323,-175,o),
(322,-172,o),
(321,-169,cs),
(320,-166,o),
(319,-164,o),
(317,-162,c),
(305,-168,o),
(297,-171,o),
(283,-171,cs),
(249,-171,o),
(236,-150,o),
(236,-108,cs),
(236,-60,o),
(264,-11,o),
(321,28,c),
(324,108,o),
(327,209,o),
(327,323,c),
(327,389,l),
(327,479,o),
(283,510,o),
(209,510,cs),
(140,510,o),
(72,498,o),
(49,486,cs),
(45,484,o),
(44,480,o),
(44,473,cs),
(44,468,o),
(45,465,o),
(48,460,c),
(71,472,o),
(128,486,o),
(204,486,cs),
(260,486,o),
(303,471,o),
(303,385,cs),
(303,287,l),
(279,294,o),
(246,297,o),
(212,297,cs),
(129,297,o),
(45,278,o),
(45,135,cs),
(45,0,o),
(119,-12,o),
(190,-10,cs),
(214.284,-10,o),
(234.899,-7,o),
(252.217,-3,c),
(230.804,-31,o),
(212,-68,o),
(212,-108,cs),
(212,-164,o),
(236,-195,o),
(282,-195,cs)
);
},
{
closed = 1;
nodes = (
(132,14,o),
(69,16,o),
(69,136,cs),
(69,265,o),
(142,275,o),
(217,275,cs),
(242,275,o),
(278,271,o),
(303,264,c),
(303,187,o),
(301,96,o),
(297,43,c),
(283,31,o),
(242,14,o),
(197,14,cs)
);
}
);
width = 383;
},
{
layerId = "113A2EC7-7A34-4A41-8395-62473D9E96C5";
shapes = (
{
closed = 1;
nodes = (
(266,-195,o),
(289,-189,o),
(299,-173,cs),
(302,-168,o),
(304,-162,o),
(304,-154,cs),
(304,-144,o),
(301,-126,o),
(293,-110,c),
(284,-116,o),
(276,-117,o),
(268,-117,cs),
(250,-117,o),
(243,-108,o),
(243,-90,cs),
(243,-49,o),
(279,-3,o),
(306,22,c),
(311,96,o),
(311,226,o),
(311,341,c),
(311,388,l),
(311,478,o),
(277,510,o),
(185,510,cs),
(105,510,o),
(50,492,o),
(36,481,cs),
(27,474,o),
(22,458,o),
(22,446,cs),
(22,430,o),
(25,404,o),
(37,381,c),
(70,393,o),
(120,402,o),
(157,402,cs),
(188,402,o),
(199,391,o),
(199,365,cs),
(199,296,l),
(181,308,o),
(150,311,o),
(135,311,cs),
(76,311,o),
(20,283,o),
(20,146,cs),
(20,7,o),
(88,-10,o),
(162,-10,cs),
(168,-10,o),
(175,-10,o),
(181.401,-10,c),
(159.953,-35,o),
(144,-69,o),
(144,-106,cs),
(144,-176,o),
(185,-195,o),
(233,-195,cs)
);
},
{
closed = 1;
nodes = (
(145,82,o),
(138,101,o),
(138,149,cs),
(138,213,o),
(151,229,o),
(173,229,cs),
(181,229,o),
(192,227,o),
(199,221,c),
(199,179,o),
(199,114,o),
(197,92,c),
(191,85,o),
(179,82,o),
(170,82,cs)
);
}
);
width = 338;
}
);
unicode = 261;
},
{
color = 3;
glyphname = ae;
kernLeft = a;
kernRight = e;
layers = (
{
anchors = (
{
name = top;
pos = (333,500);
}
);
layerId = "B965DA2D-85AA-48ED-BC60-A8A438260572";
shapes = (
{
closed = 1;
nodes = (
(544,-8,o),
(606,19,o),
(606,29,cs),
(606,34,o),
(605,45,o),
(601,53,c),
(571,29,o),
(522,16,o),
(473,16,cs),
(393,16,o),
(329,31,o),
(329,217,cs),
(329,477,o),
(422,486,o),
(486,486,c),
(564,486,o),
(584,435,o),
(586,347,cs),
(586,323,o),
(585,297,o),
(582,267,c),
(487,247,o),
(324,283,o),
(324,283,c),
(324,259,l),
(324,259,o),
(482,223,o),
(603,246,c),
(608,276,o),
(610,320,o),
(610,359,cs),
(610,450,o),
(576,510,o),
(485,510,c),
(405,510,o),
(305,490,o),
(305,221,cs),
(305,15,o),
(377,-8,o),
(474,-8,cs)
);
},
{
closed = 1;
nodes = (
(132,14,o),
(69,20,o),
(69,131,cs),
(69,265,o),
(142,275,o),
(217,275,cs),
(242,275,o),
(278,271,o),
(303,264,c),
(303,41,l),
(289,27,o),
(242,14,o),
(197,14,cs)
);
},
{
closed = 1;
nodes = (
(265,-8,o),
(311,12,o),
(327,22,c),
(327,389,ls),
(327,479,o),
(283,510,o),
(206,510,cs),
(128,510,o),
(79,496,o),
(57,484,cs),
(53,482,o),
(49,476,o),
(49,470,cs),
(49,465,o),
(50,461,o),
(52,456,c),
(81,473,o),
(134,486,o),
(198,486,cs),
(260,486,o),
(303,471,o),
(303,385,cs),
(303,357,o),
(303,287,o),
(303,287,c),
(279,294,o),
(246,297,o),
(212,297,cs),
(129,297,o),
(45,278,o),
(45,135,cs),
(45,0,o),
(119,-10,o),
(190,-8,cs)
);
}
);
width = 666;
},
{
anchors = (
{
name = top;
pos = (268,500);
}
);
layerId = "113A2EC7-7A34-4A41-8395-62473D9E96C5";
shapes = (
{
closed = 1;
nodes = (
(438,-9,o),
(502,12,o),
(502,28,cs),
(502,60,o),
(499,107,o),
(493,127,c),
(458,110,o),
(423,99,o),
(375,99,cs),
(330,99,o),
(321,114,o),
(321,233,cs),
(321,355,o),
(331,413,o),
(366,413,c),
(391,413,o),
(400,403,o),
(400,339,cs),
(400,323,o),
(399,299,o),
(395,287,c),
(335,281,o),
(273,307,o),
(273,307,c),
(271,218,l),
(271,218,o),
(351,189,o),
(495,205,c),
(505,244,o),
(509,299,o),
(509,347,cs),
(509,463,o),
(461,510,o),
(381,510,c),
(287,510,o),
(225,476,o),
(225,226,cs),
(225,22,o),
(269,-9,o),
(360,-9,cs)
);
},
{
closed = 1;
nodes = (
(143,82,o),
(138,93,o),
(138,159,cs),
(138,223,o),
(151,249,o),
(173,249,cs),
(181,249,o),
(191,247,o),
(199,242,c),
(199,92,l),
(193,84,o),
(175,82,o),
(168,82,cs)
);
},
{
closed = 1;
nodes = (
(222,-10,o),
(257,0,o),
(291,20,c),
(291,388,ls),
(291,478,o),
(269,510,o),
(192,510,cs),
(101,510,o),
(50,495,o),
(34,482,cs),
(29,478,o),
(22,465,o),
(22,453,cs),
(22,445,o),
(23,408,o),
(37,385,c),
(70,403,o),
(108,411,o),
(151,411,cs),
(178,411,o),
(199,400,o),
(199,374,cs),
(199,346,o),
(199,316,o),
(199,316,c),
(181,328,o),
(150,331,o),
(131,331,cs),
(76,331,o),
(20,293,o),
(20,156,cs),
(20,0,o),
(88,-10,o),
(162,-10,cs)
);
}
);
width = 536;
}
);
unicode = 230;
},
{
color = 3;
glyphname = b;
kernLeft = l;
kernRight = b;
layers = (
{
guides = (
{
pos = (-1024,398);
}
);
hints = (
{
horizontal = 1;
place = (0,0);
type = Stem;
}
);
layerId = "B965DA2D-85AA-48ED-BC60-A8A438260572";
shapes = (
{
closed = 1;
nodes = (
(264,-10,o),
(380,26,o),
(380,324,cs),
(380,464,o),
(322,509,o),
(240,510,cs),
(173,510,o),
(131,492,o),
(94,463,c),
(94,735,l),
(77,735,o),
(70,735,o),
(70,720,c),
(70,20,l),
(96,0,o),
(133,-10,o),
(185,-10,cs)
);
},
{
closed = 1;
nodes = (
(136,14,o),
(108,26,o),
(94,37,c),
(94,433,l),
(133,470,o),
(179,486,o),
(231,486,cs),
(316,486,o),
(356,446,o),
(356,311,cs),
(356,44,o),
(251,14,o),
(186,14,cs)
);
}
);
width = 422;
},
{
hints = (
{
horizontal = 1;
place = (0,0);
type = Stem;
}
);
layerId = "113A2EC7-7A34-4A41-8395-62473D9E96C5";
shapes = (
{
closed = 1;
nodes = (
(238,-10,o),
(345,23,o),
(345,307,cs),
(345,457,o),
(311,510,o),
(232,510,cs),
(197,510,o),
(168,499,o),
(147,481,c),
(147,735,l),
(53,735,o),
(35,735,o),
(35,685,c),
(35,20,l),
(57,2,o),
(99,-10,o),
(152,-10,cs)
);
},
{
closed = 1;
nodes = (
(160,88,o),
(152,91,o),
(147,96,c),
(147,396,l),
(157,406,o),
(169,410,o),
(180,410,cs),
(205,410,o),
(218,379,o),
(218,287,cs),
(218,118,o),
(188,88,o),
(169,88,cs)
);
}
);
width = 365;
}
);
unicode = 98;
},
{
color = 3;
glyphname = c;
kernLeft = o;
kernRight = c;
layers = (
{
anchors = (
{
name = bottom;
pos = (210,0);
},
{
name = top;
pos = (203,500);
}
);
layerId = "B965DA2D-85AA-48ED-BC60-A8A438260572";
shapes = (
{
closed = 1;
nodes = (
(270,-10,o),
(318,19,o),
(318,35,cs),
(318,41,o),
(316,48,o),
(312,53,c),
(294,34,o),
(257,13,o),
(205,13,cs),
(130,13,o),
(74,45,o),
(74,234,cs),
(74,461,o),
(160,486,o),
(225,486,cs),
(265,486,o),
(294,471,o),
(310,458,c),
(314,463,o),
(316,472,o),
(316,476,cs),
(316,492,o),
(275,510,o),
(232,510,cs),
(151,510,o),
(50,479,o),
(50,239,cs),
(50,20,o),
(119,-10,o),
(201,-10,cs)
);
}
);
width = 352;
},
{
anchors = (
{
name = bottom;
pos = (146,0);
},
{
name = top;
pos = (146,500);
}
);
layerId = "113A2EC7-7A34-4A41-8395-62473D9E96C5";
shapes = (
{
closed = 1;
nodes = (
(232,-10,o),
(277,11,o),
(277,44,cs),
(277,61,o),
(274,78,o),
(268,103,c),
(252,95,o),
(225,89,o),
(204,89,cs),
(151,89,o),
(137,126,o),
(137,241,cs),
(137,393,o),
(172,412,o),
(208,412,cs),
(229,412,o),
(255,406,o),
(271,399,c),
(279,423,o),
(281,444,o),
(281,459,cs),
(281,491,o),
(247,510,o),
(198,510,cs),
(115,510,o),
(20,479,o),
(20,239,cs),
(20,32,o),
(65,-10,o),
(168,-10,cs)
);
}
);
width = 291;
}
);
unicode = 99;
},
{
color = 3;
glyphname = d;
kernLeft = o;
layers = (
{
anchors = (
{
name = center;
pos = (211,250);
},
{
name = topright;
pos = (392,500);
}
);
layerId = "B965DA2D-85AA-48ED-BC60-A8A438260572";
shapes = (
{
closed = 1;
nodes = (
(269,-10,o),
(320,2,o),
(352,20,c),
(352,735,l),
(335,735,o),
(327,735,o),
(327,720,c),
(327,486,l),
(301,504,o),
(272,510,o),
(233,510,c),
(134,510,o),
(50,426,o),
(50,241,cs),
(50,15,o),
(123,-10,o),
(213,-10,cs)
);
},
{
closed = 1;
nodes = (
(135,15,o),
(74,33,o),
(74,241,cs),
(74,403,o),
(146,486,o),
(236,486,cs),
(281,486,o),
(301,479,o),
(327,458,c),
(328,39,l),
(299,21,o),
(260,14,o),
(220,14,cs)
);
}
);
width = 422;
},
{
anchors = (
{
name = center;
pos = (179,250);
},
{
name = topright;
pos = (358,500);
}
);
layerId = "113A2EC7-7A34-4A41-8395-62473D9E96C5";
shapes = (
{
closed = 1;
nodes = (
(247,-10,o),
(294,5,o),
(328,20,c),
(328,735,l),
(235,735,o),
(216,735,o),
(216,686,c),
(216,492,l),
(204,502,o),
(184,510,o),
(157,510,c),
(79,510,o),
(20,432,o),
(20,227,cs),
(20,15,o),
(97,-10,o),
(182,-10,cs)
);
},
{
closed = 1;
nodes = (
(157,89,o),
(146,122,o),
(146,241,cs),
(146,406,o),
(175,414,o),
(195,414,cs),
(202,414,o),
(210,413,o),
(216,409,c),
(216,99,l),
(207,92,o),
(196,89,o),
(183,89,cs)
);
}
);
width = 358;
}
);
unicode = 100;
},
{
color = 3;
glyphname = eth;
kernLeft = o;
layers = (
{
hints = (
{
horizontal = 1;
place = (0,0);
type = Stem;
}
);
layerId = "B965DA2D-85AA-48ED-BC60-A8A438260572";
shapes = (
{
closed = 1;
nodes = (
(382,-10,o),
(407,135,o),
(407,289,cs),
(407,497,o),
(343,634,o),
(194,738,cs),
(191,740,o),
(185,743,o),
(181,743,cs),
(175,743,o),
(169,738,o),
(167,729,c),
(325,623,o),
(383,480,o),
(383,300,cs),
(383,161,o),
(367,14,o),
(229,14,cs),
(131,14,o),
(71,83,o),
(71,256,cs),
(71,412,o),
(132,484,o),
(232,484,cs),
(305,484,o),
(362,440,o),
(396,351,c),
(396,389,l),
(370,471,o),
(308,508,o),
(231,508,cs),
(112,508,o),
(47,423,o),
(47,256,cs),
(47,70,o),
(111,-10,o),
(229,-10,cs)
);
},
{
closed = 1;
nodes = (
(350,685,ls),
(359,689,o),
(358,691,o),
(350,712,c),
(167,638,ls),
(158,634,o),
(159,631,o),
(167,611,c)
);
}
);
width = 450;
},
{
hints = (
{
horizontal = 1;
place = (0,0);
type = Stem;
}
);
layerId = "113A2EC7-7A34-4A41-8395-62473D9E96C5";
shapes = (
{
closed = 1;
nodes = (
(337,-10,o),
(365,124,o),
(365,289,cs),
(365,507,o),
(312,645,o),
(224,728,cs),
(214,740,o),
(199,745,o),
(184,745,cs),
(153,745,o),
(119,725,o),
(101,695,c),
(206,596,o),
(251,513,o),
(251,278,cs),
(251,162,o),
(247,82,o),
(195,82,cs),
(155,82,o),
(135,132,o),
(135,237,cs),
(135,319,o),
(150,411,o),
(200,411,cs),
(229,411,o),
(249,394,o),
(270,339,c),
(265,455,l),
(242,491,o),
(217,510,o),
(167,510,cs),
(82,510,o),
(20,420,o),
(20,258,cs),
(20,56,o),
(75,-10,o),
(198,-10,cs)
);
},
{
closed = 1;
nodes = (
(328,624,ls),
(347,631,o),
(336,659,o),
(312,720,c),
(92,636,ls),
(73,628,o),
(84,600,o),
(108,539,c)
);
}
);
width = 385;
}
);
unicode = 240;
},
{
color = 3;
glyphname = e;
kernLeft = o;
kernRight = e;
layers = (
{
anchors = (
{
name = bottom;
pos = (195,0);
},
{
name = ogonek;
pos = (351,10);
},
{
name = top;
pos = (220,500);
}
);
layerId = "B965DA2D-85AA-48ED-BC60-A8A438260572";
shapes = (
{
closed = 1;
nodes = (
(286,-10,o),
(348,17,o),
(348,32,cs),
(348,36,o),
(347,43,o),
(343,51,c),
(313,27,o),
(264,14,o),
(215,14,cs),
(135,14,o),
(71,31,o),
(71,217,cs),
(71,476,o),
(164,486,o),
(228,486,cs),
(306,486,o),
(326,430,o),
(328,342,cs),
(328,318,o),
(327,297,o),
(324,267,c),
(229,247,o),
(66,252,o),
(66,252,c),
(66,228,l),
(66,228,o),
(224,223,o),
(345,246,c),
(350,276,o),
(352,315,o),
(352,354,cs),
(352,445,o),
(318,510,o),
(227,510,cs),
(150,510,o),
(47,486,o),
(47,221,cs),
(47,15,o),
(119,-10,o),
(216,-10,cs)
);
}
);
width = 390;
},
{
anchors = (
{
name = bottom;
pos = (172,0);
},
{
name = ogonek;
pos = (310,10);
},
{
name = top;
pos = (172,500);
}
);
layerId = "113A2EC7-7A34-4A41-8395-62473D9E96C5";
shapes = (
{
closed = 1;
nodes = (
(253,-10,o),
(317,12,o),
(317,52,cs),
(317,75,o),
(314,107,o),
(308,127,c),
(273,110,o),
(238,99,o),
(202,99,cs),
(145,99,o),
(136,139,o),
(136,233,cs),
(136,355,o),
(146,413,o),
(181,413,cs),
(206,413,o),
(215,403,o),
(215,339,cs),
(215,323,o),
(214,299,o),
(210,287,c),
(181,274,o),
(88,279,o),
(88,279,c),
(86,190,l),
(86,190,o),
(232,189,o),
(310,205,c),
(320,244,o),
(324,299,o),
(324,347,cs),
(324,463,o),
(276,510,o),
(196,510,cs),
(102,510,o),
(20,468,o),
(20,226,cs),
(20,36,o),
(84,-10,o),
(175,-10,cs)
);
}
);
width = 344;
}
);
unicode = 101;
},
{
glyphname = eogonek;
kernLeft = o;
kernRight = e;
layers = (
{
layerId = "B965DA2D-85AA-48ED-BC60-A8A438260572";
shapes = (
{
closed = 1;
nodes = (
(332,-195,o),
(351,-190,o),
(351,-177,cs),
(351,-175,o),
(350,-172,o),
(349,-169,cs),
(348,-166,o),
(347,-164,o),
(345,-162,c),
(333,-168,o),
(325,-171,o),
(311,-171,cs),
(277,-171,o),
(264,-153,o),
(264,-118,cs),
(264,-66,o),
(298,-8,o),
(332.849,16.389,cs),
(338,20,o),
(348,27,o),
(348,32,cs),
(348,36,o),
(347,43,o),
(343,51,c),
(313,27,o),
(264,14,o),
(215,14,cs),
(137,14,o),
(71,27,o),
(71.056,227.871,c),
(98.956,227.256,o),
(236.777,225.429,o),
(345,246,c),
(350,276,o),
(352,315,o),
(352,354,cs),
(352,445,o),
(318,510,o),
(227,510,cs),
(150,510,o),
(47,486,o),
(47,221,cs),
(47,15,o),
(119,-10,o),
(216,-10,cs),
(241.278,-10,o),
(265.512,-6,o),
(286.16,-1,c),
(262.656,-31,o),
(240,-74,o),
(240,-118,cs),
(240,-168,o),
(264,-195,o),
(310,-195,cs)
);
},
{
closed = 1;
nodes = (
(79.669,476.917,o),
(167.005,486,o),
(228,486,cs),
(306,486,o),
(326,430,o),
(328,342,cs),
(328,318,o),
(327,297,o),
(324,267,c),
(239.443,249.199,o),
(101.015,251.203,o),
(71.603,251.859,c)
);
}
);
width = 390;
},
{
layerId = "113A2EC7-7A34-4A41-8395-62473D9E96C5";
shapes = (
{
closed = 1;
nodes = (
(272,-195,o),
(295,-189,o),
(305,-173,cs),
(308,-168,o),
(310,-162,o),
(310,-154,cs),
(310,-144,o),
(307,-126,o),
(299,-110,c),
(290,-116,o),
(282,-117,o),
(274,-117,cs),
(256,-117,o),
(249,-108,o),
(249,-90,cs),
(249,-51,o),
(271,-8,o),
(300,20,cs),
(310,30,o),
(317,40,o),
(317,52,c),
(317,75,o),
(314,107,o),
(308,127,c),
(273,110,o),
(238,99,o),
(202,99,cs),
(154.474,99,o),
(140.318,126.809,o),
(136.925,190.541,c),
(186.559,191.668,o),
(261.451,195.041,o),
(310,205,c),
(320,244,o),
(324,299,o),
(324,347,cs),
(324,463,o),
(276,510,o),
(196,510,cs),
(102,510,o),
(20,468,o),
(20,226,cs),
(20,40,o),
(82,-9,o),
(170,-10,cs),
(171,-10,o),
(173,-10,o),
(174,-10,c),
(160,-37,o),
(150,-71,o),
(150,-106,cs),
(150,-176,o),
(191,-195,o),
(239,-195,cs)
);
},
{
closed = 1;
nodes = (
(139.086,369.341,o),
(150.634,413,o),
(181,413,cs),
(206,413,o),
(215,403,o),
(215,339,cs),
(215,323,o),
(214,299,o),
(210,287,c),
(195.218,280.374,o),
(163.807,278.424,o),
(136.561,278.105,c)
);
}
);
width = 344;
}
);
unicode = 281;
},
{
color = 3;
glyphname = f;
kernLeft = f;
kernRight = f;
layers = (
{
hints = (
{
horizontal = 1;
place = (0,0);
type = Stem;
}
);
layerId = "B965DA2D-85AA-48ED-BC60-A8A438260572";
shapes = (
{
closed = 1;
nodes = (
(116,0,l),
(123,0,o),
(126,3,o),
(126,10,c),
(126,476,l),
(238,476,ls),
(248,476,o),
(248,478,o),
(248,500,c),
(126,500,l),
(126,563,ls),
(126,706,o),
(200,716,o),
(257,716,cs),
(289,716,o),
(310,712,o),
(334,705,c),
(336,710,o),
(338,714,o),
(338,720,cs),
(338,727,o),
(318,740,o),
(259,740,cs),
(192,740,o),
(102,721,o),
(102,567,cs),
(102,500,l),
(27,500,l),
(17,500,o),
(17,498,o),
(17,476,c),
(102,476,l),
(102,0,l)
);
}
);
width = 241;
},
{
hints = (
{
horizontal = 1;
place = (0,0);
type = Stem;
}
);
layerId = "113A2EC7-7A34-4A41-8395-62473D9E96C5";
shapes = (
{
closed = 1;
nodes = (
(162,0,l),
(182,0,o),
(182,20,o),
(182,20,c),
(182,407,l),
(233,407,ls),
(252,407,o),
(254,413,o),
(254,500,c),
(182,500,l),
(182,569,ls),
(182,625,o),
(215,638,o),
(265,638,cs),
(282,638,o),
(308,637,o),
(333,625,c),
(340,644,o),
(344,668,o),
(344,686,cs),
(344,721,o),
(306,738,o),
(244,738,cs),
(163,738,o),
(70,712,o),
(70,557,cs),
(70,500,l),
(37,500,l),
(10,500,o),
(10,494,o),
(10,407,c),
(70,407,l),
(70,0,l)
);
}
);
width = 262;
}
);
unicode = 102;
},
{
color = 3;
glyphname = g;
kernLeft = g;
kernRight = g;
layers = (
{
anchors = (
{
name = top;
pos = (217,500);
}
);
layerId = "B965DA2D-85AA-48ED-BC60-A8A438260572";
shapes = (
{
closed = 1;
nodes = (
(333,-198,o),
(397,-128,o),
(397,-63,cs),
(397,16,o),
(331,32,o),
(263,40,cs),
(162,51,o),
(86,69,o),
(86,91,cs),
(86,114,o),
(129,155,o),
(163,174,c),
(141,184,l),
(109,165,o),
(62,119,o),
(62,89,cs),
(62,49,o),
(152,30,o),
(261,18,cs),
(315,12,o),
(373,1,o),
(373,-64,cs),
(373,-120,o),
(314,-174,o),
(202,-174,cs),
(89,-174,o),
(69,-138,o),
(69,-94,cs),
(69,-45,o),
(132,21,o),
(179,42,c),
(158,53,l),
(114,32,o),
(45,-35,o),
(45,-94,cs),
(45,-148,o),
(71,-198,o),
(202,-198,cs)
);
},
{
closed = 1;
nodes = (
(333,154,o),
(379,249,o),
(379,350,cs),
(379,426,o),
(346,474,o),
(293,488,c),
(285,500,l),
(266,507,o),
(236,510,o),
(223,510,cs),
(137,510,o),
(61,448,o),
(61,332,cs),
(61,241,o),
(86,154,o),
(217,154,cs)
);
},
{
closed = 1;
nodes = (
(101,178,o),
(85,257,o),
(85,330,cs),
(85,435,o),
(149,486,o),
(223,486,cs),
(304,486,o),
(355,442,o),
(355,350,cs),
(355,269,o),
(314,178,o),
(220,178,cs)
);
},
{
closed = 1;
nodes = (
(391,483,o),
(395,488,o),
(395,496,cs),
(395,502,o),
(393,505,o),
(393,505,c),
(243,505,l),
(278,486,l),
(278,486,o),
(340,483,o),
(379,483,cs)
);
}
);
width = 414;
},
{
anchors = (
{
name = top;
pos = (191,500);
}
);
layerId = "113A2EC7-7A34-4A41-8395-62473D9E96C5";
shapes = (
{
closed = 1;
nodes = (
(307,-196,o),
(362,-116,o),
(362,-18,cs),
(362,61,o),
(315,92,o),
(230,106,cs),
(182,114,o),
(144,111,o),
(144,127,cs),
(144,146,o),
(174,175,o),
(174,175,c),
(108,196,l),
(50,153,o),
(25,119,o),
(24,86,cs),
(22,45,o),
(64,25,o),
(134,20,cs),
(240,13,o),
(248,0,o),
(248,-34,cs),
(248,-58,o),
(233,-94,o),
(184,-94,cs),
(139,-94,o),
(126,-80,o),
(126,-55,cs),
(126,-16,o),
(157,19,o),
(191,34,c),
(156,66,l),
(76,43,o),
(10,-11,o),
(10,-84,cs),
(10,-135,o),
(35,-196,o),
(172,-196,cs)
);
},
{
closed = 1;
nodes = (
(299,154,o),
(345,209,o),
(345,317,cs),
(345,388,o),
(316,427,o),
(274,449,c),
(253,498,l),
(234,506,o),
(213,510,o),
(196,510,cs),
(91,510,o),
(27,466,o),
(27,324,cs),
(27,226,o),
(67,154,o),
(183,154,cs)
);
},
{
closed = 1;
nodes = (
(156,237,o),
(146,258,o),
(146,329,cs),
(146,408,o),
(164,431,o),
(191,431,cs),
(221,431,o),
(232,410,o),
(232,347,cs),
(232,256,o),
(218,237,o),
(188,237,cs)
);
},
{
closed = 1;
nodes = (
(362,405,o),
(377,417,o),
(377,446,cs),
(377,471,o),
(371,489,o),
(365,501,c),
(208,501,l),
(202,455,l),
(202,455,o),
(301,405,o),
(342,405,cs)
);
}
);
width = 382;
}
);
unicode = 103;
},
{
color = 3;
glyphname = h;
kernRight = n;
layers = (
{
anchors = (
{
name = center;
pos = (208,250);
},
{
name = top;
pos = (208,500);
}
);
hints = (
{
horizontal = 1;
place = (0,0);
type = Stem;
},
{
horizontal = 1;
place = (0,0);
type = Stem;
}
);
layerId = "B965DA2D-85AA-48ED-BC60-A8A438260572";
shapes = (
{
closed = 1;
nodes = (
(89,0,o),
(90,0,o),
(90,10,c),
(90,430,l),
(132,472,o),
(191,486,o),
(232,486,cs),
(317,486,o),
(337,442,o),
(337,373,cs),
(337,0,l),
(361,0,o),
(361,0,o),
(361,10,c),
(361,373,ls),
(361,456,o),
(338,510,o),
(234,510,cs),
(188,510,o),
(136,497,o),
(90,463,c),
(90,735,l),
(71,735,o),
(66,735,o),
(66,720,c),
(66,0,l)
);
}
);
width = 415;
},
{
anchors = (
{
name = center;
pos = (181,250);
},
{
name = top;
pos = (181,500);
}
);
hints = (
{
horizontal = 1;
place = (0,0);
type = Stem;
},
{
horizontal = 1;
place = (0,0);
type = Stem;
}
);
layerId = "113A2EC7-7A34-4A41-8395-62473D9E96C5";
shapes = (
{
closed = 1;
nodes = (
(145,0,o),
(145,0,o),
(145,20,c),
(145,395,l),
(159,404,o),
(172,407,o),
(184,407,cs),
(214,407,o),
(216,376,o),
(216,346,cs),
(216,0,l),
(325,0,o),
(332,0,o),
(332,20,c),
(332,381,ls),
(332,466,o),
(317,510,o),
(240,510,cs),
(207,510,o),
(168,498,o),
(145,475,c),
(145,735,l),
(53,735,o),
(33,735,o),
(33,686,c),
(33,0,l)
);
}
);
width = 361;
}
);
unicode = 104;
},
{
color = 3;
glyphname = idotless;
kernLeft = i;
kernRight = i;
layers = (
{
anchors = (
{
name = ogonek;
pos = (95,10);
},
{
name = top;
pos = (83,500);
}
);
hints = (
{
horizontal = 1;
place = (0,0);
type = Stem;
},
{
horizontal = 1;
place = (0,0);
type = Stem;
}
);
layerId = "B965DA2D-85AA-48ED-BC60-A8A438260572";
shapes = (
{
closed = 1;
nodes = (
(95,0,o),
(95,0,o),
(95,10,cs),
(95,500,l),
(76,500,o),
(71,500,o),
(71,485,cs),
(71,0,l)
);
}
);
width = 166;
},
{
anchors = (
{
name = ogonek;
pos = (162,10);
},
{
name = top;
pos = (90,500);
}
);
hints = (
{
horizontal = 1;
place = (0,0);
type = Stem;
},
{
horizontal = 1;
place = (0,0);
type = Stem;
}
);
layerId = "113A2EC7-7A34-4A41-8395-62473D9E96C5";
shapes = (
{
closed = 1;
nodes = (
(146,0,o),
(147,0,o),
(147,20,cs),
(147,500,l),
(55,500,o),
(33,500,o),
(33,451,cs),
(33,0,l)
);
}
);
width = 180;
}
);
unicode = 305;
},
{
glyphname = iogonek;
kernLeft = i;
kernRight = i;
layers = (
{
layerId = "B965DA2D-85AA-48ED-BC60-A8A438260572";
shapes = (
{
closed = 1;
nodes = (
(92,-195,o),
(109,-188,o),
(108,-177,cs),
(108,-173,o),
(105,-165,o),
(102,-162,c),
(90,-168,o),
(82,-171,o),
(68,-171,cs),
(35,-171,o),
(21,-153,o),
(21,-122,cs),
(21,-74,o),
(53,-30,o),
(83,-6,cs),
(90,-1,o),
(96,2,o),
(96,10,c),
(96,500,l),
(71,500,o),
(70,500,o),
(70,484,cs),
(70,12,l),
(31,-21,o),
(-3,-64,o),
(-3,-121,cs),
(-3,-167,o),
(21,-195,o),
(68,-195,cs)
);
},
{
pos = (-42,0);
ref = dotaccentcomb;
}
);
width = 166;
},
{
layerId = "113A2EC7-7A34-4A41-8395-62473D9E96C5";
shapes = (
{
closed = 1;
nodes = (
(119,-195,o),
(150,-184,o),
(150,-154,cs),
(150,-144,o),
(146,-125,o),
(139,-110,c),
(132,-115,o),
(124,-117,o),
(115,-117,cs),
(96,-117,o),
(89,-108,o),
(89,-91,cs),
(89,-55,o),
(119,-21,o),
(136,-3,cs),
(145,6,o),
(147,11,o),
(147,20,cs),
(147,500,l),
(35,500,o),
(33,500,o),
(33,451,cs),
(33,0,l),
(12,-30,o),
(-10,-62,o),
(-10,-110,cs),
(-10,-176,o),
(33,-195,o),
(82,-195,cs)
);
},
{
pos = (-50,0);
ref = dotaccentcomb;
}
);
width = 180;
}
);
unicode = 303;
},
{
color = 3;
glyphname = jdotless;
kernLeft = j;
kernRight = i;
layers = (
{
anchors = (
{
name = top;
pos = (90,500);
}
);
hints = (
{
horizontal = 1;
place = (0,0);
type = Stem;
}
);
layerId = "B965DA2D-85AA-48ED-BC60-A8A438260572";
shapes = (
{
closed = 1;
nodes = (
(83,-194,o),
(101,-131,o),
(101,-37,cs),
(101,500,l),
(82,500,o),
(77,500,o),
(77,485,c),
(77,-28,ls),
(77,-118,o),
(68,-170,o),
(-11,-170,cs),
(-64,-170,o),
(-97,-154,o),
(-119,-137,c),
(-124,-144,o),
(-125,-149,o),
(-125,-155,cs),
(-125,-170,o),
(-83,-194,o),
(-14,-194,cs)
);
}
);
width = 179;
},
{
anchors = (
{
name = top;
pos = (94,500);
}
);
hints = (
{
horizontal = 1;
place = (0,0);
type = Stem;
}
);
layerId = "113A2EC7-7A34-4A41-8395-62473D9E96C5";
shapes = (
{
closed = 1;
nodes = (
(127,-197,o),
(153,-120,o),
(153,-36,cs),
(153,500,l),
(62,500,o),
(41,500,o),
(41,451,c),
(41,-21,ls),
(41,-79,o),
(33,-95,o),
(-3,-95,cs),
(-28,-95,o),
(-52,-92,o),
(-75,-82,c),
(-86,-96,o),
(-90,-117,o),
(-90,-137,cs),
(-90,-178,o),
(-63,-197,o),
(14,-197,cs)
);
}
);
width = 187;
}
);
unicode = 567;
},
{
color = 3;
glyphname = k;
kernLeft = l;
kernRight = k;
layers = (
{
anchors = (
{
name = bottom;
pos = (202,0);
}
);
hints = (
{
horizontal = 1;
place = (0,0);
type = Stem;
},
{
horizontal = 1;
place = (0,0);
type = Stem;
}
);
layerId = "B965DA2D-85AA-48ED-BC60-A8A438260572";
shapes = (
{
closed = 1;
nodes = (
(96,0,o),
(94,0,o),
(94,10,c),
(94,208,l),
(94,208,o),
(149,229,o),
(170,235,cs),
(205,245,o),
(291,249,o),
(327,163,cs),
(342,127,o),
(348,75,o),
(338,0,c),
(363,0,o),
(362,0,o),
(364,13,cs),
(370,58,o),
(369,97,o),
(363,128,cs),
(341,241,o),
(254,269,o),
(214,260,c),
(242,271,o),
(344,323,o),
(344,421,cs),
(344,481,o),
(317,510,o),
(254,510,cs),
(211,510,o),
(140,484,o),
(94,431,c),
(94,735,l),
(75,735,o),
(70,735,o),
(70,720,c),
(70,0,l)
);
},
{
closed = 1;
nodes = (
(94,402,l),
(147,463,o),
(205,486,o),
(252,486,cs),
(298,486,o),
(320,464,o),
(320,421,cs),
(320,331,o),
(216,271,o),
(94,234,c)
);
}
);
width = 404;
},
{
anchors = (
{
name = bottom;
pos = (181,0);
}
);
hints = (
{
horizontal = 1;
place = (0,0);
type = Stem;
},
{
horizontal = 1;
place = (0,0);
type = Stem;
}
);
layerId = "113A2EC7-7A34-4A41-8395-62473D9E96C5";
shapes = (
{
closed = 1;
nodes = (
(147,0,o),
(146,0,o),
(146,20,c),
(146,207,l),
(146,207,o),
(157,218,o),
(173,221,cs),
(212,228,o),
(223,178,o),
(223,101,cs),
(223,69,o),
(221,34,o),
(218,0,c),
(343,0,o),
(344,0,o),
(346,17,cs),
(348,40,o),
(349,63,o),
(349,85,cs),
(348,165,o),
(329,236,o),
(277,274,c),
(300,298,o),
(335,350,o),
(335,425,cs),
(335,464,o),
(320,510,o),
(252,510,cs),
(210,510,o),
(173,497,o),
(146,482,c),
(146,735,l),
(54,735,o),
(33,735,o),
(33,686,c),
(33,0,l)
);
},
{
closed = 1;
nodes = (
(146,382,l),
(158,399,o),
(172,410,o),
(189,410,cs),
(203,410,o),
(209,400,o),
(209,383,cs),
(209,334,o),
(187,305,o),
(146,282,c)
);
}
);
width = 361;
}
);
unicode = 107;
},
{
color = 3;
glyphname = l;
layers = (
{
anchors = (
{
name = bottom;
pos = (83,0);
},
{
name = top;
pos = (83,735);
},
{
name = topright;
pos = (125,500);
}
);
hints = (
{
horizontal = 1;
place = (0,0);
type = Stem;
},
{
horizontal = 1;
place = (0,0);
type = Stem;
}
);
layerId = "B965DA2D-85AA-48ED-BC60-A8A438260572";
shapes = (
{
closed = 1;
nodes = (
(93,0,o),
(94,0,o),
(94,10,c),
(94,735,l),
(76,735,o),
(70,735,o),
(70,720,c),
(70,0,l)
);
}
);
width = 165;
},
{
anchors = (
{
name = bottom;
pos = (89,0);
},
{
name = top;
pos = (89,735);
},
{
name = topright;
pos = (178,500);
}
);
hints = (
{
horizontal = 1;
place = (0,0);
type = Stem;
},
{
horizontal = 1;
place = (0,0);
type = Stem;
}
);
layerId = "113A2EC7-7A34-4A41-8395-62473D9E96C5";
shapes = (
{
closed = 1;
nodes = (
(145,0,o),
(145,0,o),
(145,20,c),
(145,735,l),
(54,735,o),
(33,735,o),
(33,686,c),
(33,0,l)
);
}
);
width = 178;
}
);
unicode = 108;
},
{
color = 3;
glyphname = lslash;
layers = (
{
hints = (
{
horizontal = 1;
place = (0,0);
type = Stem;
},
{
horizontal = 1;
place = (0,0);
type = Stem;
},
{
horizontal = 1;
place = (0,0);
type = Stem;
},
{
horizontal = 1;
place = (0,0);
type = Stem;
}
);
layerId = "B965DA2D-85AA-48ED-BC60-A8A438260572";
shapes = (
{
closed = 1;
nodes = (
(96,0,o),
(94,0,o),
(94,10,c),
(94,735,l),
(76,735,o),
(70,735,o),
(70,720,c),
(70,0,l)
);
},
{
closed = 1;
nodes = (
(155,474,ls),
(164,478,o),
(163,480,o),
(155,501,c),
(9,442,ls),
(0,438,o),
(1,435,o),
(9,415,c)
);
}
);
width = 165;
},
{
hints = (
{
horizontal = 1;
place = (0,0);
type = Stem;
},
{
horizontal = 1;
place = (0,0);
type = Stem;
},
{
horizontal = 1;
place = (0,0);
type = Stem;
},
{
horizontal = 1;
place = (0,0);
type = Stem;
}
);
layerId = "113A2EC7-7A34-4A41-8395-62473D9E96C5";
shapes = (
{
closed = 1;
nodes = (
(155,0,o),
(155,0,o),
(155,20,c),
(155,735,l),
(64,735,o),
(43,735,o),
(43,686,c),
(43,0,l)
);
},
{
closed = 1;
nodes = (
(189,404,ls),
(209,408,o),
(202,438,o),
(188,502,c),
(14,464,ls),
(-6,459,o),
(0,429,o),
(14,365,c)
);
}
);
width = 198;
}
);
unicode = 322;
},
{
color = 3;
glyphname = m;
kernLeft = n;
kernRight = n;
layers = (
{
hints = (
{
horizontal = 1;
place = (0,0);
type = Stem;
}
);
layerId = "B965DA2D-85AA-48ED-BC60-A8A438260572";
shapes = (
{
closed = 1;
nodes = (
(92,0,o),
(94,0,o),
(94,10,cs),
(94,459,l),
(140,480,o),
(178,486,o),
(216,486,cs),
(305,486,o),
(305,445,o),
(305,367,cs),
(305,0,l),
(329,0,o),
(329,0,o),
(329,10,cs),
(329,368,ls),
(329,455,o),
(329,510,o),
(215,510,cs),
(171,510,o),
(124,500,o),
(70,477,c),
(70,0,l)
);
},
{
closed = 1;
nodes = (
(327,0,o),
(329,0,o),
(329,10,cs),
(329,449,l),
(372,478,o),
(413,486,o),
(451,486,cs),
(524,486,o),
(537,449,o),
(537,367,cs),
(537,0,l),
(561,0,o),
(561,0,o),
(561,10,cs),
(561,360,ls),
(561,458,o),
(547,510,o),
(450,510,cs),
(406,510,o),
(353,496,o),
(305,464,c),
(305,0,l)
);
}
);
width = 625;
},
{
hints = (
{
horizontal = 1;
place = (0,0);
type = Stem;
}
);
layerId = "113A2EC7-7A34-4A41-8395-62473D9E96C5";
shapes = (
{
closed = 1;
nodes = (
(142,0,o),
(145,0,o),
(145,20,cs),
(145,402,l),
(156,409,o),
(170,414,o),
(183,414,cs),
(206,414,o),
(211,408,o),
(211,375,cs),
(211,0,l),
(319,0,o),
(323,0,o),
(323,20,cs),
(323,255,ls),
(323,415,o),
(306,510,o),
(187,510,cs),
(127,510,o),
(71,495,o),
(33,477,c),
(33,0,l)
);
},
{
closed = 1;
nodes = (
(325,0,o),
(323,0,o),
(323,20,cs),
(323,403,l),
(334,409,o),
(346,412,o),
(360,412,cs),
(383,412,o),
(389,402,o),
(389,371,cs),
(389,0,l),
(497,0,o),
(501,0,o),
(501,20,cs),
(501,374,ls),
(501,460,o),
(490,510,o),
(388,510,cs),
(311,510,o),
(211,470,o),
(211,421,c),
(211,0,l)
);
}
);
width = 530;
}
);
unicode = 109;
},
{
color = 3;
glyphname = n;
kernLeft = n;
kernRight = n;
layers = (
{
anchors = (
{
name = bottom;
pos = (211,0);
},
{
name = top;
pos = (211,500);
}
);
hints = (
{
horizontal = 1;
place = (0,0);
type = Stem;
}
);
layerId = "B965DA2D-85AA-48ED-BC60-A8A438260572";
shapes = (
{
closed = 1;
nodes = (
(90,0,o),
(91,0,o),
(91,10,c),
(91,457,l),
(132,477,o),
(195,486,o),
(233,486,cs),
(323,486,o),
(342,447,o),
(342,364,cs),
(342,0,l),
(366,0,o),
(366,0,o),
(366,10,c),
(366,368,ls),
(366,459,o),
(344,510,o),
(232,510,cs),
(173,510,o),
(121,496,o),
(67,474,c),
(67,0,l)
);
}
);
width = 422;
},
{
anchors = (
{
name = bottom;
pos = (181,0);
},
{
name = top;
pos = (181,500);
}
);
hints = (
{
horizontal = 1;
place = (0,0);
type = Stem;
}
);
layerId = "113A2EC7-7A34-4A41-8395-62473D9E96C5";
shapes = (
{
closed = 1;
nodes = (
(143,0,o),
(145,0,o),
(145,20,c),
(145,402,l),
(156,410,o),
(170,414,o),
(183,414,cs),
(211,414,o),
(216,398,o),
(216,346,cs),
(216,0,l),
(329,0,o),
(332,0,o),
(332,20,c),
(332,381,ls),
(332,481,o),
(289,510,o),
(188,510,cs),
(138,510,o),
(64,492,o),
(33,477,c),
(33,0,l)
);
}
);
width = 361;
}
);
unicode = 110;
},
{
color = 3;
glyphname = o;
kernLeft = o;
kernRight = o;
layers = (
{
anchors = (
{
name = bottom;
pos = (201,0);
},
{
name = center;
pos = (201,250);
},
{
name = ogonek;
pos = (361,10);
},
{
name = top;
pos = (206,500);
},
{
name = topright;
pos = (321,500);
}
);
layerId = "B965DA2D-85AA-48ED-BC60-A8A438260572";
shapes = (
{
closed = 1;
nodes = (
(301,-10,o),
(361,75,o),
(361,248,cs),
(361,454,o),
(308,510,o),
(207,510,cs),
(105,510,o),
(40,435,o),
(40,248,c),
(40,21,o),
(103,-10,o),
(195,-10,cs)
);
},
{
closed = 1;
nodes = (
(112,14,o),
(64,59,o),
(64,241,cs),
(64,423,o),
(120,486,o),
(206,486,cs),
(287,486,o),
(337,440,o),
(337,252,cs),
(337,93,o),
(283,14,o),
(196,14,cs)
);
}
);
width = 401;
},
{
anchors = (
{
name = bottom;
pos = (181,0);
},
{
name = center;
pos = (181,250);
},
{
name = ogonek;
pos = (326,10);
},
{
name = top;
pos = (181,500);
},
{
name = topright;
pos = (300,500);
}
);
layerId = "113A2EC7-7A34-4A41-8395-62473D9E96C5";
shapes = (
{
closed = 1;
nodes = (
(286,-10,o),
(342,62,o),
(342,255,cs),
(342,457,o),
(293,510,o),
(186,510,cs),
(80,510,o),
(20,432,o),
(20,251,c),
(20,27,o),
(70,-10,o),
(178,-10,cs)
);
},
{
closed = 1;
nodes = (
(156,83,o),
(143,96,o),
(143,252,cs),
(143,394,o),
(160,417,o),
(182,417,cs),
(211,417,o),
(219,396,o),
(219,252,cs),
(219,98,o),
(200,83,o),
(181,83,cs)
);
}
);
width = 362;
}
);
unicode = 111;
},
{
color = 3;
glyphname = oslash;
kernLeft = o;
kernRight = o;
layers = (
{
anchors = (
{
name = top;
pos = (219,500);
}
);
layerId = "B965DA2D-85AA-48ED-BC60-A8A438260572";
shapes = (
{
closed = 1;
nodes = (
(326,-10,o),
(386,75,o),
(386,248,cs),
(386,454,o),
(331,510,o),
(230,510,cs),
(128,510,o),
(65,435,o),
(65,248,c),
(65,21,o),
(128,-10,o),
(227,-10,cs)
);
},
{
closed = 1;
nodes = (
(59,-18,o),
(108,61,o),
(108,61,cs),
(108,71,o),
(91,74,o),
(91,74,c),
(91,74,o),
(42,-5,o),
(42,-5,c),
(42,-16,o),
(49,-18,o),
(59,-18,c)
);
},
{
closed = 1;
nodes = (
(137,14,o),
(89,59,o),
(89,241,cs),
(89,423,o),
(145,486,o),
(231,486,cs),
(312,486,o),
(362,440,o),
(362,252,cs),
(362,93,o),
(308,14,o),
(221,14,cs)
);
},
{
closed = 1;
nodes = (
(117,64,o),
(348,437,o),
(348,437,c),
(348,447,o),
(331,450,o),
(331,450,c),
(100,77,l),
(100,65,o),
(117,64,o),
(117,64,c)
);
},
{
closed = 1;
nodes = (
(353,438,o),
(398,509,o),
(398,509,c),
(398,519,o),
(381,522,o),
(381,522,c),
(381,522,o),
(336,451,o),
(336,451,c),
(336,439,o),
(353,438,o),
(353,438,c)
);
}
);
width = 438;
},
{
anchors = (
{
name = top;
pos = (199,500);
}
);
layerId = "113A2EC7-7A34-4A41-8395-62473D9E96C5";
shapes = (
{
closed = 1;
nodes = (
(304,-10,o),
(360,62,o),
(360,255,cs),
(360,457,o),
(311,510,o),
(204,510,cs),
(98,510,o),
(38,432,o),
(38,251,c),
(38,27,o),
(88,-10,o),
(196,-10,cs)
);
},
{
closed = 1;
nodes = (
(71,-17,o),
(117,61,o),
(117,80,cs),
(117,106,o),
(63,128,o),
(63,128,c),
(63,128,o),
(3,26,o),
(3,15,c),
(3,-6,o),
(39,-26,o),
(63,-30,c)
);
},
{
closed = 1;
nodes = (
(174,83,o),
(161,96,o),
(161,252,cs),
(161,394,o),
(178,414,o),
(200,414,cs),
(229,414,o),
(237,396,o),
(237,252,cs),
(237,98,o),
(218,83,o),
(199,83,cs)
);
},
{
closed = 1;
nodes = (
(142,79,o),
(297,361,o),
(297,377,c),
(297,403,o),
(246,409,o),
(246,409,c),
(87,106,l),
(87,85,o),
(123,74,o),
(139,69,c)
);
},
{
closed = 1;
nodes = (
(323,312,o),
(406,459,o),
(406,478,c),
(406,504,o),
(344,522,o),
(344,522,c),
(327,502,o),
(252,367,o),
(252,367,c),
(252,346,o),
(323,312,o),
(323,312,c)
);
}
);
width = 398;
}
);
unicode = 248;
},
{
color = 3;
glyphname = oe;
kernLeft = o;
kernRight = e;
layers = (
{
anchors = (
{
name = top;
pos = (338,500);
}
);
layerId = "B965DA2D-85AA-48ED-BC60-A8A438260572";
shapes = (
{
closed = 1;
nodes = (
(301,-10,o),
(361,75,o),
(361,248,cs),
(361,454,o),
(306,510,o),
(205,510,cs),
(103,510,o),
(40,435,o),
(40,248,c),
(40,21,o),
(103,-10,o),
(202,-10,cs)
);
},
{
closed = 1;
nodes = (
(112,14,o),
(64,59,o),
(64,241,cs),
(64,423,o),
(120,486,o),
(206,486,cs),
(287,486,o),
(337,440,o),
(337,252,cs),
(337,93,o),
(283,14,o),
(196,14,cs)
);
},
{
closed = 1;
nodes = (
(576,-10,o),
(638,17,o),
(638,27,cs),
(638,32,o),
(637,43,o),
(633,51,c),
(603,27,o),
(554,14,o),
(505,14,cs),
(425,14,o),
(361,31,o),
(361,217,cs),
(361,486,o),
(454,486,o),
(518,486,c),
(596,486,o),
(616,435,o),
(618,347,cs),
(618,323,o),
(617,297,o),
(614,267,c),
(519,247,o),
(356,252,o),
(356,252,c),
(356,228,l),
(356,228,o),
(514,223,o),
(635,246,c),
(640,276,o),
(642,320,o),
(642,359,cs),
(642,450,o),
(608,510,o),
(517,510,c),
(437,510,o),
(337,498,o),
(337,221,cs),
(337,15,o),
(409,-10,o),
(506,-10,cs)
);
}
);
width = 680;
},
{
anchors = (
{
name = top;
pos = (276,500);
}
);
layerId = "113A2EC7-7A34-4A41-8395-62473D9E96C5";
shapes = (
{
closed = 1;
nodes = (
(286,-10,o),
(342,62,o),
(342,255,cs),
(342,457,o),
(293,509,o),
(186,509,cs),
(80,509,o),
(20,432,o),
(20,251,c),
(20,27,o),
(70,-10,o),
(178,-10,cs)
);
},
{
closed = 1;
nodes = (
(156,83,o),
(143,96,o),
(143,252,cs),
(143,394,o),
(160,413,o),
(182,413,cs),
(211,413,o),
(219,396,o),
(219,252,cs),
(219,98,o),
(200,83,o),
(181,83,cs)
);
},
{
closed = 1;
nodes = (
(461,-10,o),
(525,12,o),
(525,28,cs),
(525,60,o),
(522,107,o),
(516,127,c),
(481,110,o),
(446,99,o),
(398,99,cs),
(353,99,o),
(344,114,o),
(344,233,cs),
(344,355,o),
(354,413,o),
(389,413,c),
(414,413,o),
(423,403,o),
(423,339,cs),
(423,323,o),
(422,299,o),
(418,287,c),
(389,274,o),
(296,279,o),
(296,279,c),
(294,190,l),
(294,190,o),
(440,189,o),
(518,205,c),
(528,244,o),
(532,299,o),
(532,347,cs),
(532,463,o),
(484,510,o),
(404,510,c),
(310,510,o),
(228,476,o),
(228,226,cs),
(228,22,o),
(292,-10,o),
(383,-10,cs)
);
}
);
width = 552;
}
);
metricLeft = o;
metricRight = e;
unicode = 339;
},
{
color = 3;
glyphname = p;
kernLeft = p;
kernRight = o;
layers = (
{
hints = (
{
horizontal = 1;
place = (0,0);
type = Stem;
}
);
layerId = "B965DA2D-85AA-48ED-BC60-A8A438260572";
shapes = (
{
closed = 1;
nodes = (
(85,-197,o),
(89,-196,o),
(94,-195,c),
(94,35,l),
(107,15,o),
(147,-10,o),
(197,-10,cs),
(257,-10,o),
(379,22,o),
(379,294,cs),
(379,458,o),
(318,510,o),
(212,510,cs),
(157,510,o),
(114,497,o),
(70,469,c),
(70,-188,l),
(70,-194,o),
(74,-197,o),
(81,-197,cs)
);
},
{
closed = 1;
nodes = (
(158,14,o),
(117,34,o),
(94,75,c),
(94,454,l),
(127,475,o),
(165,486,o),
(211,486,cs),
(304,486,o),
(355,443,o),
(355,281,cs),
(355,39,o),
(246,15,o),
(195,14,cs)
);
}
);
width = 419;
},
{
hints = (
{
horizontal = 1;
place = (0,0);
type = Stem;
}
);
layerId = "113A2EC7-7A34-4A41-8395-62473D9E96C5";
shapes = (
{
closed = 1;
nodes = (
(105,-197,o),
(128,-194,o),
(145,-188,c),
(145,9,l),
(161,-4,o),
(181,-10,o),
(211,-10,cs),
(283,-10,o),
(342,39,o),
(342,307,cs),
(342,471,o),
(276,510,o),
(181,510,cs),
(128,510,o),
(72,495,o),
(33,471,c),
(33,-148,l),
(33,-187,o),
(48,-197,o),
(87,-197,cs)
);
},
{
closed = 1;
nodes = (
(162,89,o),
(154,94,o),
(145,107,c),
(145,402,l),
(153,409,o),
(164,414,o),
(175,414,cs),
(204,414,o),
(216,396,o),
(216,300,cs),
(216,110,o),
(194,89,o),
(173,89,cs)
);
}
);
width = 362;
}
);
unicode = 112;
},
{
color = 3;
glyphname = thorn;
kernLeft = l;
kernRight = o;
layers = (
{
hints = (
{
horizontal = 1;
place = (0,0);
type = Stem;
},
{
horizontal = 1;
place = (0,0);
type = Stem;
}
);
layerId = "B965DA2D-85AA-48ED-BC60-A8A438260572";
shapes = (
{
closed = 1;
nodes = (
(85,-200,o),
(89,-200,o),
(94,-199,c),
(94,29,l),
(109,11,o),
(139,-9,o),
(189,-9,cs),
(249,-9,o),
(379,22,o),
(379,287,cs),
(379,458,o),
(318,509,o),
(212,509,cs),
(157,509,o),
(114,498,o),
(70,470,c),
(70,-193,l),
(70,-200,o),
(74,-200,o),
(81,-200,cs)
);
},
{
closed = 1;
nodes = (
(150,15,o),
(117,29,o),
(94,63,c),
(94,453,l),
(127,474,o),
(165,485,o),
(214,485,cs),
(298,485,o),
(355,443,o),
(355,281,cs),
(355,48,o),
(238,16,o),
(187,15,cs)
);
},
{
closed = 1;
nodes = (
(94,255,l),
(94,735,l),
(76,735,o),
(70,735,o),
(70,720,cs),
(70,245,l)
);
}
);
width = 419;
},
{
hints = (
{
horizontal = 1;
place = (0,0);
type = Stem;
},
{
horizontal = 1;
place = (0,0);
type = Stem;
}
);
layerId = "113A2EC7-7A34-4A41-8395-62473D9E96C5";
shapes = (
{
closed = 1;
nodes = (
(105,-200,o),
(128,-197,o),
(145,-191,c),
(145,9,l),
(161,-4,o),
(181,-10,o),
(211,-10,cs),
(268,-10,o),
(342,39,o),
(342,307,cs),
(342,471,o),
(276,509,o),
(181,509,cs),
(128,509,o),
(72,494,o),
(33,470,c),
(33,-151,l),
(33,-190,o),
(38,-200,o),
(78,-200,cs)
);
},
{
closed = 1;
nodes = (
(162,84,o),
(151,86,o),
(145,102,c),
(145,398,l),
(153,407,o),
(164,413,o),
(173,413,cs),
(204,413,o),
(216,406,o),
(216,300,cs),
(216,110,o),
(194,84,o),
(173,84,cs)
);
},
{
closed = 1;
nodes = (
(145,249,l),
(145,735,l),
(54,735,o),
(33,735,o),
(33,686,cs),
(33,229,l)
);
}
);
width = 364;
}
);
unicode = 254;
},
{
color = 3;
glyphname = q;
kernLeft = o;
kernRight = q;
layers = (
{
hints = (
{
horizontal = 1;
place = (0,0);
type = Stem;
}
);
layerId = "B965DA2D-85AA-48ED-BC60-A8A438260572";
shapes = (
{
closed = 1;
nodes = (
(359,-198,o),
(359,-197,o),
(359,-188,c),
(359,478,l),
(329,500,o),
(295,510,o),
(248,510,cs),
(125,510,o),
(49,414,o),
(49,224,cs),
(49,15,o),
(143,-10,o),
(203,-10,cs),
(262,-10,o),
(307,14,o),
(335,53,c),
(335,-198,l),
(338,-198,o),
(341,-198,o),
(343,-198,cs)
);
},
{
closed = 1;
nodes = (
(157,15,o),
(73,32,o),
(73,220,cs),
(73,400,o),
(136,486,o),
(246,486,cs),
(284,486,o),
(319,476,o),
(335,464,c),
(335,93,l),
(308,34,o),
(253,13,o),
(210,14,cs)
);
}
);
width = 430;
},
{
hints = (
{
horizontal = 1;
place = (0,0);
type = Stem;
}
);
layerId = "113A2EC7-7A34-4A41-8395-62473D9E96C5";
shapes = (
{
closed = 1;
nodes = (
(322,-197,o),
(333,-192,o),
(333,-149,c),
(333,480,l),
(303,500,o),
(273,510,o),
(228,510,cs),
(120,510,o),
(20,452,o),
(20,215,cs),
(20,26,o),
(80,-10,o),
(144,-10,cs),
(180,-10,o),
(205,1,o),
(219,24,c),
(219,-194,l),
(234,-196,o),
(249,-198,o),
(267,-198,cs)
);
},
{
closed = 1;
nodes = (
(161,87,o),
(148,112,o),
(148,220,cs),
(148,375,o),
(167,414,o),
(197,414,cs),
(208,414,o),
(213,411,o),
(219,404,c),
(219,122,l),
(214,102,o),
(203,87,o),
(186,87,cs)
);
}
);
width = 363;
}
);
unicode = 113;
},
{
color = 3;
glyphname = r;
kernLeft = n;
kernRight = r;
layers = (
{
anchors = (
{
name = bottom;
pos = (81,0);
},
{
name = top;
pos = (170,500);
}
);
hints = (
{
horizontal = 1;
place = (0,0);
type = Stem;
}
);
layerId = "B965DA2D-85AA-48ED-BC60-A8A438260572";
shapes = (
{
closed = 1;
nodes = (
(88,0,o),
(91,0,o),
(91,10,c),
(91,451,l),
(122,475,o),
(158,486,o),
(200,486,cs),
(230,486,o),
(252,476,o),
(267,467,c),
(270,469,o),
(273,477,o),
(273,483,cs),
(273,497,o),
(244,510,o),
(198,510,cs),
(161,510,o),
(114,499,o),
(67,466,c),
(67,0,l)
);
}
);
width = 289;
},
{
anchors = (
{
name = bottom;
pos = (95,0);
},
{
name = top;
pos = (125,500);
}
);
hints = (
{
horizontal = 1;
place = (0,0);
type = Stem;
}
);
layerId = "113A2EC7-7A34-4A41-8395-62473D9E96C5";
shapes = (
{
closed = 1;
nodes = (
(147,0,o),
(147,0,o),
(147,20,c),
(148,387,l),
(161,398,o),
(179,403,o),
(191,403,cs),
(201,403,o),
(214,402,o),
(228,395,c),
(237,420,o),
(239,447,o),
(239,460,cs),
(239,494,o),
(226,510,o),
(172,510,cs),
(116,510,o),
(68,489,o),
(33,465,c),
(33,0,l)
);
}
);
width = 249;
}
);
unicode = 114;
},
{
color = 3;
glyphname = s;
kernLeft = s;
kernRight = s;
layers = (
{
anchors = (
{
name = bottom;
pos = (198,0);
},
{
name = top;
pos = (198,500);
}
);
layerId = "B965DA2D-85AA-48ED-BC60-A8A438260572";
shapes = (
{
closed = 1;
nodes = (
(283,-10,o),
(342,33,o),
(342,120,cs),
(342,171,o),
(315,209,o),
(265,244,cs),
(138,321,ls),
(89,351,o),
(78,373,o),
(78,403,cs),
(78,457,o),
(139,486,o),
(215,486,cs),
(265,486,o),
(299,474,o),
(336,449,c),
(342,456,o),
(345,462,o),
(345,467,cs),
(345,478,o),
(300,510,o),
(215,510,cs),
(126,510,o),
(54,472,o),
(54,402,cs),
(54,362,o),
(64,335,o),
(129,297,cs),
(244,230,ls),
(294,196,o),
(318,162,o),
(318,111,cs),
(318,43,o),
(262,14,o),
(180,14,cs),
(122,14,o),
(89,23,o),
(58,43,c),
(51,38,o),
(50,32,o),
(50,25,cs),
(50,11,o),
(97,-10,o),
(181,-10,cs)
);
}
);
width = 395;
},
{
anchors = (
{
name = bottom;
pos = (159,0);
},
{
name = top;
pos = (159,500);
}
);
layerId = "113A2EC7-7A34-4A41-8395-62473D9E96C5";
shapes = (
{
closed = 1;
nodes = (
(238,-10,o),
(304,44,o),
(304,134,cs),
(304,184,o),
(294,213,o),
(254,259,cs),
(180,334,ls),
(154,361,o),
(151,373,o),
(151,384,cs),
(151,403,o),
(166,414,o),
(198,414,cs),
(229,414,o),
(257,408,o),
(284,393,c),
(297,408,o),
(306,430,o),
(306,447,cs),
(306,472,o),
(295,510,o),
(183,510,cs),
(59,510,o),
(18,456,o),
(18,386,cs),
(18,357,o),
(31,317,o),
(66,280,cs),
(153,188,ls),
(173,165,o),
(175,146,o),
(175,132,cs),
(175,107,o),
(159,90,o),
(124,90,cs),
(96,90,o),
(65,97,o),
(37,112,c),
(24,88,o),
(19,65,o),
(19,49,cs),
(19,4,o),
(72,-10,o),
(136,-10,cs)
);
}
);
width = 318;
}
);
unicode = 115;
},
{
color = 3;
glyphname = germandbls;
kernLeft = germandbls;
layers = (
{
layerId = "B965DA2D-85AA-48ED-BC60-A8A438260572";
shapes = (
{
closed = 1;
nodes = (
(89,-8,o),
(92,-2,o),
(92,8,cs),
(92,533,ls),
(92,642,o),
(137,681,o),
(224,681,cs),
(339,681,o),
(384,612,o),
(384,563,cs),
(384,485,o),
(232,478,o),
(232,387,cs),
(232,291,o),
(434,266,o),
(434,131,cs),
(434,48,o),
(375,14,o),
(306,14,cs),
(255,14,o),
(225,25,o),
(198,50,c),
(198,50,o),
(189,40,o),
(189,31,cs),
(189,20,o),
(233,-9,o),
(305,-9,cs),
(396,-9,o),
(457,37,o),
(457,133,cs),
(457,285,o),
(256,307,o),
(256,388,cs),
(256,460,o),
(408,471,o),
(408,564,cs),
(408,615,o),
(362,704,o),
(220,704,cs),
(129,704,o),
(68,665,o),
(68,549,cs),
(68,30,l),
(68,11,o),
(62,-1,o),
(62,-1,c),
(62,-1,o),
(68,-8,o),
(78,-8,cs)
);
}
);
width = 477;
},
{
layerId = "113A2EC7-7A34-4A41-8395-62473D9E96C5";
shapes = (
{
closed = 1;
nodes = (
(143,-10,o),
(153,11,o),
(153,64,cs),
(149,488,ls),
(149,566,o),
(156,601,o),
(208,601,cs),
(259,601,o),
(288,586,o),
(288,559,cs),
(288,508,o),
(200,495,o),
(200,405,cs),
(200,300,o),
(328,228,o),
(328,141,cs),
(328,110,o),
(312,91,o),
(278,91,cs),
(239,91,o),
(213,113,o),
(213,113,c),
(200,98,o),
(186,78,o),
(186,39,cs),
(186,15,o),
(223,-9,o),
(307,-9,cs),
(401,-9,o),
(455,53,o),
(455,141,cs),
(455,286,o),
(324,355,o),
(324,411,cs),
(324,473,o),
(409,469,o),
(409,559,cs),
(409,639,o),
(349,705,o),
(202,705,cs),
(101,705,o),
(36,655,o),
(36,550,cs),
(40,98,l),
(40,38,o),
(26,4,o),
(26,4,c),
(26,4,o),
(44,-10,o),
(87,-10,cs)
);
}
);
width = 458;
}
);
unicode = 223;
},
{
color = 3;
glyphname = longs;
kernLeft = germandbls;
kernRight = f;
layers = (
{
hints = (
{
horizontal = 1;
place = (0,0);
type = Stem;
}
);
layerId = "B965DA2D-85AA-48ED-BC60-A8A438260572";
shapes = (
{
closed = 1;
nodes = (
(95,-8,o),
(98,-6,o),
(98,4,cs),
(98,578,ls),
(98,687,o),
(143,714,o),
(230,714,cs),
(285,714,o),
(323,695,o),
(338,682,c),
(338,682,o),
(345,695,o),
(345,703,cs),
(345,711,o),
(300,738,o),
(230,738,cs),
(135,738,o),
(74,703,o),
(74,587,cs),
(74,44,l),
(74,11,o),
(68,-1,o),
(68,-1,c),
(68,-1,o),
(74,-8,o),
(84,-8,cs)
);
}
);
width = 173;
},
{
hints = (
{
horizontal = 1;
place = (0,0);
type = Stem;
}
);
layerId = "113A2EC7-7A34-4A41-8395-62473D9E96C5";
shapes = (
{
closed = 1;
nodes = (
(127,-8,o),
(144,0,o),
(144,44,cs),
(144,545,ls),
(144,604,o),
(157,642,o),
(210,642,cs),
(243,642,o),
(264,638,o),
(303,609,c),
(320,629,o),
(331,656,o),
(331,676,cs),
(331,714,o),
(280,738,o),
(213,738,cs),
(92,738,o),
(31,693,o),
(31,588,cs),
(31,88,l),
(31,49,o),
(22,6,o),
(22,6,c),
(22,6,o),
(35,-8,o),
(78,-8,cs)
);
}
);
width = 175;
}
);
unicode = 383;
},
{
color = 3;
glyphname = t;
kernLeft = t;
kernRight = t;
layers = (
{
anchors = (
{
name = bottom;
pos = (196,0);
},
{
name = center;
pos = (153,250);
}
);
hints = (
{
horizontal = 1;
place = (0,0);
type = Stem;
}
);
layerId = "B965DA2D-85AA-48ED-BC60-A8A438260572";
shapes = (
{
closed = 1;
nodes = (
(240,-10,o),
(275,2,o),
(275,17,cs),
(275,22,o),
(274,27,o),
(272,32,c),
(249,21,o),
(234,14,o),
(201,14,cs),
(145,14,o),
(143,71,o),
(143,150,cs),
(143,476,l),
(278,476,l),
(284,476,o),
(284,479,o),
(284,500,c),
(143,500,l),
(143,680,l),
(121,680,o),
(119,680,o),
(119,665,c),
(119,500,l),
(44,500,l),
(37,500,o),
(36,497,o),
(36,476,c),
(119,476,l),
(119,153,ls),
(119,61,o),
(119,-10,o),
(199,-10,cs)
);
}
);
width = 305;
},
{
anchors = (
{
name = bottom;
pos = (142,0);
},
{
name = center;
pos = (142,250);
}
);
hints = (
{
horizontal = 1;
place = (0,0);
type = Stem;
}
);
layerId = "113A2EC7-7A34-4A41-8395-62473D9E96C5";
shapes = (
{
closed = 1;
nodes = (
(211,-10,o),
(264,-4,o),
(264,44,cs),
(264,66,o),
(260,84,o),
(257,98,c),
(238,89,o),
(223,85,o),
(205,85,cs),
(181,85,o),
(181,110,o),
(181,133,cs),
(181,405,l),
(241,405,l),
(262,405,o),
(263,414,o),
(263,500,c),
(181,500,l),
(181,680,l),
(91,680,o),
(69,680,o),
(69,645,c),
(69,500,l),
(32,500,l),
(10,500,o),
(9,490,o),
(9,405,c),
(69,405,l),
(69,131,ls),
(69,42,o),
(85,-10,o),
(173,-10,cs)
);
}
);
width = 284;
}
);
unicode = 116;
},
{
color = 3;
glyphname = u;
kernLeft = u;
kernRight = u;
layers = (
{
anchors = (
{
name = bottom;
pos = (223,0);
},
{
name = ogonek;
pos = (400,10);
},
{
name = top;
pos = (223,500);
},
{
name = topright;
pos = (417,500);
}
);
hints = (
{
horizontal = 1;
place = (0,0);
type = Stem;
}
);
layerId = "B965DA2D-85AA-48ED-BC60-A8A438260572";
shapes = (
{
closed = 1;
nodes = (
(263,-10,o),
(322,-2,o),
(372,23,c),
(372,500,l),
(353,500,o),
(348,500,o),
(348,490,cs),
(348,42,l),
(308,20,o),
(254,14,o),
(227,14,cs),
(123,14,o),
(97,51,o),
(97,178,cs),
(97,500,l),
(73,500,o),
(73,500,o),
(73,490,cs),
(73,185,ls),
(73,40,o),
(103,-10,o),
(219,-10,cs)
);
}
);
width = 445;
},
{
anchors = (
{
name = bottom;
pos = (179,0);
},
{
name = ogonek;
pos = (322,10);
},
{
name = top;
pos = (179,500);
},
{
name = topright;
pos = (341,500);
}
);
hints = (
{
horizontal = 1;
place = (0,0);
type = Stem;
}
);
layerId = "113A2EC7-7A34-4A41-8395-62473D9E96C5";
shapes = (
{
closed = 1;
nodes = (
(240,-10,o),
(296,9,o),
(328,28,c),
(328,500,l),
(214,500,o),
(216,500,o),
(216,480,cs),
(216,99,l),
(205,89,o),
(191,86,o),
(178,86,cs),
(150,86,o),
(145,102,o),
(145,133,cs),
(145,500,l),
(28,500,o),
(29,500,o),
(29,480,cs),
(29,140,ls),
(29,46,o),
(60,-10,o),
(180,-10,cs)
);
}
);
width = 358;
}
);
unicode = 117;
},
{
glyphname = uogonek;
kernLeft = u;
kernRight = u;
layers = (
{
layerId = "B965DA2D-85AA-48ED-BC60-A8A438260572";
shapes = (
{
closed = 1;
nodes = (
(353,-195,o),
(373,-190,o),
(373,-177,cs),
(373,-175,o),
(372,-171,o),
(371,-169,cs),
(370,-166,o),
(369,-164,o),
(367,-162,c),
(355,-168,o),
(347,-171,o),
(333,-171,cs),
(300,-171,o),
(286,-153,o),
(286,-119,cs),
(286,-61,o),
(328,-2,o),
(372,23,c),
(372,500,l),
(353,500,o),
(348,500,o),
(348,490,cs),
(348,42,l),
(308,20,o),
(257,14,o),
(220,14,cs),
(123,14,o),
(97,55,o),
(97,178,cs),
(97,500,l),
(73,500,o),
(73,500,o),
(73,490,cs),
(73,185,ls),
(73,40,o),
(103,-10,o),
(218,-10,cs),
(251,-10,o),
(283,-6,o),
(312.383,1.362,c),
(286,-34,o),
(262,-73,o),
(262,-120,cs),
(262,-167,o),
(286,-195,o),
(333,-195,cs)
);
}
);
width = 445;
},
{
layerId = "113A2EC7-7A34-4A41-8395-62473D9E96C5";
shapes = (
{
closed = 1;
nodes = (
(284,-195,o),
(307,-189,o),
(317,-173,cs),
(320,-168,o),
(322,-162,o),
(322,-154,cs),
(322,-144,o),
(319,-126,o),
(311,-110,c),
(302,-116,o),
(294,-117,o),
(286,-117,cs),
(268,-117,o),
(261,-108,o),
(261,-90,cs),
(261,-47,o),
(299,2,o),
(328,28,c),
(328,500,l),
(214,500,o),
(216,500,o),
(216,480,cs),
(216,99,l),
(205,89,o),
(191,86,o),
(178,86,cs),
(150,86,o),
(145,102,o),
(145,133,cs),
(145,500,l),
(28,500,o),
(29,500,o),
(29,480,cs),
(29,140,ls),
(29,46,o),
(60,-10,o),
(180,-10,cs),
(187,-10,o),
(193,-10,o),
(199.602,-9,c),
(178.052,-34,o),
(162,-69,o),
(162,-106,cs),
(162,-176,o),
(203,-195,o),
(251,-195,cs)
);
}
);
width = 358;
}
);
unicode = 371;
},
{
color = 3;
glyphname = v;
kernLeft = v;
kernRight = v;
layers = (
{
hints = (
{
horizontal = 1;
place = (0,0);
type = Stem;
},
{
horizontal = 1;
place = (0,0);
type = Stem;
}
);
layerId = "B965DA2D-85AA-48ED-BC60-A8A438260572";
shapes = (
{
closed = 1;
nodes = (
(181,-9,o),
(194,-9,o),
(194,-9,c),
(337,500,l),
(316,500,o),
(315,500,o),
(312,490,cs),
(261,312,ls),
(221,173,o),
(189,32,o),
(189,32,c),
(188,32,l),
(188,32,o),
(153,173,o),
(112,310,c),
(55,500,l),
(37,500,o),
(31,500,o),
(34,490,c),
(167,40,l),
(176,10,o),
(181,-9,o),
(181,-9,cs)
);
}
);
width = 370;
},
{
hints = (
{
horizontal = 1;
place = (0,0);
type = Stem;
},
{
horizontal = 1;
place = (0,0);
type = Stem;
}
);
layerId = "113A2EC7-7A34-4A41-8395-62473D9E96C5";
shapes = (
{
closed = 1;
nodes = (
(163,-5,o),
(200,-4,o),
(223,0,c),
(323,500,l),
(208,500,o),
(208,500,o),
(205,478,cs),
(191,356,ls),
(181,270,o),
(172,117,o),
(172,117,c),
(170,117,l),
(170,117,o),
(161,270,o),
(150,356,c),
(132,500,l),
(4,500,o),
(3,500,o),
(10,467,c),
(95,45,l),
(101,17,o),
(113,-5,o),
(142,-5,cs)
);
}
);
width = 330;
}
);
unicode = 118;
},
{
color = 3;
glyphname = w;
kernLeft = v;
kernRight = v;
layers = (
{
anchors = (
{
name = top;
pos = (284,500);
}
);
hints = (
{
horizontal = 1;
place = (0,0);
type = Stem;
},
{
horizontal = 1;
place = (0,0);
type = Stem;
}
);
layerId = "B965DA2D-85AA-48ED-BC60-A8A438260572";
shapes = (
{
closed = 1;
nodes = (
(399,-9,o),
(412,-9,o),
(412,-9,c),
(412,-9,o),
(534,500,o),
(534,500,c),
(508,500,o),
(508,500,o),
(506,490,cs),
(461,295,ls),
(438,195,o),
(413,82,o),
(406,41,c),
(405,41,l),
(405,41,o),
(376,158,o),
(341,293,cs),
(293,480,l),
(282,480,ls),
(272,480,o),
(270,476,o),
(272,470,c),
(277,445,l),
(277,445,o),
(315,298,o),
(364,118,cs),
(383,48,ls),
(392,14,o),
(399,-9,o),
(399,-9,c)
);
},
{
closed = 1;
nodes = (
(161,-9,o),
(175,-9,o),
(175,-9,c),
(207,117,ls),
(253,297,o),
(287,445,o),
(287,445,c),
(294,470,ls),
(295,475,o),
(294,480,o),
(284,480,cs),
(278,480,ls),
(273,480,o),
(269,476,o),
(268,470,cs),
(229,297,ls),
(209,209,o),
(179,87,o),
(169,41,c),
(168,41,l),
(168,41,o),
(141,156,o),
(107,295,cs),
(56,500,l),
(32,500,o),
(31,500,o),
(33,490,c),
(33,490,o),
(117,170,o),
(148,40,cs),
(155,10,o),
(161,-9,o),
(161,-9,c)
);
}
);
width = 567;
},
{
anchors = (
{
name = top;
pos = (263,500);
}
);
hints = (
{
horizontal = 1;
place = (0,0);
type = Stem;
},
{
horizontal = 1;
place = (0,0);
type = Stem;
}
);
layerId = "113A2EC7-7A34-4A41-8395-62473D9E96C5";
shapes = (
{
closed = 1;
nodes = (
(400,-5,o),
(421,0,o),
(421,0,c),
(428,0,o),
(521,500,o),
(521,500,c),
(420,500,o),
(416,500,o),
(413,478,cs),
(398,360,ls),
(389,292,o),
(383,192,o),
(380,122,c),
(372,122,l),
(372,122,o),
(367,224,o),
(360,267,cs),
(326,490,l),
(270,490,ls),
(257,490,o),
(247,463,o),
(249,451,c),
(264,394,l),
(264,394,o),
(267,205,o),
(281,111,cs),
(291,45,ls),
(297,8,o),
(325,-5,o),
(348,-5,c)
);
},
{
closed = 1;
nodes = (
(179,-5,o),
(236,0,o),
(236,0,c),
(254,111,ls),
(269,205,o),
(274,396,o),
(274,396,c),
(274,451,ls),
(276,463,o),
(307,490,o),
(282,490,cs),
(252,490,ls),
(222,490,o),
(219,487,o),
(216,468,cs),
(189,267,ls),
(182,218,o),
(180,151,o),
(178,122,c),
(170,122,l),
(170,122,o),
(162,263,o),
(149,360,cs),
(130,500,l),
(13,500,o),
(3,500,o),
(6,479,c),
(6,479,o),
(66,163,o),
(93,44,cs),
(99,17,o),
(112,-5,o),
(139,-5,c)
);
}
);
width = 526;
}
);
unicode = 119;
},
{
color = 3;
glyphname = x;
kernLeft = x;
kernRight = x;
layers = (
{
hints = (
{
horizontal = 1;
place = (0,0);
type = Stem;
},
{
horizontal = 1;
place = (0,0);
type = Stem;
}
);
layerId = "B965DA2D-85AA-48ED-BC60-A8A438260572";
shapes = (
{
closed = 1;
nodes = (
(56,0,o),
(60,0,o),
(64,6,cs),
(127,96,ls),
(178,168,o),
(240,255,o),
(240,255,c),
(247,261,l),
(417,500,l),
(387,500,o),
(389,500,o),
(385,495,c),
(324,409,ls),
(283,351,o),
(232,279,o),
(232,279,c),
(223,271,l),
(30,0,l)
);
},
{
closed = 1;
nodes = (
(440,0,o),
(442,0,o),
(435,9,cs),
(247,272,l),
(239,279,l),
(239,279,o),
(189,351,o),
(149,407,c),
(83,500,l),
(56,500,o),
(55,499,o),
(58,495,c),
(224,259,l),
(232,253,l),
(232,253,o),
(291,168,o),
(341,98,cs),
(410,0,l)
);
}
);
width = 468;
},
{
hints = (
{
horizontal = 1;
place = (0,0);
type = Stem;
},
{
horizontal = 1;
place = (0,0);
type = Stem;
}
);
layerId = "113A2EC7-7A34-4A41-8395-62473D9E96C5";
shapes = (
{
closed = 1;
nodes = (
(109,0,o),
(123,0,o),
(131,21,cs),
(141,48,ls),
(162,105,o),
(192,205,o),
(192,205,c),
(235,217,l),
(369,500,l),
(257,500,o),
(255,500,o),
(247,481,c),
(233,445,ls),
(214,397,o),
(191,319,o),
(191,319,c),
(133,278,l),
(7,0,l)
);
},
{
closed = 1;
nodes = (
(377,0,o),
(378,-1,o),
(367,24,cs),
(245,297,l),
(204,319,l),
(204,319,o),
(180,399,o),
(162,445,c),
(140,500,l),
(14,500,o),
(14,500,o),
(22,482,c),
(142,220,l),
(166,205,l),
(166,205,o),
(199,103,o),
(222,48,cs),
(242,0,l)
);
}
);
width = 379;
}
);
unicode = 120;
},
{
color = 3;
glyphname = y;
kernLeft = y;
kernRight = y;
layers = (
{
anchors = (
{
name = bottom;
pos = (262,0);
},
{
name = top;
pos = (193,500);
}
);
hints = (
{
horizontal = 1;
place = (0,0);
type = Stem;
}
);
layerId = "B965DA2D-85AA-48ED-BC60-A8A438260572";
shapes = (
{
closed = 1;
nodes = (
(128,-193,o),
(173,-153,o),
(205,-35,c),
(348,500,l),
(322,500,o),
(323,500,o),
(320,490,cs),
(228,143,ls),
(210,74,o),
(198,9,o),
(198,9,c),
(198,9,o),
(185,75,o),
(167,141,cs),
(67,500,l),
(43,500,o),
(42,500,o),
(45,490,c),
(186,-16,l),
(157,-130,o),
(116,-169,o),
(72,-169,cs),
(59,-169,o),
(33,-165,o),
(16,-157,c),
(12,-160,o),
(8,-168,o),
(8,-174,cs),
(8,-187,o),
(36,-193,o),
(71,-193,cs)
);
}
);
width = 386;
},
{
anchors = (
{
name = bottom;
pos = (287,0);
},
{
name = top;
pos = (170,500);
}
);
hints = (
{
horizontal = 1;
place = (0,0);
type = Stem;
}
);
layerId = "113A2EC7-7A34-4A41-8395-62473D9E96C5";
shapes = (
{
closed = 1;
nodes = (
(162,-193,o),
(195,-154,o),
(223,-23,c),
(335,500,l),
(222,500,o),
(220,500,o),
(216,469,cs),
(197,327,ls),
(185,239,o),
(176,125,o),
(176,125,c),
(176,125,o),
(166,240,o),
(151,327,cs),
(122,500,l),
(5,500,o),
(5,500,o),
(12,471,c),
(121,-16,l),
(114,-81,o),
(95,-99,o),
(71,-99,cs),
(42,-99,o),
(15,-91,o),
(3,-82,c),
(-6,-97,o),
(-11,-123,o),
(-11,-143,cs),
(-11,-171,o),
(7,-193,o),
(81,-193,cs)
);
}
);
width = 340;
}
);
unicode = 121;
},
{
color = 3;
glyphname = z;
kernLeft = z;
kernRight = z;
layers = (
{
anchors = (
{
name = top;
pos = (199,500);
}
);
layerId = "B965DA2D-85AA-48ED-BC60-A8A438260572";
shapes = (
{
closed = 1;
nodes = (
(347,0,ls),
(354,0,o),
(356,4,o),
(356,15,cs),
(356,19,o),
(356,26,o),
(356,29,c),
(331,26,o),
(292,24,o),
(218,24,c),
(69,24,l),
(354,474,ls),
(357,479,o),
(358,484,o),
(358,490,cs),
(358,497,o),
(354,500,o),
(354,500,c),
(54,500,ls),
(49,500,o),
(45,494,o),
(45,486,cs),
(45,482,o),
(45,479,o),
(46,472,c),
(74,475,o),
(121,476,o),
(184,476,cs),
(326,476,l),
(43,26,ls),
(41,23,o),
(40,18,o),
(40,13,cs),
(40,5,o),
(44,0,o),
(44,0,c)
);
}
);
width = 398;
},
{
anchors = (
{
name = top;
pos = (150,500);
}
);
layerId = "113A2EC7-7A34-4A41-8395-62473D9E96C5";
shapes = (
{
closed = 1;
nodes = (
(243,0,ls),
(280,0,o),
(287,23,o),
(288,69,cs),
(288,81,o),
(287,105,o),
(284,117,c),
(267,110,o),
(241,103,o),
(196,103,c),
(141,103,l),
(277,414,ls),
(288,440,o),
(290,457,o),
(290,467,cs),
(290,489,o),
(279,500,o),
(279,500,c),
(49,500,ls),
(23,500,o),
(14,486,o),
(14,453,cs),
(14,444,o),
(14,425,o),
(18,402,c),
(35,405,o),
(60,407,o),
(84,407,cs),
(165,407,l),
(19,95,ls),
(12,80,o),
(10,69,o),
(10,55,cs),
(10,16,o),
(29,0,o),
(29,0,c)
);
}
);
width = 300;
}
);
unicode = 122;
},
{
color = 3;
glyphname = g.ss01;
kernLeft = g;
kernRight = g;
layers = (
{
anchors = (
{
name = top;
pos = (215,500);
}
);
layerId = "B965DA2D-85AA-48ED-BC60-A8A438260572";
shapes = (
{
closed = 1;
nodes = (
(287,-200,o),
(361,-158,o),
(361,-49,cs),
(361,467,l),
(340,492,o),
(299,509,o),
(254,509,cs),
(163,509,o),
(54,458,o),
(54,235,cs),
(54,29,o),
(129,-9,o),
(205,-9,cs),
(262,-9,o),
(314,20,o),
(337,46,c),
(337,46,o),
(337,-17,o),
(337,-45,cs),
(337,-156,o),
(258,-177,o),
(200,-177,cs),
(130,-177,o),
(103,-161,o),
(77,-147,c),
(72,-152,o),
(70,-158,o),
(70,-162,cs),
(70,-178,o),
(119,-200,o),
(198,-200,cs)
);
},
{
closed = 1;
nodes = (
(142,15,o),
(77,52,o),
(77,227,cs),
(77,449,o),
(179,485,o),
(249,485,cs),
(296,485,o),
(328,467,o),
(337,453,c),
(337,81,l),
(306,37,o),
(256,15,o),
(205,15,cs)
);
}
);
width = 430;
},
{
anchors = (
{
name = top;
pos = (185,500);
}
);
layerId = "113A2EC7-7A34-4A41-8395-62473D9E96C5";
shapes = (
{
closed = 1;
nodes = (
(269,-200,o),
(337,-151,o),
(337,-45,cs),
(337,486,l),
(309,502,o),
(269,513,o),
(235,513,cs),
(119,513,o),
(28,451,o),
(28,231,cs),
(28,59,o),
(54,-9,o),
(146,-9,cs),
(188,-9,o),
(214,7,o),
(225,23,c),
(225,23,o),
(225,-3,o),
(225,-31,cs),
(225,-81,o),
(187,-95,o),
(166,-95,cs),
(121,-95,o),
(91,-84,o),
(57,-63,c),
(42,-86,o),
(35,-108,o),
(35,-131,cs),
(35,-168,o),
(81,-200,o),
(164,-200,cs)
);
},
{
closed = 1;
nodes = (
(164,90,o),
(154,129,o),
(154,248,cs),
(154,379,o),
(170,422,o),
(203,422,cs),
(210,422,o),
(218,421,o),
(228,416,c),
(228,164,l),
(228,111,o),
(213,90,o),
(189,90,cs)
);
}
);
width = 370;
}
);
},
{
color = 3;
glyphname = f.ss02;
kernLeft = f;
kernRight = f;
layers = (
{
hints = (
{
horizontal = 1;
place = (0,0);
type = Stem;
}
);
layerId = "B965DA2D-85AA-48ED-BC60-A8A438260572";
shapes = (
{
closed = 1;
nodes = (
(116,0,l),
(126,0,o),
(126,10,o),
(126,10,c),
(126,476,l),
(238,476,ls),
(248,476,o),
(248,478,o),
(248,500,c),
(126,500,l),
(126,623,ls),
(126,706,o),
(165,714,o),
(201,714,cs),
(219,714,o),
(247,710,o),
(259,704,c),
(261,709,o),
(262,713,o),
(262,717,cs),
(262,728,o),
(241,737,o),
(203,737,cs),
(161,737,o),
(102,726,o),
(102,628,cs),
(102,500,l),
(27,500,l),
(17,500,o),
(17,498,o),
(17,476,c),
(102,476,l),
(102,0,l)
);
}
);
width = 241;
},
{
hints = (
{
horizontal = 1;
place = (0,0);
type = Stem;
}
);
layerId = "113A2EC7-7A34-4A41-8395-62473D9E96C5";
shapes = (
{
closed = 1;
nodes = (
(157,0,l),
(177,0,o),
(177,20,o),
(177,20,c),
(177,407,l),
(228,407,ls),
(247,407,o),
(249,413,o),
(249,500,c),
(177,500,l),
(177,599,ls),
(177,632,o),
(186,646,o),
(214,646,cs),
(225,646,o),
(240,643,o),
(254,637,c),
(261,656,o),
(265,681,o),
(265,694,cs),
(265,723,o),
(250,740,o),
(185,740,cs),
(117,740,o),
(65,712,o),
(65,609,cs),
(65,500,l),
(32,500,l),
(5,500,o),
(5,494,o),
(5,407,c),
(65,407,l),
(65,0,l)
);
}
);
width = 257;
}
);
},
{
color = 3;
glyphname = germandbls.ss05;
kernLeft = germandbls;
layers = (
{
hints = (
{
horizontal = 1;
place = (0,0);
type = Stem;
}
);
layerId = "B965DA2D-85AA-48ED-BC60-A8A438260572";
shapes = (
{
closed = 1;
nodes = (
(393,-136,o),
(463,-45,o),
(463,87,cs),
(463,212,o),
(352,250,o),
(275,249,c),
(448,476,ls),
(460,492,o),
(451,500,o),
(451,500,c),
(93,500,ls),
(86,500,o),
(86,497,o),
(86,476,c),
(418,476,l),
(228,228,l),
(266,228,o),
(306,226,o),
(340,216,cs),
(397,199,o),
(439,162,o),
(439,84,cs),
(439,-32,o),
(381,-112,o),
(270,-112,cs),
(212,-112,o),
(192,-99,o),
(164,-81,c),
(164,-81,o),
(158,-89,o),
(158,-98,cs),
(158,-111,o),
(181,-136,o),
(270,-136,cs)
);
},
{
closed = 1;
nodes = (
(95,-8,o),
(98,-6,o),
(98,4,c),
(98,572,l),
(98,681,o),
(143,712,o),
(230,712,cs),
(285,712,o),
(323,693,o),
(338,680,c),
(338,680,o),
(345,693,o),
(345,701,cs),
(345,709,o),
(300,736,o),
(235,736,cs),
(135,736,o),
(74,704,o),
(74,588,cs),
(74,44,l),
(74,11,o),
(68,-1,o),
(68,-1,c),
(68,-1,o),
(74,-8,o),
(84,-8,cs)
);
}
);
width = 489;
},
{
hints = (
{
horizontal = 1;
place = (0,0);
type = Stem;
}
);
layerId = "113A2EC7-7A34-4A41-8395-62473D9E96C5";
shapes = (
{
closed = 1;
nodes = (
(392,-133,o),
(456,-27,o),
(456,94,cs),
(456,159,o),
(441,225,o),
(361,259,c),
(417,408,ls),
(440,470,o),
(430,500,o),
(430,500,c),
(113,500,ls),
(97,500,o),
(97,495,o),
(97,407,c),
(297,407,l),
(212,197,l),
(245,195,o),
(268,188,o),
(287,179,cs),
(316,164,o),
(334,138,o),
(334,86,cs),
(334,10,o),
(288,-26,o),
(249,-26,cs),
(221,-26,o),
(199,-17,o),
(181,0,c),
(164,-28,o),
(155,-60,o),
(155,-81,cs),
(155,-103,o),
(181,-133,o),
(260,-133,cs)
);
},
{
closed = 1;
nodes = (
(127,-8,o),
(144,15,o),
(144,84,c),
(144,526,l),
(144,604,o),
(151,639,o),
(210,639,cs),
(243,639,o),
(264,635,o),
(303,606,c),
(303,606,o),
(331,653,o),
(331,679,cs),
(331,702,o),
(280,735,o),
(213,735,cs),
(92,735,o),
(31,693,o),
(31,588,cs),
(31,88,l),
(31,49,o),
(22,6,o),
(22,6,c),
(22,6,o),
(35,-8,o),
(78,-8,cs)
);
}
);
width = 471;
}
);
},
{
color = 3;
glyphname = z.ss05;
kernLeft = z;
kernRight = z;
layers = (
{
anchors = (
{
name = top;
pos = (188,500);
}
);
layerId = "B965DA2D-85AA-48ED-BC60-A8A438260572";
shapes = (
{
closed = 1;
nodes = (
(271,-136,o),
(341,-45,o),
(341,87,cs),
(341,212,o),
(230,250,o),
(153,249,c),
(326,476,l),
(338,492,o),
(329,500,o),
(329,500,c),
(41,500,l),
(34,500,o),
(34,497,o),
(34,476,c),
(296,476,l),
(106,228,l),
(144,228,o),
(184,226,o),
(218,216,cs),
(275,199,o),
(317,162,o),
(317,84,cs),
(317,-32,o),
(259,-112,o),
(148,-112,cs),
(90,-112,o),
(70,-99,o),
(42,-81,c),
(42,-81,o),
(36,-89,o),
(36,-98,cs),
(36,-106,o),
(59,-136,o),
(148,-136,cs)
);
}
);
width = 375;
},
{
anchors = (
{
name = top;
pos = (167,500);
}
);
layerId = "113A2EC7-7A34-4A41-8395-62473D9E96C5";
shapes = (
{
closed = 1;
nodes = (
(254,-133,o),
(318,-27,o),
(318,94,cs),
(318,159,o),
(303,225,o),
(223,259,c),
(279,408,l),
(302,470,o),
(292,500,o),
(292,500,c),
(25,500,l),
(9,500,o),
(9,495,o),
(9,407,c),
(159,407,l),
(74,197,l),
(107,195,o),
(130,188,o),
(149,179,cs),
(178,164,o),
(196,138,o),
(196,86,cs),
(196,10,o),
(150,-26,o),
(111,-26,cs),
(83,-26,o),
(61,-17,o),
(43,0,c),
(26,-28,o),
(17,-60,o),
(17,-81,cs),
(17,-103,o),
(43,-133,o),
(122,-133,cs)
);
}
);
width = 333;
}
);
},
{
color = 3;
glyphname = f_f;
kernLeft = f;
kernRight = f;
layers = (
{
hints = (
{
horizontal = 1;
place = (0,0);
type = Stem;
}
);
layerId = "B965DA2D-85AA-48ED-BC60-A8A438260572";
shapes = (
{
closed = 1;
nodes = (
(116,0,l),
(126,0,o),
(126,10,o),
(126,10,c),
(126,476,l),
(284,476,ls),
(294,476,o),
(294,478,o),
(294,500,c),
(126,500,l),
(126,575,ls),
(126,706,o),
(209,711,o),
(249,711,cs),
(294,711,o),
(323,702,o),
(351,677,c),
(368,697,l),
(341,718,o),
(300,735,o),
(257,735,cs),
(211,735,o),
(102,732,o),
(102,579,cs),
(102,500,l),
(27,500,l),
(17,500,o),
(17,498,o),
(17,476,c),
(102,476,l),
(102,0,l)
);
},
{
closed = 1;
nodes = (
(342,0,l),
(352,0,o),
(352,10,o),
(352,10,c),
(352,476,l),
(464,476,ls),
(474,476,o),
(474,478,o),
(474,500,c),
(352,500,l),
(352,563,ls),
(352,706,o),
(426,716,o),
(483,716,cs),
(515,716,o),
(536,712,o),
(560,705,c),
(562,710,o),
(564,712,o),
(564,718,cs),
(564,729,o),
(537,740,o),
(485,740,cs),
(430,740,o),
(328,732,o),
(328,567,cs),
(328,500,l),
(273,500,l),
(263,500,o),
(263,498,o),
(263,476,c),
(328,476,l),
(328,0,l)
);
}
);
width = 466;
},
{
hints = (
{
horizontal = 1;
place = (0,0);
type = Stem;
}
);
layerId = "113A2EC7-7A34-4A41-8395-62473D9E96C5";
shapes = (
{
closed = 1;
nodes = (
(162,0,l),
(182,0,o),
(182,20,o),
(182,20,c),
(182,407,l),
(223,407,ls),
(242,407,o),
(244,413,o),
(244,500,c),
(182,500,l),
(182,579,ls),
(182,635,o),
(215,640,o),
(233,640,cs),
(258,640,o),
(273,634,o),
(287,627,c),
(352,691,l),
(323,715,o),
(280,734,o),
(228,734,cs),
(163,734,o),
(70,712,o),
(70,564,cs),
(70,500,l),
(37,500,l),
(10,500,o),
(10,494,o),
(10,407,c),
(70,407,l),
(70,0,l)
);
},
{
closed = 1;
nodes = (
(352,0,l),
(372,0,o),
(372,20,o),
(372,20,c),
(372,407,l),
(423,407,ls),
(442,407,o),
(444,413,o),
(444,500,c),
(372,500,l),
(372,569,ls),
(372,625,o),
(405,638,o),
(455,638,cs),
(472,638,o),
(498,637,o),
(523,625,c),
(530,644,o),
(534,668,o),
(534,678,cs),
(534,721,o),
(507,738,o),
(434,738,cs),
(353,738,o),
(260,712,o),
(260,557,cs),
(260,500,l),
(227,500,l),
(200,500,o),
(200,494,o),
(200,407,c),
(260,407,l),
(260,0,l)
);
}
);
width = 450;
}
);
},
{
color = 3;
glyphname = f_f_i;
kernLeft = f;
layers = (
{
hints = (
{
horizontal = 1;
place = (0,0);
type = Stem;
}
);
layerId = "B965DA2D-85AA-48ED-BC60-A8A438260572";
shapes = (
{
closed = 1;
nodes = (
(118,0,ls),
(128,0,o),
(128,10,o),
(128,10,c),
(128,476,l),
(286,476,ls),
(296,476,o),
(296,478,o),
(296,500,c),
(128,500,l),
(128,575,ls),
(128,706,o),
(211,711,o),
(251,711,cs),
(296,711,o),
(325,702,o),
(353,677,c),
(370,697,l),
(343,718,o),
(302,735,o),
(259,735,cs),
(213,735,o),
(104,732,o),
(104,579,cs),
(104,500,l),
(29,500,ls),
(19,500,o),
(19,498,o),
(19,476,c),
(104,476,l),
(104,0,l)
);
},
{
closed = 1;
nodes = (
(344,0,ls),
(354,0,o),
(354,10,o),
(354,10,c),
(354,476,l),
(446,476,ls),
(456,476,o),
(456,478,o),
(456,500,c),
(354,500,l),
(354,563,ls),
(354,706,o),
(428,716,o),
(485,716,cs),
(517,716,o),
(544,711,o),
(568,703,c),
(570,708,o),
(572,713,o),
(572,718,cs),
(572,730,o),
(538,740,o),
(487,740,cs),
(420,740,o),
(330,732,o),
(330,567,cs),
(330,500,l),
(255,500,ls),
(245,500,o),
(245,498,o),
(245,476,c),
(330,476,l),
(330,0,l)
);
},
{
closed = 1;
nodes = (
(556,0,o),
(555,0,o),
(555,10,cs),
(555,500,l),
(537,500,o),
(531,500,o),
(531,485,cs),
(531,0,l)
);
}
);
width = 627;
},
{
hints = (
{
horizontal = 1;
place = (0,0);
type = Stem;
}
);
layerId = "113A2EC7-7A34-4A41-8395-62473D9E96C5";
shapes = (
{
closed = 1;
nodes = (
(157,0,ls),
(177,0,o),
(177,20,o),
(177,20,c),
(177,407,l),
(218,407,ls),
(237,407,o),
(239,413,o),
(239,500,c),
(177,500,l),
(177,579,ls),
(177,635,o),
(210,640,o),
(228,640,cs),
(253,640,o),
(268,634,o),
(282,627,c),
(347,691,l),
(318,715,o),
(275,734,o),
(223,734,cs),
(158,734,o),
(65,712,o),
(65,564,cs),
(65,500,l),
(32,500,ls),
(5,500,o),
(5,494,o),
(5,407,c),
(65,407,l),
(65,0,l)
);
},
{
closed = 1;
nodes = (
(347,0,ls),
(367,0,o),
(367,20,o),
(367,20,c),
(367,407,l),
(398,407,ls),
(417,407,o),
(419,413,o),
(419,500,c),
(367,500,l),
(367,561,ls),
(367,628,o),
(400,638,o),
(453,638,cs),
(493,638,o),
(539,627,o),
(568,610,c),
(575,629,o),
(579,658,o),
(579,675,cs),
(579,718,o),
(534,738,o),
(448,738,cs),
(353,738,o),
(255,712,o),
(255,557,cs),
(255,500,l),
(222,500,ls),
(195,500,o),
(195,494,o),
(195,407,c),
(255,407,l),
(255,0,l)
);
},
{
closed = 1;
nodes = (
(561,0,o),
(562,0,o),
(562,20,cs),
(562,500,l),
(470,500,o),
(448,500,o),
(448,451,cs),
(448,0,l)
);
}
);
width = 594;
}
);
},
{
color = 3;
glyphname = f_f_l;
kernLeft = f;
layers = (
{
hints = (
{
horizontal = 1;
place = (0,0);
type = Stem;
}
);
layerId = "B965DA2D-85AA-48ED-BC60-A8A438260572";
shapes = (
{
closed = 1;
nodes = (
(118,0,ls),
(128,0,o),
(128,10,o),
(128,10,c),
(128,476,l),
(286,476,ls),
(296,476,o),
(296,478,o),
(296,500,c),
(128,500,l),
(128,575,ls),
(128,706,o),
(211,711,o),
(251,711,cs),
(296,711,o),
(325,702,o),
(353,677,c),
(370,697,l),
(343,718,o),
(302,735,o),
(259,735,cs),
(213,735,o),
(104,732,o),
(104,579,cs),
(104,500,l),
(29,500,ls),
(19,500,o),
(19,498,o),
(19,476,c),
(104,476,l),
(104,0,l)
);
},
{
closed = 1;
nodes = (
(344,0,ls),
(354,0,o),
(354,10,o),
(354,10,c),
(354,476,l),
(446,476,ls),
(456,476,o),
(456,478,o),
(456,500,c),
(354,500,l),
(354,570,ls),
(354,713,o),
(416,715,o),
(470,715,cs),
(520,715,o),
(547,701,o),
(547,701,c),
(565,719,l),
(548,728,o),
(516,739,o),
(470,739,cs),
(410,739,o),
(330,732,o),
(330,567,cs),
(330,500,l),
(275,500,ls),
(265,500,o),
(265,498,o),
(265,476,c),
(330,476,l),
(330,0,l)
);
},
{
closed = 1;
nodes = (
(567,0,o),
(565,0,o),
(565,10,c),
(565,719,l),
(541,716,l),
(541,0,l)
);
}
);
width = 636;
},
{
hints = (
{
horizontal = 1;
place = (0,0);
type = Stem;
}
);
layerId = "113A2EC7-7A34-4A41-8395-62473D9E96C5";
shapes = (
{
closed = 1;
nodes = (
(157,0,ls),
(177,0,o),
(177,20,o),
(177,20,c),
(177,407,l),
(218,407,ls),
(237,407,o),
(239,413,o),
(239,500,c),
(177,500,l),
(177,579,ls),
(177,635,o),
(210,640,o),
(228,640,cs),
(253,640,o),
(268,634,o),
(282,627,c),
(347,691,l),
(318,715,o),
(275,734,o),
(223,734,cs),
(158,734,o),
(65,712,o),
(65,564,cs),
(65,500,l),
(32,500,ls),
(5,500,o),
(5,494,o),
(5,407,c),
(65,407,l),
(65,0,l)
);
},
{
closed = 1;
nodes = (
(347,0,ls),
(367,0,o),
(367,20,o),
(367,20,c),
(367,407,l),
(397,407,ls),
(416,407,o),
(418,413,o),
(418,500,c),
(367,500,l),
(367,573,ls),
(367,629,o),
(400,639,o),
(430,639,cs),
(469,639,o),
(487,621,o),
(487,621,c),
(572,698,l),
(543,716,o),
(492,739,o),
(421,739,cs),
(357,739,o),
(255,712,o),
(255,557,cs),
(255,500,l),
(222,500,ls),
(195,500,o),
(195,494,o),
(195,407,c),
(255,407,l),
(255,0,l)
);
},
{
closed = 1;
nodes = (
(572,0,o),
(572,0,o),
(572,20,c),
(572,697,l),
(460,690,l),
(460,0,l)
);
}
);
width = 605;
}
);
},
{
color = 3;
glyphname = fi;
kernLeft = f;
kernRight = i;
layers = (
{
hints = (
{
horizontal = 1;
place = (0,0);
type = Stem;
},
{
horizontal = 1;
place = (0,0);
type = Stem;
}
);
layerId = "B965DA2D-85AA-48ED-BC60-A8A438260572";
shapes = (
{
closed = 1;
nodes = (
(110,0,ls),
(120,0,o),
(120,10,o),
(120,10,c),
(120,476,l),
(212,476,ls),
(222,476,o),
(222,478,o),
(222,500,c),
(120,500,l),
(120,563,ls),
(120,706,o),
(194,716,o),
(251,716,cs),
(283,716,o),
(310,711,o),
(334,703,c),
(336,708,o),
(338,713,o),
(338,718,cs),
(338,730,o),
(304,740,o),
(253,740,cs),
(186,740,o),
(96,732,o),
(96,567,cs),
(96,500,l),
(21,500,ls),
(11,500,o),
(11,498,o),
(11,476,c),
(96,476,l),
(96,0,l)
);
},
{
closed = 1;
nodes = (
(322,0,o),
(321,0,o),
(321,10,cs),
(321,500,l),
(303,500,o),
(297,500,o),
(297,485,cs),
(297,0,l)
);
}
);
width = 390;
},
{
hints = (
{
horizontal = 1;
place = (0,0);
type = Stem;
},
{
horizontal = 1;
place = (0,0);
type = Stem;
}
);
layerId = "113A2EC7-7A34-4A41-8395-62473D9E96C5";
shapes = (
{
closed = 1;
nodes = (
(162,0,ls),
(182,0,o),
(182,20,o),
(182,20,c),
(182,407,l),
(213,407,ls),
(232,407,o),
(234,413,o),
(234,500,c),
(182,500,l),
(182,561,ls),
(182,628,o),
(215,638,o),
(268,638,cs),
(308,638,o),
(354,627,o),
(383,610,c),
(390,629,o),
(394,658,o),
(394,675,cs),
(394,718,o),
(349,738,o),
(263,738,cs),
(168,738,o),
(70,712,o),
(70,557,cs),
(70,500,l),
(37,500,ls),
(10,500,o),
(10,494,o),
(10,407,c),
(70,407,l),
(70,0,l)
);
},
{
closed = 1;
nodes = (
(376,0,o),
(377,0,o),
(377,20,cs),
(377,500,l),
(285,500,o),
(263,500,o),
(263,451,cs),
(263,0,l)
);
}
);
width = 409;
}
);
unicode = 64257;
},
{
color = 3;
glyphname = fl;
kernLeft = f;
kernRight = l;
layers = (
{
hints = (
{
horizontal = 1;
place = (0,0);
type = Stem;
}
);
layerId = "B965DA2D-85AA-48ED-BC60-A8A438260572";
shapes = (
{
closed = 1;
nodes = (
(109,0,ls),
(119,0,o),
(119,10,o),
(119,10,c),
(119,476,l),
(231,476,ls),
(241,476,o),
(241,478,o),
(241,500,c),
(119,500,l),
(119,563,ls),
(119,715,o),
(193,714,o),
(235,714,cs),
(261,714,o),
(287,710,o),
(312,700,c),
(330,718,l),
(302,732,o),
(273,738,o),
(235,738,cs),
(185,738,o),
(95,732,o),
(95,567,cs),
(95,500,l),
(20,500,ls),
(10,500,o),
(10,498,o),
(10,476,c),
(95,476,l),
(95,0,l)
);
},
{
closed = 1;
nodes = (
(306,0,o),
(304,0,o),
(320,0,c),
(330,0,o),
(330,10,o),
(330,10,c),
(330,718,l),
(306,709,l),
(306,0,l)
);
}
);
width = 400;
},
{
hints = (
{
horizontal = 1;
place = (0,0);
type = Stem;
}
);
layerId = "113A2EC7-7A34-4A41-8395-62473D9E96C5";
shapes = (
{
closed = 1;
nodes = (
(162,0,ls),
(182,0,o),
(182,20,o),
(182,20,c),
(182,407,l),
(219,407,ls),
(238,407,o),
(240,413,o),
(240,500,c),
(182,500,l),
(182,579,ls),
(182,635,o),
(215,648,o),
(244,648,cs),
(260,648,o),
(287,643,o),
(301,631,c),
(386,696,l),
(351,719,o),
(294,738,o),
(236,738,cs),
(168,738,o),
(70,712,o),
(70,557,cs),
(70,500,l),
(37,500,ls),
(10,500,o),
(10,494,o),
(10,407,c),
(70,407,l),
(70,0,l)
);
},
{
closed = 1;
nodes = (
(274,0,o),
(272,0,o),
(366,0,c),
(386,0,o),
(386,20,o),
(386,20,c),
(386,696,l),
(274,689,l),
(274,0,l)
);
}
);
width = 419;
}
);
unicode = 64258;
},
{
color = 3;
glyphname = t_z.ss05;
kernLeft = t;
kernRight = t;
layers = (
{
anchors = (
{
name = bottom;
pos = (266,0);
},
{
name = center;
pos = (266,250);
}
);
hints = (
{
horizontal = 1;
place = (0,0);
type = Stem;
},
{
horizontal = 1;
place = (0,0);
type = Stem;
}
);
layerId = "B965DA2D-85AA-48ED-BC60-A8A438260572";
shapes = (
{
closed = 1;
nodes = (
(430,-136,o),
(500,-45,o),
(500,87,cs),
(500,212,o),
(389,250,o),
(312,249,c),
(485,476,ls),
(497,492,o),
(488,500,o),
(488,500,c),
(150,500,ls),
(143,500,o),
(143,497,o),
(143,476,c),
(455,476,l),
(265,228,l),
(303,228,o),
(343,226,o),
(377,216,cs),
(434,199,o),
(476,162,o),
(476,84,cs),
(476,-32,o),
(418,-112,o),
(307,-112,cs),
(249,-112,o),
(229,-99,o),
(201,-81,c),
(201,-81,o),
(195,-89,o),
(195,-98,cs),
(195,-106,o),
(218,-136,o),
(307,-136,cs)
);
},
{
closed = 1;
nodes = (
(137,0,o),
(137,0,o),
(137,17,c),
(137,476,l),
(272,476,ls),
(278,476,o),
(278,479,o),
(278,500,c),
(137,500,l),
(137,680,l),
(115,680,o),
(113,680,o),
(113,665,cs),
(113,500,l),
(8,500,ls),
(1,500,o),
(0,497,o),
(0,476,c),
(113,476,l),
(113,0,l)
);
}
);
width = 532;
},
{
anchors = (
{
name = bottom;
pos = (247,0);
},
{
name = center;
pos = (247,250);
}
);
hints = (
{
horizontal = 1;
place = (0,0);
type = Stem;
},
{
horizontal = 1;
place = (0,0);
type = Stem;
}
);
layerId = "113A2EC7-7A34-4A41-8395-62473D9E96C5";
shapes = (
{
closed = 1;
nodes = (
(428,-133,o),
(478,-27,o),
(478,94,cs),
(478,159,o),
(463,225,o),
(383,259,c),
(439,408,ls),
(462,470,o),
(452,500,o),
(452,500,c),
(185,500,ls),
(169,500,o),
(169,493,o),
(169,405,c),
(319,405,l),
(234,197,l),
(267,195,o),
(290,188,o),
(309,179,cs),
(338,164,o),
(356,138,o),
(356,86,cs),
(356,10,o),
(325,-26,o),
(286,-26,cs),
(271,-26,o),
(255,-26,o),
(233,-10,c),
(216,-38,o),
(207,-70,o),
(207,-91,cs),
(207,-113,o),
(233,-133,o),
(294,-133,cs)
);
},
{
closed = 1;
nodes = (
(179,0,o),
(181,0,o),
(181,27,c),
(181,405,l),
(241,405,ls),
(262,405,o),
(263,414,o),
(263,500,c),
(181,500,l),
(181,680,l),
(91,680,o),
(69,680,o),
(69,645,cs),
(69,500,l),
(32,500,ls),
(10,500,o),
(9,490,o),
(9,405,c),
(69,405,l),
(69,0,l)
);
}
);
width = 493;
}
);
},
{
color = 3;
glyphname = ordfeminine;
layers = (
{
layerId = "B965DA2D-85AA-48ED-BC60-A8A438260572";
shapes = (
{
closed = 1;
nodes = (
(228,289,o),
(276,309,o),
(289,317,c),
(289,620,ls),
(289,693,o),
(237,710,o),
(188,710,cs),
(128,710,o),
(88,694,o),
(68,681,cs),
(62,677,o),
(65,662,o),
(72,658,c),
(92,670,o),
(131,686,o),
(180,686,cs),
(218,686,o),
(265,680,o),
(265,615,c),
(265,513,l),
(246,519,o),
(215,525,o),
(187,525,cs),
(120,525,o),
(60,512,o),
(60,407,cs),
(60,302,o),
(115,289,o),
(173,289,cs)
);
},
{
closed = 1;
nodes = (
(127,312,o),
(83,325,o),
(83,403,cs),
(83,497,o),
(131,501,o),
(193,501,cs),
(213,501,o),
(245,495,o),
(265,489,c),
(265,331,l),
(250,322,o),
(213,312,o),
(180,312,cs)
);
}
);
width = 349;
},
{
layerId = "113A2EC7-7A34-4A41-8395-62473D9E96C5";
shapes = (
{
closed = 1;
nodes = (
(193,288,o),
(246,302,o),
(278,317,c),
(278,602,ls),
(278,674,o),
(238,710,o),
(169,710,cs),
(100,710,o),
(61,696,o),
(44,672,cs),
(32,655,o),
(35,613,o),
(49,594,c),
(75,604,o),
(107,613,o),
(136,613,cs),
(165,613,o),
(186,604,o),
(186,563,c),
(186,530,l),
(171,535,o),
(148,539,o),
(130,539,cs),
(68,539,o),
(30,503,o),
(30,413,cs),
(30,302,o),
(82,288,o),
(143,288,cs)
);
},
{
closed = 1;
nodes = (
(134,365,o),
(118,377,o),
(118,412,cs),
(118,455,o),
(136,462,o),
(160,462,cs),
(167,462,o),
(179,460,o),
(186,456,c),
(186,373,l),
(180,369,o),
(167,365,o),
(156,365,cs)
);
}
);
width = 308;
}
);
unicode = 170;
},
{
color = 3;
glyphname = ordmasculine;
layers = (
{
layerId = "B965DA2D-85AA-48ED-BC60-A8A438260572";
shapes = (
{
closed = 1;
nodes = (
(261,290,o),
(310,358,o),
(310,498,cs),
(310,665,o),
(268,710,o),
(186,710,cs),
(108,710,o),
(50,649,o),
(50,498,c),
(50,324,o),
(101,290,o),
(176,290,cs)
);
},
{
closed = 1;
nodes = (
(111,314,o),
(74,350,o),
(74,493,cs),
(74,636,o),
(118,686,o),
(188,686,cs),
(250,686,o),
(287,648,o),
(287,502,cs),
(287,377,o),
(245,314,o),
(176,314,cs)
);
}
);
width = 360;
},
{
layerId = "113A2EC7-7A34-4A41-8395-62473D9E96C5";
shapes = (
{
closed = 1;
nodes = (
(250,289,o),
(299,356,o),
(299,502,cs),
(299,667,o),
(257,710,o),
(168,710,cs),
(80,710,o),
(27,647,o),
(27,499,c),
(27,336,o),
(72,289,o),
(159,289,cs)
);
},
{
closed = 1;
nodes = (
(133,379,o),
(120,400,o),
(120,495,cs),
(120,585,o),
(137,612,o),
(167,612,cs),
(195,612,o),
(206,591,o),
(206,497,cs),
(206,404,o),
(189,379,o),
(160,379,cs)
);
}
);
width = 326;
}
);
unicode = 186;
},
{
color = 4;
glyphname = "Be-cy";
kernLeft = H;
kernRight = "Be-cy";
layers = (
{
layerId = "B965DA2D-85AA-48ED-BC60-A8A438260572";
shapes = (
{
closed = 1;
nodes = (
(179,0,ls),
(303,0,o),
(367,88,o),
(367,221,cs),
(367,341,o),
(316,397,o),
(196,397,cs),
(92,397,l),
(92,676,l),
(330,676,ls),
(335,676,o),
(335,680,o),
(335,700,c),
(78,700,ls),
(68,700,o),
(68,690,o),
(68,690,c),
(68,0,l)
);
},
{
closed = 1;
nodes = (
(147,24,o),
(120,24,o),
(92,24,c),
(92,373,l),
(193,373,ls),
(299,373,o),
(343,325,o),
(343,219,cs),
(343,104,o),
(291,24,o),
(175,24,cs)
);
}
);
width = 409;
},
{
layerId = "113A2EC7-7A34-4A41-8395-62473D9E96C5";
shapes = (
{
closed = 1;
nodes = (
(167,0,ls),
(266,0,o),
(338,83,o),
(338,243,cs),
(338,368,o),
(294,425,o),
(174,425,cs),
(145,425,l),
(145,595,l),
(289,595,ls),
(309,595,o),
(309,600,o),
(309,700,c),
(51,700,ls),
(32,700,o),
(31,680,o),
(31,680,c),
(31,0,l)
);
},
{
closed = 1;
nodes = (
(155,98,o),
(150,98,o),
(145,100,c),
(145,320,l),
(167,320,ls),
(200,320,o),
(204,304,o),
(204,232,cs),
(204,123,o),
(195,98,o),
(165,98,cs)
);
}
);
width = 360;
}
);
metricLeft = "En-cy";
unicode = 1041;
},
{
color = 4;
glyphname = "Ve-cy";
kernLeft = H;
kernRight = B;
layers = (
{
layerId = "B965DA2D-85AA-48ED-BC60-A8A438260572";
shapes = (
{
closed = 1;
nodes = (
(185,0,l),
(230,0,o),
(380,4,o),
(380,239,cs),
(380,365,o),
(296,386,o),
(257,387,c),
(296,393,o),
(359,424,o),
(359,550,cs),
(359,677,o),
(265,700,o),
(193,700,c),
(92,700,l),
(72,700,o),
(68,693,o),
(68,684,c),
(68,0,l)
);
},
{
closed = 1;
nodes = (
(92,371,l),
(183,371,l),
(279,371,o),
(356,365,o),
(356,237,cs),
(356,64,o),
(269,24,o),
(184,24,c),
(92,24,l)
);
},
{
closed = 1;
nodes = (
(92,677,l),
(188,677,l),
(261,677,o),
(335,652,o),
(335,549,cs),
(335,427,o),
(272,395,o),
(197,395,c),
(92,395,l)
);
}
);
width = 410;
},
{
layerId = "113A2EC7-7A34-4A41-8395-62473D9E96C5";
shapes = (
{
closed = 1;
nodes = (
(162,0,l),
(297,0,o),
(349,106,o),
(349,238,cs),
(349,355,o),
(283,378,o),
(234,383,c),
(278,389,o),
(326,441,o),
(326,543,cs),
(326,673,o),
(241,700,o),
(157,700,c),
(59,700,l),
(37,700,o),
(31,693,o),
(31,680,c),
(31,0,l)
);
},
{
closed = 1;
nodes = (
(145,330,l),
(167,330,l),
(198,330,o),
(215,318,o),
(215,228,cs),
(215,146,o),
(196,97,o),
(165,97,c),
(145,97,l)
);
},
{
closed = 1;
nodes = (
(145,602,l),
(168,602,l),
(186,602,o),
(202,589,o),
(202,519,cs),
(202,462,o),
(188,424,o),
(164,424,c),
(145,424,l)
);
}
);
width = 379;
}
);
metricLeft = "En-cy";
unicode = 1042;
},
{
color = 4;
glyphname = "Ge-cy";
kernLeft = H;
kernRight = "Ge-cy";
layers = (
{
anchors = (
{
name = top;
pos = (221,700);
}
);
layerId = "B965DA2D-85AA-48ED-BC60-A8A438260572";
shapes = (
{
closed = 1;
nodes = (
(82,0,ls),
(92,0,o),
(92,10,o),
(92,10,c),
(92,676,l),
(293,676,l),
(298,676,o),
(298,680,o),
(298,700,c),
(78,700,l),
(68,700,o),
(68,690,o),
(68,690,c),
(68,0,l)
);
}
);
width = 318;
},
{
anchors = (
{
name = top;
pos = (177,700);
}
);
layerId = "113A2EC7-7A34-4A41-8395-62473D9E96C5";
shapes = (
{
closed = 1;
nodes = (
(125,0,ls),
(143,0,o),
(143,20,o),
(143,20,c),
(143,605,l),
(263,605,l),
(283,605,o),
(283,610,o),
(283,700,c),
(51,700,l),
(32,700,o),
(31,680,o),
(31,680,c),
(31,0,l)
);
}
);
width = 293;
}
);
metricLeft = "En-cy";
unicode = 1043;
},
{
color = 4;
glyphname = "Gheupturn-cy";
kernLeft = H;
kernRight = "Ge-cy";
layers = (
{
associatedMasterId = "B965DA2D-85AA-48ED-BC60-A8A438260572";
layerId = "8380B67E-1A4E-4924-87DA-E0A4311191A9";
name = "Light Apr 14 13, 16:37";
shapes = (
{
closed = 1;
nodes = (
(85,0,l),
(95,0,o),
(95,10,o),
(95,10,c),
(95,676,l),
(321,676,l),
(326,676,o),
(326,680,o),
(326,700,c),
(81,700,l),
(71,700,o),
(71,690,o),
(71,690,c),
(71,0,l)
);
},
{
closed = 1;
nodes = (
(326,700,l),
(326,784,l),
(326,790,o),
(319,791,o),
(310,791,c),
(305,756,o),
(303,727,o),
(302,700,c)
);
}
);
width = 347;
},
{
layerId = "B965DA2D-85AA-48ED-BC60-A8A438260572";
shapes = (
{
closed = 1;
nodes = (
(82,0,ls),
(92,0,o),
(92,10,o),
(92,10,c),
(92,676,l),
(293,676,ls),
(298,676,o),
(298,680,o),
(298,700,cs),
(298,801,ls),
(298,807,o),
(290,808,o),
(281,808,c),
(276,773,o),
(273,727,o),
(272,700,c),
(78,700,ls),
(68,700,o),
(68,690,o),
(68,690,c),
(68,0,l)
);
}
);
width = 318;
},
{
layerId = "113A2EC7-7A34-4A41-8395-62473D9E96C5";
shapes = (
{
closed = 1;
nodes = (
(125,0,ls),
(143,0,o),
(143,20,o),
(143,20,c),
(143,605,l),
(263,605,ls),
(283,605,o),
(283,610,o),
(283,700,cs),
(283,785,ls),
(283,813,o),
(272,817,o),
(225,817,c),
(210,776,o),
(200,743,o),
(193,700,c),
(51,700,ls),
(32,700,o),
(31,680,o),
(31,680,c),
(31,0,l)
);
}
);
width = 293;
}
);
metricLeft = "En-cy";
metricRight = "Ge-cy";
unicode = 1168;
},
{
color = 4;
glyphname = "De-cy";
kernLeft = "De-cy";
kernRight = "Tse-cy";
layers = (
{
associatedMasterId = "B965DA2D-85AA-48ED-BC60-A8A438260572";
layerId = "598F0556-69D8-445E-8E00-CA17D1995934";
name = "Light Apr 27 13, 10:54";
shapes = (
{
closed = 1;
nodes = (
(213,700,l),
(171,700,o),
(162,700,o),
(161,690,c),
(131,202,ls),
(126,129,o),
(108,73,o),
(74,24,c),
(24,24,l),
(24,-144,l),
(24,-150,o),
(35,-150,o),
(40,-150,c),
(50,-90,o),
(50,-27,o),
(50,0,c),
(469,0,l),
(469,-27,o),
(469,-90,o),
(479,-150,c),
(484,-150,o),
(495,-150,o),
(495,-144,cs),
(495,24,l),
(445,24,l),
(445,700,l)
);
},
{
closed = 1;
nodes = (
(421,24,l),
(102,24,l),
(133,73,o),
(149,127,o),
(154,198,cs),
(185,677,l),
(421,677,l)
);
}
);
width = 557;
},
{
associatedMasterId = "B965DA2D-85AA-48ED-BC60-A8A438260572";
layerId = "626066E8-CEBC-47C4-A911-2CF50D57C54F";
name = "Bold Apr 27 13, 11:01";
shapes = (
{
closed = 1;
nodes = (
(211,700,ls),
(97,700,o),
(99,700,o),
(99,680,cs),
(86,283,ls),
(83,198,o),
(72,147,o),
(47,105,c),
(-5,105,l),
(-5,-92,ls),
(-5,-122,o),
(17,-122,o),
(68,-122,c),
(82,-81,o),
(94,-35,o),
(98,0,c),
(332,0,l),
(336,-35,o),
(348,-81,o),
(362,-122,c),
(413,-122,o),
(435,-122,o),
(435,-92,cs),
(435,105,l),
(393,105,l),
(393,700,l)
);
},
{
closed = 1;
nodes = (
(283,105,l),
(161,105,l),
(180,145,o),
(189,191,o),
(193,264,cs),
(207,595,l),
(283,595,l)
);
}
);
width = 450;
},
{
associatedMasterId = "B965DA2D-85AA-48ED-BC60-A8A438260572";
layerId = "BF9201F1-C493-4E86-BE15-72E3FC8444C1";
name = "Light May 17 13, 18:44";
shapes = (
{
closed = 1;
nodes = (
(177,700,l),
(149,700,o),
(149,700,o),
(148,690,c),
(132,412,ls),
(117,150,o),
(103,72,o),
(62,24,c),
(62,0,l),
(438,0,l),
(438,700,l)
);
},
{
closed = 1;
nodes = (
(414,24,l),
(93,24,l),
(127,70,o),
(140,146,o),
(156,408,cs),
(172,676,l),
(414,676,l)
);
},
{
pos = (75,0);
ref = "descender-cy.case";
scale = (-1,1);
},
{
pos = (438,0);
ref = "descender-cy.case";
}
);
width = 506;
},
{
associatedMasterId = "B965DA2D-85AA-48ED-BC60-A8A438260572";
layerId = "BBE30CBD-EB0C-4D91-8C28-4FAA44BDAAEA";
name = "Bold May 17 13, 18:46";
shapes = (
{
closed = 1;
nodes = (
(230,700,ls),
(121,700,o),
(119,697,o),
(118,676,cs),
(104,397,ls),
(94,193,o),
(85,135,o),
(55,105,c),
(114,0,l),
(405,0,l),
(405,700,l)
);
},
{
closed = 1;
nodes = (
(293,105,l),
(169,105,l),
(192,138,o),
(200,193,o),
(212,378,cs),
(226,595,l),
(293,595,l)
);
},
{
pos = (140,0);
ref = "descender-cy.case";
scale = (-1,1);
},
{
pos = (335,0);
ref = "descender-cy.case";
}
);
width = 435;
},
{
layerId = "B965DA2D-85AA-48ED-BC60-A8A438260572";
shapes = (
{
closed = 1;
nodes = (
(44,-96,o),
(44,-29,o),
(44,0,c),
(406,0,l),
(406,-29,o),
(406,-96,o),
(416,-160,c),
(421,-160,o),
(432,-160,o),
(432,-154,cs),
(432,24,l),
(382,24,l),
(382,700,l),
(180,700,ls),
(157,700,o),
(155,700,o),
(155,690,c),
(126,87,o),
(87,24,o),
(30,24,cs),
(18,24,l),
(18,-154,ls),
(18,-160,o),
(29,-160,o),
(34,-160,c)
);
},
{
closed = 1;
nodes = (
(125,59,o),
(147,201,o),
(178,676,c),
(358,676,l),
(358,24,l),
(80,24,l)
);
}
);
width = 467;
},
{
layerId = "113A2EC7-7A34-4A41-8395-62473D9E96C5";
shapes = (
{
closed = 1;
nodes = (
(96,-104,o),
(109,-59,o),
(113,0,c),
(349,0,l),
(353,-59,o),
(366,-104,o),
(380,-157,c),
(436,-157,o),
(447,-153,o),
(447,-125,cs),
(447,105,l),
(397,105,l),
(397,700,l),
(195,700,ls),
(124,700,o),
(124,700,o),
(123,680,cs),
(94,145,o),
(82,105,o),
(34,105,cs),
(15,105,l),
(15,-125,ls),
(15,-153,o),
(26,-157,o),
(82,-157,c)
);
},
{
closed = 1;
nodes = (
(198,189,o),
(213,337,o),
(230,595,c),
(285,595,l),
(285,105,l),
(167,105,l)
);
}
);
width = 457;
},
{
associatedMasterId = "B965DA2D-85AA-48ED-BC60-A8A438260572";
layerId = "698718C1-3F9A-4054-9888-E73CE90A8AF2";
name = "Light Jul 10 13, 10:17";
shapes = (
{
closed = 1;
nodes = (
(408,24,l),
(408,700,l),
(162,700,ls),
(139,700,o),
(137,700,o),
(137,690,c),
(102,87,o),
(89,24,o),
(40,24,cs),
(5,24,l),
(5,-154,ls),
(5,-160,o),
(16,-160,o),
(21,-160,c),
(31,-96,o),
(31,-29,o),
(31,0,c),
(432,0,l),
(432,-29,o),
(432,-96,o),
(442,-160,c),
(447,-160,o),
(458,-160,o),
(458,-154,cs),
(458,24,l)
);
},
{
closed = 1;
nodes = (
(384,24,l),
(88,24,l),
(121,75,o),
(135,231,o),
(160,676,c),
(384,676,l)
);
}
);
width = 483;
}
);
unicode = 1044;
},
{
color = 4;
glyphname = "Zhe-cy";
kernLeft = X;
kernRight = K;
layers = (
{
associatedMasterId = "B965DA2D-85AA-48ED-BC60-A8A438260572";
layerId = "CCB0F9DB-0CF3-4966-9B1D-26757B758CBD";
name = "Light May 15 13, 17:27";
shapes = (
{
closed = 1;
nodes = (
(25,700,o),
(24,694,o),
(31,685,cs),
(127,560,o),
(167,427,o),
(238,390,c),
(157,344,o),
(90,226,o),
(24,13,c),
(20,3,o),
(24,-1,o),
(31,-1,cs),
(35,-1,o),
(40,-1,o),
(44,0,c),
(120,250,o),
(218,377,o),
(276,377,c),
(303,377,l),
(303,401,l),
(278,401,l),
(200,401,o),
(143,574,o),
(52,699,c),
(47,700,o),
(42,700,o),
(37,700,cs)
);
},
{
closed = 1;
nodes = (
(290,700,o),
(290,700,o),
(290,690,c),
(290,0,l),
(314,0,o),
(314,0,o),
(314,10,c),
(314,700,l)
);
},
{
closed = 1;
nodes = (
(562,700,o),
(557,700,o),
(552,699,c),
(461,574,o),
(404,401,o),
(326,401,c),
(301,401,l),
(301,377,l),
(328,377,l),
(386,377,o),
(484,250,o),
(560,0,c),
(564,-1,o),
(569,-1,o),
(573,-1,cs),
(580,-1,o),
(584,3,o),
(580,13,c),
(514,226,o),
(447,344,o),
(366,390,c),
(437,427,o),
(477,560,o),
(573,685,cs),
(580,694,o),
(579,700,o),
(567,700,cs)
);
}
);
width = 606;
},
{
layerId = "B965DA2D-85AA-48ED-BC60-A8A438260572";
shapes = (
{
closed = 1;
nodes = (
(55,-1,o),
(60,-1,o),
(64,0,c),
(121,222,ls),
(142,302,o),
(187,357,o),
(233,357,cs),
(315,357,l),
(315,0,l),
(340,0,o),
(340,0,o),
(340,10,cs),
(340,357,l),
(421,357,ls),
(467,357,o),
(512,302,o),
(533,222,cs),
(590,0,l),
(595,-1,o),
(599,-1,o),
(603,-1,cs),
(611,-1,o),
(615,3,o),
(613,13,cs),
(557,233,ls),
(540,298,o),
(507,346,o),
(465,369,c),
(493,384,o),
(519,418,o),
(534,465,cs),
(601,685,ls),
(605,696,o),
(608,700,o),
(596,700,cs),
(591,700,o),
(586,700,o),
(581,699,c),
(512,471,ls),
(494,412,o),
(461,381,o),
(424,381,cs),
(340,381,l),
(340,700,l),
(315,700,o),
(315,700,o),
(315,690,cs),
(315,381,l),
(230,381,ls),
(193,381,o),
(160,412,o),
(142,471,cs),
(73,699,l),
(68,700,o),
(63,700,o),
(58,700,cs),
(46,700,o),
(49,696,o),
(53,685,cs),
(120,465,ls),
(135,418,o),
(161,384,o),
(189,369,c),
(147,346,o),
(114,298,o),
(97,233,cs),
(41,13,ls),
(39,3,o),
(43,-1,o),
(51,-1,cs)
);
}
);
width = 654;
},
{
layerId = "113A2EC7-7A34-4A41-8395-62473D9E96C5";
shapes = (
{
closed = 1;
nodes = (
(102,-2,o),
(126,-1,o),
(152,1,c),
(163,187,ls),
(169,298,o),
(196,315,o),
(228,315,cs),
(240,315,l),
(240,0,l),
(348,0,o),
(348,0,o),
(348,19,cs),
(348,315,l),
(360,315,ls),
(392,315,o),
(419,298,o),
(425,187,cs),
(436,1,l),
(462,-1,o),
(486,-2,o),
(509,-2,cs),
(547,-2,o),
(555,3,o),
(554,20,cs),
(541,200,ls),
(536,287,o),
(510,351,o),
(465,377,c),
(488,392,o),
(509,423,o),
(519,471,cs),
(557,674,ls),
(561,696,o),
(552,701,o),
(514,701,cs),
(496,701,o),
(471,699,o),
(446,693,c),
(414,488,ls),
(407,438,o),
(385,416,o),
(364,416,cs),
(348,416,l),
(348,700,l),
(240,700,o),
(240,700,o),
(240,681,cs),
(240,416,l),
(224,416,ls),
(203,416,o),
(181,438,o),
(174,488,cs),
(142,693,l),
(117,699,o),
(92,701,o),
(74,701,cs),
(36,701,o),
(27,696,o),
(31,674,cs),
(69,471,ls),
(79,423,o),
(100,392,o),
(123,377,c),
(78,351,o),
(52,287,o),
(47,200,cs),
(34,20,ls),
(33,3,o),
(41,-2,o),
(79,-2,cs)
);
}
);
width = 588;
},
{
associatedMasterId = "B965DA2D-85AA-48ED-BC60-A8A438260572";
layerId = "6940D9EE-1C9F-4951-B05F-B1BCDDDAE432";
name = "Bold May 15 13, 17:31";
shapes = (
{
closed = 1;
nodes = (
(509,701,o),
(484,699,o),
(458,693,c),
(400,567,o),
(393,431,o),
(366,431,c),
(330,431,l),
(330,327,l),
(361,327,l),
(420,327,o),
(446,127,o),
(445,1,c),
(472,-1,o),
(499,-2,o),
(523,-2,cs),
(562,-2,o),
(569,3,o),
(569,21,c),
(569,199,o),
(532,346,o),
(462,391,c),
(505,427,o),
(512,551,o),
(573,673,cs),
(583,694,o),
(567,701,o),
(528,701,cs)
);
},
{
closed = 1;
nodes = (
(29,701,o),
(13,694,o),
(23,673,cs),
(84,551,o),
(91,427,o),
(134,391,c),
(64,346,o),
(27,199,o),
(27,21,c),
(27,3,o),
(34,-2,o),
(73,-2,cs),
(97,-2,o),
(124,-1,o),
(151,1,c),
(150,127,o),
(176,327,o),
(235,327,c),
(266,327,l),
(266,431,l),
(230,431,l),
(203,431,o),
(196,567,o),
(138,693,c),
(112,699,o),
(87,701,o),
(68,701,cs)
);
},
{
closed = 1;
nodes = (
(243,700,o),
(243,700,o),
(243,680,c),
(243,0,l),
(353,0,o),
(353,0,o),
(353,20,c),
(353,700,l)
);
}
);
width = 596;
}
);
unicode = 1046;
},
{
color = 4;
glyphname = "Ze-cy";
kernLeft = "Ze-cy";
kernRight = B;
layers = (
{
anchors = (
{
name = bottom;
pos = (201,0);
},
{
name = top;
pos = (201,965);
}
);
layerId = "B965DA2D-85AA-48ED-BC60-A8A438260572";
shapes = (
{
closed = 1;
nodes = (
(228,-8,o),
(337,26,o),
(337,197,cs),
(337,304,o),
(293,354,o),
(236,377,c),
(285,416,o),
(319,482,o),
(319,554,cs),
(319,646,o),
(267,707,o),
(179,707,cs),
(110,707,o),
(55,673,o),
(55,646,cs),
(55,643,o),
(56,637,o),
(57,630,c),
(79,648,o),
(116,683,o),
(178,683,cs),
(248,683,o),
(291,637,o),
(291,549,cs),
(291,490,o),
(273,435,o),
(207,384,c),
(105,384,l),
(105,377,ls),
(105,364,o),
(109,357,o),
(119,357,cs),
(187,357,ls),
(252,357,o),
(310,310,o),
(310,192,cs),
(310,45,o),
(222,15,o),
(171,15,cs),
(116,15,o),
(64,32,o),
(30,77,c),
(25,71,o),
(23,63,o),
(23,59,cs),
(24,35,o),
(91,-8,o),
(172,-8,cs)
);
}
);
width = 367;
},
{
anchors = (
{
name = bottom;
pos = (203,0);
},
{
name = top;
pos = (203,969);
}
);
layerId = "113A2EC7-7A34-4A41-8395-62473D9E96C5";
shapes = (
{
closed = 1;
nodes = (
(299,-10,o),
(348,75,o),
(348,227,cs),
(348,300,o),
(322,357,o),
(272,388,c),
(298,425,o),
(323,492,o),
(323,554,cs),
(323,650,o),
(274,710,o),
(172,710,cs),
(60,710,o),
(43,654,o),
(43,624,cs),
(43,603,o),
(58,582,o),
(75,559,c),
(99,587,o),
(131,602,o),
(154,602,cs),
(185,602,o),
(202,572,o),
(202,519,cs),
(202,480,o),
(197,443,o),
(188,412,c),
(91,412,l),
(91,341,ls),
(91,321,o),
(101,309,o),
(119,309,cs),
(155,309,ls),
(200,309,o),
(228,278,o),
(228,221,cs),
(228,131,o),
(209,99,o),
(158,99,cs),
(104,99,o),
(69,115,o),
(41,143,c),
(25,119,o),
(20,97,o),
(20,74,cs),
(20,26,o),
(73,-10,o),
(169,-10,cs)
);
}
);
width = 363;
}
);
unicode = 1047;
},
{
color = 4;
glyphname = "Ii-cy";
kernLeft = H;
kernRight = H;
layers = (
{
anchors = (
{
name = top;
pos = (235,700);
}
);
layerId = "B965DA2D-85AA-48ED-BC60-A8A438260572";
shapes = (
{
closed = 1;
nodes = (
(73,0,o),
(89,-3,o),
(95,9,cs),
(221,289,l),
(295,457,o),
(352,585,o),
(387,676,c),
(380,557,o),
(378,461,o),
(378,257,cs),
(378,0,l),
(402,0,o),
(402,0,o),
(402,10,cs),
(402,700,l),
(396,700,o),
(383,702,o),
(375,691,c),
(252,417,l),
(168,224,o),
(112,104,o),
(87,32,c),
(91,104,o),
(92,157,o),
(92,245,cs),
(92,700,l),
(68,700,o),
(68,700,o),
(68,690,cs),
(68,0,l)
);
}
);
width = 470;
},
{
anchors = (
{
name = top;
pos = (206,700);
}
);
guides = (
{
angle = 90;
pos = (124,168);
},
{
angle = 90;
pos = (291,550);
}
);
layerId = "113A2EC7-7A34-4A41-8395-62473D9E96C5";
shapes = (
{
closed = 1;
nodes = (
(127,0,o),
(127,0,o),
(136,26,cs),
(219,261,ls),
(247,341,o),
(262,401,o),
(275,472,c),
(268,407,o),
(261,305,o),
(261,248,cs),
(261,0,l),
(359,0,o),
(366,0,o),
(366,19,cs),
(366,700,l),
(279,700,o),
(275,700,o),
(267,674,cs),
(186,415,ls),
(165,349,o),
(143,289,o),
(124,216,c),
(133,309,o),
(136,358,o),
(136,421,cs),
(136,700,l),
(28,700,o),
(31,700,o),
(31,681,cs),
(31,0,l)
);
}
);
width = 397;
}
);
metricLeft = "En-cy";
metricRight = "En-cy";
unicode = 1048;
},
{
color = 4;
glyphname = "Ka-cy";
kernLeft = H;
kernRight = K;
layers = (
{
anchors = (
{
name = top;
pos = (196,700);
}
);
associatedMasterId = "B965DA2D-85AA-48ED-BC60-A8A438260572";
layerId = "E0D7DAD0-2010-48AD-B884-C7988D52D98F";
name = "Light Apr 20 13, 15:36";
shapes = (
{
closed = 1;
nodes = (
(68,0,l),
(92,0,o),
(92,0,o),
(92,10,c),
(92,700,l),
(68,700,o),
(68,700,o),
(68,690,c)
);
},
{
closed = 1;
nodes = (
(79,401,l),
(79,377,l),
(107,377,l),
(167,377,o),
(270,250,o),
(350,0,c),
(354,-1,o),
(359,-1,o),
(363,-1,cs),
(370,-1,o),
(374,3,o),
(370,13,c),
(301,226,o),
(230,343,o),
(144,390,c),
(229,427,o),
(263,559,o),
(363,685,cs),
(370,694,o),
(367,700,o),
(358,700,cs),
(353,700,o),
(348,700,o),
(342,699,c),
(246,574,o),
(191,401,o),
(105,401,c)
);
}
);
width = 392;
},
{
anchors = (
{
name = top;
pos = (197,700);
}
);
associatedMasterId = "B965DA2D-85AA-48ED-BC60-A8A438260572";
layerId = "415FD7B1-8B85-4EA1-8487-8EE82C8DD396";
name = "Bold May 15 13, 17:12";
shapes = (
{
closed = 1;
nodes = (
(307,701,o),
(281,699,o),
(254,693,c),
(194,567,o),
(186,432,o),
(158,432,c),
(121,432,l),
(121,325,l),
(153,325,l),
(214,325,o),
(241,123,o),
(241,1,c),
(269,-1,o),
(296,-2,o),
(321,-2,cs),
(361,-2,o),
(368,3,o),
(368,21,c),
(368,198,o),
(330,346,o),
(257,391,c),
(302,427,o),
(309,551,o),
(372,673,cs),
(383,694,o),
(366,701,o),
(326,701,cs)
);
},
{
closed = 1;
nodes = (
(31,700,o),
(31,700,o),
(31,680,c),
(31,0,l),
(145,0,o),
(145,0,o),
(145,20,c),
(145,700,l)
);
}
);
width = 390;
},
{
anchors = (
{
name = top;
pos = (221,700);
}
);
layerId = "B965DA2D-85AA-48ED-BC60-A8A438260572";
shapes = (
{
closed = 1;
nodes = (
(367,-1,o),
(373,1,o),
(369,13,cs),
(305,229,ls),
(286,294,o),
(252,342,o),
(208,365,c),
(237,380,o),
(263,414,o),
(280,461,cs),
(359,685,ls),
(363,696,o),
(365,700,o),
(353,700,cs),
(348,700,o),
(343,700,o),
(338,699,c),
(258,467,ls),
(238,409,o),
(205,377,o),
(167,377,cs),
(92,377,l),
(92,700,l),
(68,700,o),
(68,700,o),
(68,690,cs),
(68,0,l),
(92,0,o),
(92,0,o),
(92,10,cs),
(92,353,l),
(162,353,ls),
(211,353,o),
(258,299,o),
(282,218,cs),
(346,0,l),
(350,-1,o),
(355,-1,o),
(359,-1,cs)
);
}
);
width = 411;
},
{
anchors = (
{
name = top;
pos = (195,700);
}
);
layerId = "113A2EC7-7A34-4A41-8395-62473D9E96C5";
shapes = (
{
closed = 1;
nodes = (
(348,-2,o),
(356,3,o),
(355,21,cs),
(343,197,ls),
(337,285,o),
(312,350,o),
(266,377,c),
(289,392,o),
(311,422,o),
(320,470,cs),
(359,673,ls),
(363,696,o),
(353,701,o),
(313,701,cs),
(294,701,o),
(268,699,o),
(241,693,c),
(210,488,ls),
(203,439,o),
(180,418,o),
(160,418,cs),
(145,418,l),
(145,700,l),
(31,700,o),
(31,700,o),
(31,680,cs),
(31,0,l),
(145,0,o),
(145,0,o),
(145,20,cs),
(145,311,l),
(155,311,ls),
(188,311,o),
(214,297,o),
(220,183,cs),
(230,1,l),
(258,-1,o),
(283,-2,o),
(308,-2,cs)
);
}
);
width = 385;
},
{
anchors = (
{
name = top;
pos = (230,700);
}
);
associatedMasterId = "B965DA2D-85AA-48ED-BC60-A8A438260572";
layerId = "13ED4AAC-A67B-4B4D-8E2C-605116BDAC99";
name = "Light Jul 10 13, 11:06";
shapes = (
{
closed = 1;
nodes = (
(357,700,o),
(352,700,o),
(347,699,c),
(267,471,ls),
(246,413,o),
(214,381,o),
(176,381,cs),
(101,381,l),
(101,700,l),
(77,700,o),
(77,700,o),
(77,690,cs),
(77,0,l),
(101,0,o),
(101,0,o),
(101,10,cs),
(101,357,l),
(171,357,ls),
(235,357,o),
(332,251,o),
(355,0,c),
(359,-1,o),
(364,-1,o),
(368,-1,cs),
(376,-1,o),
(379,3,o),
(378,13,cs),
(358,212,o),
(293,329,o),
(217,369,c),
(246,384,o),
(272,418,o),
(289,465,cs),
(368,685,l),
(372,696,o),
(374,700,o),
(362,700,cs)
);
}
);
width = 410;
}
);
metricLeft = "En-cy";
unicode = 1050;
},
{
color = 4;
glyphname = "El-cy";
kernLeft = "El-cy";
kernRight = H;
layers = (
{
layerId = "B965DA2D-85AA-48ED-BC60-A8A438260572";
shapes = (
{
closed = 1;
nodes = (
(112,-4,o),
(138,238,o),
(166,676,c),
(335,676,l),
(335,0,l),
(357,0,o),
(359,0,o),
(359,10,cs),
(359,700,l),
(167,700,ls),
(145,700,o),
(142,700,o),
(142,691,c),
(112,227,o),
(93,21,o),
(1,16,c),
(-3,-3,o),
(5,-4,o),
(14,-4,cs)
);
}
);
width = 427;
},
{
layerId = "113A2EC7-7A34-4A41-8395-62473D9E96C5";
shapes = (
{
closed = 1;
nodes = (
(159,-11,o),
(193,176,o),
(210,595,c),
(267,595,l),
(267,0,l),
(379,0,o),
(379,0,o),
(379,20,cs),
(379,700,l),
(201,700,ls),
(109,700,o),
(106,695,o),
(105,667,cs),
(87,234,o),
(79,82,o),
(2,81,c),
(-7,17,o),
(22,-11,o),
(65,-11,cs)
);
}
);
width = 410;
}
);
metricRight = "En-cy";
unicode = 1051;
},
{
color = 4;
glyphname = "Pe-cy";
kernLeft = H;
kernRight = H;
layers = (
{
layerId = "B965DA2D-85AA-48ED-BC60-A8A438260572";
shapes = (
{
closed = 1;
nodes = (
(91,0,o),
(92,0,o),
(92,10,c),
(92,676,l),
(355,676,l),
(355,0,l),
(378,0,o),
(379,0,o),
(379,10,c),
(379,700,l),
(92,700,l),
(69,700,o),
(68,700,o),
(68,690,c),
(68,0,l)
);
}
);
width = 447;
},
{
layerId = "113A2EC7-7A34-4A41-8395-62473D9E96C5";
shapes = (
{
closed = 1;
nodes = (
(142,0,o),
(143,0,o),
(143,20,c),
(143,595,l),
(230,595,l),
(230,0,l),
(341,0,o),
(342,0,o),
(342,20,c),
(342,700,l),
(143,700,l),
(33,700,o),
(31,700,o),
(31,680,c),
(31,0,l)
);
}
);
width = 373;
}
);
metricLeft = "En-cy";
metricRight = "En-cy";
unicode = 1055;
},
{
color = 4;
glyphname = "U-cy";
kernLeft = "U-cy";
kernRight = "U-cy";
layers = (
{
anchors = (
{
name = top;
pos = (192,700);
}
);
layerId = "B965DA2D-85AA-48ED-BC60-A8A438260572";
shapes = (
{
closed = 1;
nodes = (
(180,-3,o),
(194,45,o),
(212,109,cs),
(367,700,l),
(351,700,ls),
(343,700,o),
(342,697,o),
(340,689,cs),
(247,338,ls),
(226,261,o),
(212,196,o),
(201,152,c),
(190,196,o),
(175,259,o),
(149,350,cs),
(46,700,l),
(28,700,ls),
(25,700,o),
(23,699,o),
(23,696,cs),
(23,694,o),
(24,691,o),
(25,688,c),
(80,498,o),
(161,206,o),
(189,118,c),
(172,52,o),
(161,21,o),
(126,21,cs),
(107,21,o),
(91,26,o),
(78,34,c),
(73,27,o),
(71,21,o),
(73,16,cs),
(77,5,o),
(99,-3,o),
(122,-3,cs)
);
}
);
width = 377;
},
{
anchors = (
{
name = top;
pos = (198,700);
}
);
layerId = "113A2EC7-7A34-4A41-8395-62473D9E96C5";
shapes = (
{
closed = 1;
nodes = (
(219,-2,o),
(232,58,o),
(253,155,c),
(370,700,l),
(290,700,l),
(264,700,o),
(258,688,o),
(252,663,cs),
(226,519,ls),
(208,421,o),
(195,342,o),
(191,276,c),
(184,342,o),
(176,423,o),
(156,519,cs),
(117,700,l),
(37,700,ls),
(15,700,o),
(7,697,o),
(7,684,cs),
(7,676,o),
(10,664,o),
(15,641,cs),
(40,530,o),
(120,215,o),
(147,141,c),
(143,111,o),
(136,94,o),
(118,94,cs),
(104,94,o),
(80,104,o),
(60,117,c),
(46,89,o),
(42,65,o),
(42,53,cs),
(42,13,o),
(81,-6,o),
(132,-5,cs)
);
}
);
width = 375;
}
);
unicode = 1059;
},
{
color = 4;
glyphname = "Ef-cy";
kernLeft = O;
kernRight = O;
layers = (
{
layerId = "B965DA2D-85AA-48ED-BC60-A8A438260572";
shapes = (
{
closed = 1;
nodes = (
(287,-10,o),
(287,-10,o),
(287,0,c),
(287,75,l),
(429,75,o),
(501,159,o),
(501,368,cs),
(501,570,o),
(429,655,o),
(287,655,c),
(287,745,l),
(264,745,o),
(263,745,o),
(263,729,cs),
(263,655,l),
(120,655,o),
(48,570,o),
(48,368,cs),
(48,159,o),
(120,75,o),
(263,75,c),
(263,-10,l)
);
},
{
closed = 1;
nodes = (
(136,97,o),
(72,176,o),
(72,368,cs),
(72,555,o),
(136,633,o),
(263,633,c),
(263,97,l)
);
},
{
closed = 1;
nodes = (
(287,633,l),
(413,633,o),
(477,555,o),
(477,368,cs),
(477,176,o),
(413,97,o),
(287,97,c)
);
}
);
width = 549;
},
{
layerId = "113A2EC7-7A34-4A41-8395-62473D9E96C5";
shapes = (
{
closed = 1;
nodes = (
(333,-10,o),
(332,-10,o),
(332,29,c),
(332,69,l),
(468,94,o),
(531,205,o),
(531,369,cs),
(531,530,o),
(476,634,o),
(332,659,c),
(332,745,l),
(220,745,o),
(219,745,o),
(219,696,cs),
(219,657,l),
(79,630,o),
(20,518,o),
(20,366,cs),
(20,193,o),
(71,84,o),
(220,65,c),
(220,-10,l)
);
},
{
closed = 1;
nodes = (
(156,180,o),
(137,261,o),
(137,354,cs),
(137,453,o),
(158,540,o),
(220,554,c),
(220,169,l)
);
},
{
closed = 1;
nodes = (
(331,556,l),
(397,544,o),
(410,464,o),
(410,367,cs),
(410,273,o),
(391,187,o),
(331,173,c)
);
}
);
width = 551;
}
);
metricLeft = "O-cy";
metricRight = "O-cy";
unicode = 1060;
},
{
color = 4;
glyphname = "Che-cy";
kernLeft = "Che-cy";
kernRight = H;
layers = (
{
layerId = "B965DA2D-85AA-48ED-BC60-A8A438260572";
shapes = (
{
closed = 1;
nodes = (
(343,0,o),
(343,0,o),
(343,10,c),
(343,700,l),
(319,700,o),
(319,699,o),
(319,690,c),
(319,340,l),
(274,322,o),
(229,314,o),
(191,314,cs),
(112,314,o),
(63,369,o),
(64,475,c),
(64,700,l),
(40,700,o),
(40,700,o),
(40,690,c),
(40,468,l),
(41,351,o),
(98,290,o),
(189,290,cs),
(226,290,o),
(272,297,o),
(319,311,c),
(319,0,l)
);
}
);
width = 411;
},
{
layerId = "113A2EC7-7A34-4A41-8395-62473D9E96C5";
shapes = (
{
closed = 1;
nodes = (
(323,0,o),
(324,0,o),
(324,20,c),
(324,700,l),
(215,700,o),
(213,700,o),
(213,680,c),
(213,371,l),
(199,365,o),
(185,362,o),
(170,362,cs),
(148,362,o),
(135,385,o),
(135,458,c),
(135,700,l),
(26,700,o),
(25,700,o),
(25,680,c),
(25,444,l),
(25,308,o),
(59,260,o),
(139,260,cs),
(164,260,o),
(182,263,o),
(213,271,c),
(213,0,l)
);
}
);
width = 355;
}
);
metricRight = "En-cy";
unicode = 1063;
},
{
color = 4;
glyphname = "Tse-cy";
kernLeft = H;
kernRight = "Tse-cy";
layers = (
{
layerId = "B965DA2D-85AA-48ED-BC60-A8A438260572";
shapes = (
{
closed = 1;
nodes = (
(424,-160,o),
(435,-160,o),
(435,-154,cs),
(435,24,l),
(383,24,l),
(383,700,l),
(360,700,o),
(359,700,o),
(359,690,cs),
(359,24,l),
(92,24,l),
(92,700,l),
(69,700,o),
(68,700,o),
(68,690,cs),
(68,0,l),
(409,0,l),
(409,-29,o),
(409,-96,o),
(419,-160,c)
);
}
);
width = 460;
},
{
layerId = "113A2EC7-7A34-4A41-8395-62473D9E96C5";
shapes = (
{
closed = 1;
nodes = (
(383,-157,o),
(394,-153,o),
(394,-125,cs),
(394,105,l),
(344,105,l),
(344,700,l),
(233,700,o),
(232,700,o),
(232,680,cs),
(232,105,l),
(143,105,l),
(143,700,l),
(32,700,o),
(31,700,o),
(31,680,cs),
(31,0,l),
(296,0,l),
(300,-59,o),
(313,-104,o),
(327,-157,c)
);
}
);
width = 409;
}
);
metricLeft = "En-cy";
unicode = 1062;
},
{
color = 4;
glyphname = "Sha-cy";
kernLeft = H;
kernRight = H;
layers = (
{
layerId = "B965DA2D-85AA-48ED-BC60-A8A438260572";
shapes = (
{
closed = 1;
nodes = (
(494,0,ls),
(524,0,o),
(540,0,o),
(540,17,c),
(540,700,l),
(518,700,o),
(516,700,o),
(516,690,cs),
(516,24,l),
(316,24,l),
(316,700,l),
(293,700,o),
(292,700,o),
(292,690,cs),
(292,24,l),
(92,24,l),
(92,700,l),
(69,700,o),
(68,700,o),
(68,690,cs),
(68,0,l)
);
}
);
width = 608;
},
{
layerId = "113A2EC7-7A34-4A41-8395-62473D9E96C5";
shapes = (
{
closed = 1;
nodes = (
(400,0,ls),
(517,0,o),
(515,0,o),
(515,52,c),
(515,700,l),
(401,700,o),
(403,700,o),
(403,680,cs),
(403,105,l),
(329,105,l),
(329,700,l),
(215,700,o),
(217,700,o),
(217,680,cs),
(217,105,l),
(143,105,l),
(143,700,l),
(29,700,o),
(31,700,o),
(31,680,cs),
(31,0,l)
);
}
);
width = 546;
}
);
metricLeft = "En-cy";
metricRight = "En-cy";
unicode = 1064;
},
{
color = 4;
glyphname = "Shcha-cy";
kernLeft = H;
kernRight = "Tse-cy";
layers = (
{
layerId = "B965DA2D-85AA-48ED-BC60-A8A438260572";
shapes = (
{
closed = 1;
nodes = (
(581,-160,o),
(592,-160,o),
(592,-154,cs),
(592,24,l),
(540,24,l),
(540,700,l),
(518,700,o),
(516,700,o),
(516,690,cs),
(516,24,l),
(316,24,l),
(316,700,l),
(293,700,o),
(292,700,o),
(292,690,cs),
(292,24,l),
(92,24,l),
(92,700,l),
(69,700,o),
(68,700,o),
(68,690,cs),
(68,0,l),
(566,0,l),
(566,-29,o),
(566,-96,o),
(576,-160,c)
);
}
);
width = 617;
},
{
layerId = "113A2EC7-7A34-4A41-8395-62473D9E96C5";
shapes = (
{
closed = 1;
nodes = (
(554,-157,o),
(565,-153,o),
(565,-125,cs),
(565,105,l),
(515,105,l),
(515,700,l),
(401,700,o),
(403,700,o),
(403,680,cs),
(403,105,l),
(329,105,l),
(329,700,l),
(215,700,o),
(217,700,o),
(217,680,cs),
(217,105,l),
(143,105,l),
(143,700,l),
(29,700,o),
(31,700,o),
(31,680,cs),
(31,0,l),
(467,0,l),
(471,-59,o),
(484,-104,o),
(498,-157,c)
);
}
);
width = 580;
}
);
metricLeft = "En-cy";
metricRight = "Tse-cy";
unicode = 1065;
},
{
color = 4;
glyphname = "Dzhe-cy";
kernLeft = H;
kernRight = H;
layers = (
{
layerId = "B965DA2D-85AA-48ED-BC60-A8A438260572";
shapes = (
{
closed = 1;
nodes = (
(234,-160,o),
(245,-160,o),
(245,-154,cs),
(245,0,l),
(359,0,ls),
(382,0,o),
(383,0,o),
(383,10,cs),
(383,700,l),
(360,700,o),
(359,700,o),
(359,690,cs),
(359,24,l),
(92,24,l),
(92,700,l),
(69,700,o),
(68,700,o),
(68,690,cs),
(68,0,l),
(219,0,l),
(219,-29,o),
(219,-96,o),
(229,-160,c)
);
}
);
width = 451;
},
{
layerId = "113A2EC7-7A34-4A41-8395-62473D9E96C5";
shapes = (
{
closed = 1;
nodes = (
(226,-157,o),
(237,-153,o),
(237,-125,cs),
(237,0,l),
(309,0,l),
(339,0,o),
(344,2,o),
(344,20,cs),
(344,700,l),
(233,700,o),
(232,700,o),
(232,680,cs),
(232,105,l),
(143,105,l),
(143,700,l),
(32,700,o),
(31,700,o),
(31,680,cs),
(31,0,l),
(139,0,l),
(143,-59,o),
(156,-104,o),
(170,-157,c)
);
}
);
width = 375;
}
);
metricLeft = "En-cy";
metricRight = "En-cy";
unicode = 1039;
},
{
color = 4;
glyphname = "Softsign-cy";
kernLeft = H;
kernRight = "Softsign-cy";
layers = (
{
layerId = "B965DA2D-85AA-48ED-BC60-A8A438260572";
shapes = (
{
closed = 1;
nodes = (
(179,0,l),
(303,0,o),
(367,88,o),
(367,221,cs),
(367,341,o),
(316,397,o),
(196,397,cs),
(92,397,l),
(92,700,l),
(74,700,o),
(68,700,o),
(68,685,cs),
(68,0,l)
);
},
{
closed = 1;
nodes = (
(162,24,o),
(103,25,o),
(92,25,c),
(92,373,l),
(193,373,l),
(299,373,o),
(343,325,o),
(343,219,cs),
(343,104,o),
(291,24,o),
(175,24,cs)
);
}
);
width = 387;
},
{
layerId = "113A2EC7-7A34-4A41-8395-62473D9E96C5";
shapes = (
{
closed = 1;
nodes = (
(165,0,ls),
(264,0,o),
(336,83,o),
(336,243,cs),
(336,368,o),
(292,425,o),
(172,425,cs),
(143,425,l),
(143,700,l),
(29,700,o),
(31,700,o),
(31,680,cs),
(31,0,l)
);
},
{
closed = 1;
nodes = (
(153,98,o),
(148,98,o),
(143,100,c),
(143,320,l),
(166,320,l),
(199,320,o),
(203,304,o),
(203,232,cs),
(203,123,o),
(194,98,o),
(164,98,cs)
);
}
);
width = 356;
}
);
metricLeft = "En-cy";
unicode = 1068;
},
{
color = 4;
glyphname = "Hardsign-cy";
kernLeft = T;
kernRight = "Softsign-cy";
layers = (
{
layerId = "B965DA2D-85AA-48ED-BC60-A8A438260572";
shapes = (
{
closed = 1;
nodes = (
(274,0,ls),
(398,0,o),
(462,88,o),
(462,221,cs),
(462,341,o),
(411,397,o),
(291,397,cs),
(187,397,l),
(187,700,l),
(33,700,ls),
(28,700,o),
(23,700,o),
(23,688,cs),
(23,676,l),
(163,676,l),
(163,0,l)
);
},
{
closed = 1;
nodes = (
(242,24,o),
(215,25,o),
(187,25,c),
(187,373,l),
(288,373,ls),
(394,373,o),
(438,325,o),
(438,219,cs),
(438,104,o),
(386,24,o),
(270,24,cs)
);
}
);
width = 482;
},
{
layerId = "113A2EC7-7A34-4A41-8395-62473D9E96C5";
shapes = (
{
closed = 1;
nodes = (
(249,0,ls),
(348,0,o),
(420,83,o),
(420,243,cs),
(420,368,o),
(376,425,o),
(256,425,cs),
(227,425,l),
(227,700,l),
(41,700,ls),
(20,700,o),
(15,688,o),
(15,671,cs),
(15,595,l),
(115,595,l),
(115,0,l)
);
},
{
closed = 1;
nodes = (
(237,98,o),
(232,98,o),
(227,100,c),
(227,320,l),
(250,320,ls),
(283,320,o),
(287,304,o),
(287,232,cs),
(287,123,o),
(278,98,o),
(248,98,cs)
);
}
);
width = 440;
}
);
metricRight = "Softsign-cy";
unicode = 1066;
},
{
color = 4;
glyphname = "Lje-cy";
kernLeft = "El-cy";
kernRight = "Softsign-cy";
layers = (
{
associatedMasterId = "B965DA2D-85AA-48ED-BC60-A8A438260572";
layerId = "F6F9FC4A-E96E-4338-B4D0-FC68A4583D5E";
name = "Light Apr 21 13, 20:45";
shapes = (
{
closed = 1;
nodes = (
(180,700,ls),
(175,700,o),
(170,699,o),
(170,687,cs),
(158,297,o),
(136,22,o),
(65,22,cs),
(51,22,o),
(31,25,o),
(18,30,c),
(15,26,o),
(12,19,o),
(12,11,cs),
(12,0,o),
(40,-5,o),
(69,-5,cs),
(163,-5,o),
(178,272,o),
(195,675,c),
(404,675,l),
(428,700,l)
);
},
{
pos = (336,0);
ref = "Softsign-cy";
}
);
width = 744;
},
{
layerId = "B965DA2D-85AA-48ED-BC60-A8A438260572";
shapes = (
{
closed = 1;
nodes = (
(112,-4,o),
(138,238,o),
(166,676,c),
(350,676,l),
(350,0,l),
(461,0,ls),
(585,0,o),
(649,88,o),
(649,221,cs),
(649,341,o),
(598,397,o),
(478,397,cs),
(374,397,l),
(374,700,l),
(167,700,ls),
(145,700,o),
(142,700,o),
(142,691,c),
(112,227,o),
(93,21,o),
(1,16,c),
(-3,-3,o),
(5,-4,o),
(14,-4,cs)
);
},
{
closed = 1;
nodes = (
(429,24,o),
(402,24,o),
(374,24,c),
(374,373,l),
(475,373,ls),
(581,373,o),
(625,325,o),
(625,219,cs),
(625,104,o),
(573,24,o),
(457,24,cs)
);
}
);
width = 669;
},
{
layerId = "113A2EC7-7A34-4A41-8395-62473D9E96C5";
shapes = (
{
closed = 1;
nodes = (
(159,-6,o),
(193,176,o),
(210,595,c),
(267,595,l),
(267,0,l),
(401,0,ls),
(500,0,o),
(572,83,o),
(572,243,cs),
(572,368,o),
(528,425,o),
(408,425,cs),
(379,425,l),
(379,700,l),
(201,700,ls),
(109,700,o),
(106,695,o),
(105,667,cs),
(87,234,o),
(79,87,o),
(2,86,c),
(-7,22,o),
(22,-6,o),
(65,-6,cs)
);
},
{
closed = 1;
nodes = (
(391,98,o),
(389,98,o),
(379,100,c),
(379,320,l),
(402,320,ls),
(435,320,o),
(439,304,o),
(439,232,c),
(439,123,o),
(430,98,o),
(400,98,cs)
);
}
);
width = 592;
},
{
associatedMasterId = "B965DA2D-85AA-48ED-BC60-A8A438260572";
layerId = "B41777AF-7610-49E1-B6E6-71E986639FA2";
name = "Light Jul 11 13, 17:01";
shapes = (
{
closed = 1;
nodes = (
(412,397,l),
(412,700,l),
(168,700,ls),
(145,700,o),
(143,700,o),
(143,690,cs),
(121,316,o),
(109,148,o),
(91,75,cs),
(79,30,o),
(66,20,o),
(46,20,cs),
(36,20,o),
(26,23,o),
(16,28,c),
(13,24,o),
(10,18,o),
(10,13,cs),
(10,1,o),
(29,-4,o),
(46,-4,cs),
(76,-4,o),
(95,7,o),
(110,61,cs),
(132,141,o),
(145,312,o),
(166,676,c),
(388,676,l),
(388,0,l),
(499,0,ls),
(623,0,o),
(687,88,o),
(687,221,cs),
(687,341,o),
(636,397,o),
(516,397,cs)
);
},
{
closed = 1;
nodes = (
(412,373,l),
(513,373,ls),
(619,373,o),
(663,325,o),
(663,219,cs),
(663,104,o),
(611,24,o),
(495,24,cs),
(467,24,o),
(440,25,o),
(412,25,c)
);
}
);
width = 707;
}
);
metricLeft = "El-cy";
metricRight = "Softsign-cy";
unicode = 1033;
},
{
color = 4;
glyphname = "Nje-cy";
kernLeft = H;
kernRight = "Softsign-cy";
layers = (
{
hints = (
{
horizontal = 1;
place = (0,0);
type = Stem;
},
{
horizontal = 1;
place = (0,0);
type = Stem;
}
);
layerId = "B965DA2D-85AA-48ED-BC60-A8A438260572";
shapes = (
{
closed = 1;
nodes = (
(91,0,o),
(92,0,o),
(92,10,cs),
(92,373,l),
(367,373,l),
(367,0,l),
(478,0,ls),
(602,0,o),
(666,88,o),
(666,221,cs),
(666,341,o),
(615,397,o),
(495,397,cs),
(391,397,l),
(391,700,l),
(369,700,o),
(367,700,o),
(367,690,cs),
(367,397,l),
(92,397,l),
(92,700,l),
(69,700,o),
(68,700,o),
(68,690,cs),
(68,0,l)
);
},
{
closed = 1;
nodes = (
(446,24,o),
(419,25,o),
(391,25,c),
(391,373,l),
(492,373,ls),
(598,373,o),
(642,325,o),
(642,219,cs),
(642,104,o),
(590,24,o),
(474,24,cs)
);
}
);
width = 686;
},
{
hints = (
{
horizontal = 1;
place = (0,0);
type = Stem;
},
{
horizontal = 1;
place = (0,0);
type = Stem;
}
);
layerId = "113A2EC7-7A34-4A41-8395-62473D9E96C5";
shapes = (
{
closed = 1;
nodes = (
(145,0,o),
(143,0,o),
(143,20,cs),
(143,320,l),
(239,320,l),
(239,0,l),
(373,0,ls),
(472,0,o),
(544,83,o),
(544,243,cs),
(544,368,o),
(500,425,o),
(380,425,cs),
(351,425,l),
(351,700,l),
(237,700,o),
(239,700,o),
(239,680,cs),
(239,425,l),
(143,425,l),
(143,700,l),
(29,700,o),
(31,700,o),
(31,680,cs),
(31,0,l)
);
},
{
closed = 1;
nodes = (
(361,98,o),
(356,98,o),
(351,100,c),
(351,320,l),
(374,320,ls),
(407,320,o),
(411,304,o),
(411,232,cs),
(411,123,o),
(402,98,o),
(372,98,cs)
);
}
);
width = 564;
}
);
metricLeft = "En-cy";
metricRight = "Softsign-cy";
unicode = 1034;
},
{
color = 4;
glyphname = "E-cy";
kernLeft = O;
kernRight = C;
layers = (
{
layerId = "B965DA2D-85AA-48ED-BC60-A8A438260572";
shapes = (
{
closed = 1;
nodes = (
(282,-10,o),
(339,30,o),
(339,52,cs),
(339,58,o),
(335,70,o),
(332,76,c),
(316,51,o),
(275,15,o),
(224,15,cs),
(146,15,o),
(73,73,o),
(73,347,c),
(269,347,ls),
(277,347,o),
(277,352,o),
(277,371,c),
(73,371,l),
(80,663,o),
(164,687,o),
(223,687,cs),
(282,687,o),
(316,659,o),
(325,648,c),
(328,651,o),
(332,658,o),
(332,665,cs),
(332,677,o),
(294,710,o),
(223,710,cs),
(152,710,o),
(48,697,o),
(48,356,cs),
(48,19,o),
(149,-10,o),
(222,-10,cs)
);
}
);
width = 369;
},
{
layerId = "113A2EC7-7A34-4A41-8395-62473D9E96C5";
shapes = (
{
closed = 1;
nodes = (
(270,-10,o),
(316,20,o),
(316,60,cs),
(316,85,o),
(309,110,o),
(300,132,c),
(266,120,o),
(240,115,o),
(216,115,cs),
(168,115,o),
(145,173,o),
(140,301,c),
(249,301,ls),
(270,301,o),
(270,319,o),
(270,403,c),
(139,403,l),
(144,588,o),
(186,600,o),
(240,600,cs),
(262,600,o),
(280,592,o),
(292,583,c),
(302,600,o),
(308,623,o),
(308,649,cs),
(308,681,o),
(279,710,o),
(200,710,cs),
(104,710,o),
(20,651,o),
(20,361,cs),
(20,49,o),
(89,-10,o),
(203,-10,cs)
);
}
);
width = 326;
}
);
metricLeft = "O-cy";
metricRight = C;
unicode = 1028;
},
{
color = 4;
glyphname = "Ereversed-cy";
kernLeft = "Ereversed-cy";
kernRight = O;
layers = (
{
guides = (
{
pos = (206,710);
},
{
pos = (336,-10);
}
);
layerId = "B965DA2D-85AA-48ED-BC60-A8A438260572";
shapes = (
{
closed = 1;
nodes = (
(220,-10,o),
(321,19,o),
(321,356,cs),
(321,697,o),
(217,710,o),
(146,710,cs),
(75,710,o),
(37,677,o),
(37,665,cs),
(37,658,o),
(41,651,o),
(44,648,c),
(53,659,o),
(87,687,o),
(146,687,cs),
(205,687,o),
(289,663,o),
(296,371,c),
(92,371,l),
(92,352,o),
(92,347,o),
(100,347,cs),
(296,347,l),
(296,73,o),
(223,15,o),
(145,15,cs),
(94,15,o),
(53,51,o),
(37,76,c),
(34,70,o),
(30,58,o),
(30,52,cs),
(30,30,o),
(87,-10,o),
(147,-10,cs)
);
}
);
width = 369;
},
{
guides = (
{
pos = (173,710);
},
{
pos = (305,-10);
}
);
layerId = "113A2EC7-7A34-4A41-8395-62473D9E96C5";
shapes = (
{
closed = 1;
nodes = (
(242,-10,o),
(314,49,o),
(314,361,cs),
(314,651,o),
(232,710,o),
(136,710,cs),
(57,710,o),
(28,681,o),
(28,649,cs),
(28,624,o),
(34,600,o),
(44,583,c),
(56,592,o),
(78,600,o),
(101,600,cs),
(150,600,o),
(190,589,o),
(195,403,c),
(64,403,l),
(64,319,o),
(64,301,o),
(83,301,cs),
(194,301,l),
(189,173,o),
(163,115,o),
(115,115,cs),
(88,115,o),
(62,121,o),
(32,133,c),
(22,106,o),
(15,84,o),
(15,55,cs),
(15,19,o),
(68,-10,o),
(128,-10,cs)
);
}
);
width = 334;
}
);
metricRight = "O-cy";
unicode = 1069;
},
{
color = 4;
glyphname = "Tshe-cy";
kernLeft = T;
kernRight = "Tshe-cy";
layers = (
{
hints = (
{
horizontal = 1;
place = (0,0);
type = Stem;
},
{
horizontal = 1;
place = (0,0);
type = Stem;
}
);
layerId = "B965DA2D-85AA-48ED-BC60-A8A438260572";
shapes = (
{
closed = 1;
nodes = (
(190,0,o),
(190,0.067,o),
(190,9,cs),
(190,457,l),
(231,477,o),
(294,486,o),
(332,486,cs),
(422,486,o),
(441,447,o),
(441,364,cs),
(441,0,l),
(465,0,o),
(465,0,o),
(465,10,cs),
(465,368,ls),
(465,459,o),
(443,510,o),
(331,510,cs),
(280.778,510,o),
(235.629,499.855,o),
(190,483.268,c),
(190,676,l),
(345,676,ls),
(353,676,o),
(355,680,o),
(355,686,cs),
(355,700,l),
(15,700,ls),
(8,700,o),
(5,697,o),
(5,690,cs),
(5,676,l),
(166,676,l),
(166,0,l)
);
}
);
width = 521;
},
{
hints = (
{
horizontal = 1;
place = (0,0);
type = Stem;
},
{
horizontal = 1;
place = (0,0);
type = Stem;
}
);
layerId = "113A2EC7-7A34-4A41-8395-62473D9E96C5";
shapes = (
{
closed = 1;
nodes = (
(237,0,o),
(239,0,o),
(239,20,cs),
(239,402,l),
(250,410,o),
(264,414,o),
(277,414,cs),
(305,414,o),
(310,398,o),
(310,346,cs),
(310,0,l),
(423,0,o),
(426,0,o),
(426,20,cs),
(426,381,ls),
(426,481,o),
(383,510,o),
(282,510,cs),
(269,510,o),
(254,509,o),
(239,507,c),
(239,595,l),
(345,595,ls),
(359,595,o),
(365,599,o),
(365,615,cs),
(365,700,l),
(30,700,ls),
(16,700,o),
(10,694,o),
(10,680,cs),
(10,595,l),
(127,595,l),
(127,0,l)
);
}
);
width = 455;
}
);
metricLeft = T;
metricRight = n;
unicode = 1035;
},
{
color = 4;
glyphname = "Iu-cy";
kernLeft = H;
kernRight = O;
layers = (
{
layerId = "B965DA2D-85AA-48ED-BC60-A8A438260572";
shapes = (
{
closed = 1;
nodes = (
(511,-10,o),
(567,91,o),
(567,355,cs),
(567,615,o),
(518,710,o),
(390,710,cs),
(267,710,o),
(209,611,o),
(207,363,c),
(92,363,l),
(92,700,l),
(70,700,o),
(68,700,o),
(68,690,cs),
(68,0,l),
(90,0,o),
(92,0,o),
(92,10,cs),
(92,339,l),
(207,339,l),
(209,76,o),
(261,-10,o),
(382,-10,cs)
);
},
{
closed = 1;
nodes = (
(276,14,o),
(230,101,o),
(230,343,cs),
(230,596,o),
(284,686,o),
(391,686,cs),
(495,686,o),
(543,605,o),
(543,358,cs),
(543,104,o),
(493,14,o),
(380,14,cs)
);
}
);
width = 615;
},
{
layerId = "113A2EC7-7A34-4A41-8395-62473D9E96C5";
shapes = (
{
closed = 1;
nodes = (
(497,-10,o),
(554,77,o),
(554,358,cs),
(554,634,o),
(504,710,o),
(376,710,cs),
(260,710,o),
(201,638,o),
(194,409,c),
(138,409,l),
(138,700,l),
(31,700,o),
(31,700,o),
(31,680,cs),
(31,0,l),
(140,0,o),
(138,0,o),
(138,20,cs),
(138,304,l),
(193,304,l),
(198,47,o),
(248,-10,o),
(368,-10,cs)
);
},
{
closed = 1;
nodes = (
(325,106,o),
(318,173,o),
(318,329,cs),
(318,525,o),
(331,595,o),
(373,595,cs),
(424,595,o),
(429,528,o),
(429,354,cs),
(429,177,o),
(419,106,o),
(372,106,cs)
);
}
);
width = 574;
}
);
metricLeft = "En-cy";
metricRight = "O-cy";
unicode = 1070;
},
{
color = 4;
glyphname = "Ia-cy";
kernLeft = "Ia-cy";
kernRight = H;
layers = (
{
layerId = "B965DA2D-85AA-48ED-BC60-A8A438260572";
shapes = (
{
closed = 1;
nodes = (
(31,0,o),
(41,0,o),
(45,0,cs),
(54,0,o),
(55,3,o),
(58,12,cs),
(118,219,ls),
(133,274,o),
(189,311,o),
(256,311,cs),
(303,311,l),
(303,10,ls),
(303,0,o),
(303,0,o),
(327,0,c),
(327,690,l),
(327,690,o),
(327,700,o),
(317,700,cs),
(207,700,ls),
(100,700,o),
(54,616,o),
(54,521,cs),
(54,409,o),
(119,332,o),
(184,318,c),
(131,297,o),
(106,267,o),
(94,225,cs),
(27,0,l)
);
},
{
closed = 1;
nodes = (
(144,335,o),
(79,412,o),
(79,522,cs),
(79,607,o),
(118,676,o),
(212,676,c),
(242,676,o),
(273,676,o),
(303,676,c),
(303,335,l),
(276,335,o),
(250,335,o),
(223,335,c)
);
}
);
width = 395;
},
{
layerId = "113A2EC7-7A34-4A41-8395-62473D9E96C5";
shapes = (
{
closed = 1;
nodes = (
(45,-2,o),
(75,-3,o),
(93,-3,cs),
(140,-3,o),
(141,3,o),
(144,22,cs),
(170,213,ls),
(177,262,o),
(192,282,o),
(213,282,cs),
(225,282,l),
(225,20,ls),
(225,0,o),
(223,0,o),
(337,0,c),
(337,680,l),
(337,680,o),
(337,700,o),
(317,700,cs),
(223,700,ls),
(100,700,o),
(27,658,o),
(27,494,cs),
(27,409,o),
(60,344,o),
(119,311,c),
(81,289,o),
(60,263,o),
(53,218,cs),
(20,0,l)
);
},
{
closed = 1;
nodes = (
(169,385,o),
(153,424,o),
(153,508,cs),
(153,572,o),
(170,603,o),
(198,603,c),
(207,603,o),
(216,602,o),
(225,600,c),
(225,389,l),
(218,386,o),
(212,385,o),
(205,385,cs)
);
}
);
width = 368;
}
);
metricRight = "En-cy";
unicode = 1071;
},
{
color = 4;
glyphname = "Dje-cy";
kernLeft = T;
kernRight = "Tshe-cy";
layers = (
{
associatedMasterId = "B965DA2D-85AA-48ED-BC60-A8A438260572";
layerId = "6071A7A6-0266-4373-86CA-9F4367D0E07F";
name = "Light Apr 21 13, 20:53";
shapes = (
{
closed = 1;
nodes = (
(277,510,o),
(232,500,o),
(166,474,c),
(190,457,l),
(231,477,o),
(294,486,o),
(332,486,cs),
(419,486,o),
(439,455,o),
(441,294,cs),
(441,269,ls),
(441,-55,o),
(413,-148,o),
(317,-148,cs),
(295,-148,o),
(269,-143,o),
(241,-137,c),
(240,-141,o),
(239,-148,o),
(239,-155,cs),
(239,-164,o),
(293,-171,o),
(321,-171,cs),
(433,-171,o),
(465,-61,o),
(465,273,cs),
(465,294,l),
(463,467,o),
(440,510,o),
(331,510,cs)
);
},
{
ref = T;
}
);
width = 536;
},
{
hints = (
{
horizontal = 1;
place = (0,0);
type = Stem;
}
);
layerId = "B965DA2D-85AA-48ED-BC60-A8A438260572";
shapes = (
{
closed = 1;
nodes = (
(433,-7,o),
(465,120,o),
(465,283,cs),
(465,331,l),
(463,460,o),
(440,510,o),
(331,510,cs),
(283.452,510,o),
(236.68,499.146,o),
(190,484.264,c),
(190,676,l),
(345,676,ls),
(353,676,o),
(355,680,o),
(355,686,cs),
(355,700,l),
(15,700,ls),
(8,700,o),
(5,697,o),
(5,690,cs),
(5,676,l),
(166,676,l),
(166,0,l),
(190,0,o),
(190,0,o),
(190,9,cs),
(190,457,l),
(231,475,o),
(294,487,o),
(332,487,cs),
(419,487,o),
(441,448,o),
(441,334,cs),
(441,279,ls),
(441,125,o),
(408,14,o),
(310,14,cs),
(292,14,o),
(273,17,o),
(256,24,c),
(254,17,o),
(254,12,o),
(256,6,cs),
(260,-4,o),
(288,-7,o),
(316,-7,cs)
);
}
);
width = 535;
},
{
hints = (
{
horizontal = 1;
place = (400,0);
type = Stem;
}
);
layerId = "113A2EC7-7A34-4A41-8395-62473D9E96C5";
shapes = (
{
closed = 1;
nodes = (
(410,-8,o),
(431,65,o),
(431,183,cs),
(431,381,ls),
(431,480,o),
(373,511,o),
(312,511,cs),
(289,511,o),
(265,506,o),
(244,499,c),
(244,595,l),
(350,595,ls),
(364,595,o),
(370,599,o),
(370,615,cs),
(370,700,l),
(30,700,ls),
(16,700,o),
(10,694,o),
(10,680,cs),
(10,595,l),
(132,595,l),
(132,0,l),
(242,0,o),
(244,0,o),
(244,20,cs),
(244,406,l),
(256,412,o),
(269.713,414,o),
(282,414,cs),
(310,414,o),
(315,398,o),
(315,346,cs),
(315,204,ls),
(315,131,o),
(312,105,o),
(297,105,cs),
(292,105,o),
(285,106,o),
(278,109,c),
(271,95,o),
(268,79,o),
(268,65,cs),
(268,26,o),
(287,-8,o),
(343,-8,cs)
);
}
);
width = 465;
}
);
metricLeft = T;
metricRight = j;
unicode = 1026;
},
{
color = 4;
glyphname = "Yat-cy";
kernLeft = Hbar;
kernRight = "Softsign-cy";
layers = (
{
layerId = "B965DA2D-85AA-48ED-BC60-A8A438260572";
shapes = (
{
closed = 1;
nodes = (
(245,500,l),
(253,500,o),
(255,504,o),
(255,510,c),
(255,524,l),
(15,524,l),
(8,524,o),
(5,521,o),
(5,514,cs),
(5,500,l)
);
},
{
ref = "Softsign-cy";
}
);
width = 396;
},
{
layerId = "113A2EC7-7A34-4A41-8395-62473D9E96C5";
shapes = (
{
closed = 1;
nodes = (
(220,500,l),
(234,500,o),
(240,504,o),
(240,520,c),
(240,605,l),
(20,605,l),
(6,605,o),
(0,599,o),
(0,585,cs),
(0,500,l)
);
},
{
ref = "Softsign-cy";
}
);
width = 370;
}
);
unicode = 1122;
},
{
color = 4;
glyphname = "Yusbig-cy";
kernLeft = X;
kernRight = K;
layers = (
{
hints = (
{
horizontal = 1;
place = (0,0);
type = Stem;
},
{
horizontal = 1;
place = (0,0);
type = Stem;
},
{
horizontal = 1;
place = (0,0);
type = Stem;
},
{
horizontal = 1;
place = (0,0);
type = Stem;
}
);
layerId = "B965DA2D-85AA-48ED-BC60-A8A438260572";
shapes = (
{
closed = 1;
nodes = (
(40,-1,o),
(45,-1,o),
(49,0,c),
(106,222,ls),
(129,314,o),
(175,357,o),
(257,357,cs),
(300,357,l),
(300,0,l),
(325,0,o),
(325,0,o),
(325,10,cs),
(325,357,l),
(366,357,ls),
(448,357,o),
(494,314,o),
(518,222,cs),
(575,0,l),
(580,-1,o),
(584,-1,o),
(588,-1,cs),
(596,-1,o),
(600,3,o),
(598,13,cs),
(542,233,ls),
(519,323,o),
(467,381,o),
(366,381,cs),
(256,381,ls),
(160,381,o),
(105,323,o),
(82,233,cs),
(26,13,ls),
(24,3,o),
(28,-1,o),
(36,-1,cs)
);
},
{
closed = 1;
nodes = (
(109,677,l),
(514,677,l),
(323,376,l),
(300,376,l)
);
},
{
closed = 1;
nodes = (
(349,370,l),
(556,700,l),
(84,700,l),
(65,700,o),
(65,697,o),
(72,687,cs),
(275,370,l)
);
}
);
width = 624;
},
{
hints = (
{
horizontal = 1;
place = (0,0);
type = Stem;
},
{
horizontal = 1;
place = (0,0);
type = Stem;
}
);
layerId = "113A2EC7-7A34-4A41-8395-62473D9E96C5";
shapes = (
{
closed = 1;
nodes = (
(83,-2,o),
(107,-1,o),
(133,1,c),
(144,187,ls),
(150,298,o),
(177,315,o),
(209,315,cs),
(221,315,l),
(221,0,l),
(329,0,o),
(329,0,o),
(329,19,cs),
(329,315,l),
(341,315,ls),
(373,315,o),
(400,298,o),
(406,187,cs),
(417,1,l),
(443,-1,o),
(467,-2,o),
(490,-2,cs),
(528,-2,o),
(536,3,o),
(535,20,cs),
(522,200,ls),
(511,355,o),
(442,416,o),
(339,416,cs),
(211,416,l),
(108,416,o),
(39,355,o),
(28,200,cs),
(15,20,ls),
(14,3,o),
(22,-2,o),
(60,-2,cs)
);
},
{
closed = 1;
nodes = (
(181,605,l),
(366,605,l),
(290.365,403,l),
(260.324,403,l)
);
},
{
closed = 1;
nodes = (
(395,386,l),
(519,700,l),
(56,700,ls),
(27,700,o),
(21,693,o),
(31,671,cs),
(157,386,l)
);
}
);
width = 550;
},
{
associatedMasterId = "B965DA2D-85AA-48ED-BC60-A8A438260572";
layerId = "86F757AF-D25F-4D5A-B9E8-848BDEF277A6";
name = "Light Aug 12 16, 21:17";
shapes = (
{
closed = 1;
nodes = (
(591,700,o),
(586,700,o),
(581,699,c),
(512,471,ls),
(494,412,o),
(461,381,o),
(424,381,cs),
(340,381,l),
(340,700,l),
(315,700,o),
(315,700,o),
(315,690,cs),
(315,381,l),
(230,381,ls),
(193,381,o),
(160,412,o),
(142,471,cs),
(73,699,l),
(68,700,o),
(63,700,o),
(58,700,cs),
(46,700,o),
(49,696,o),
(53,685,cs),
(120,465,ls),
(135,418,o),
(161,384,o),
(189,369,c),
(147,346,o),
(114,298,o),
(97,233,cs),
(41,13,ls),
(39,3,o),
(43,-1,o),
(51,-1,cs),
(55,-1,o),
(60,-1,o),
(64,0,c),
(121,222,ls),
(142,302,o),
(187,357,o),
(233,357,cs),
(315,357,l),
(315,0,l),
(340,0,o),
(340,0,o),
(340,10,cs),
(340,357,l),
(421,357,ls),
(467,357,o),
(512,302,o),
(533,222,cs),
(590,0,l),
(595,-1,o),
(599,-1,o),
(603,-1,cs),
(611,-1,o),
(615,3,o),
(613,13,cs),
(557,233,ls),
(540,298,o),
(507,346,o),
(465,369,c),
(493,384,o),
(519,418,o),
(534,465,cs),
(601,685,ls),
(605,696,o),
(608,700,o),
(596,700,cs)
);
}
);
visible = 1;
width = 654;
},
{
associatedMasterId = "113A2EC7-7A34-4A41-8395-62473D9E96C5";
layerId = "47C18DAA-FD30-4782-B05A-EDB70A4BEFFF";
name = "Bold Aug 14 16, 18:43";
shapes = (
{
closed = 1;
nodes = (
(496,701,o),
(471,699,o),
(446,693,c),
(414,488,ls),
(407,438,o),
(385,416,o),
(364,416,cs),
(348,416,l),
(348,700,l),
(240,700,o),
(240,700,o),
(240,681,cs),
(240,416,l),
(224,416,ls),
(203,416,o),
(181,438,o),
(174,488,cs),
(142,693,l),
(117,699,o),
(92,701,o),
(74,701,cs),
(36,701,o),
(27,696,o),
(31,674,cs),
(69,471,ls),
(79,423,o),
(100,392,o),
(123,377,c),
(78,351,o),
(52,287,o),
(47,200,cs),
(34,20,ls),
(33,3,o),
(41,-2,o),
(79,-2,cs),
(102,-2,o),
(126,-1,o),
(152,1,c),
(163,187,ls),
(169,298,o),
(196,315,o),
(228,315,cs),
(240,315,l),
(240,0,l),
(348,0,o),
(348,0,o),
(348,19,cs),
(348,315,l),
(360,315,ls),
(392,315,o),
(419,298,o),
(425,187,cs),
(436,1,l),
(462,-1,o),
(486,-2,o),
(509,-2,cs),
(547,-2,o),
(555,3,o),
(554,20,cs),
(541,200,ls),
(536,287,o),
(510,351,o),
(465,377,c),
(488,392,o),
(509,423,o),
(519,471,cs),
(557,674,ls),
(561,696,o),
(552,701,o),
(514,701,cs)
);
}
);
width = 588;
}
);
metricLeft = "=Zhe-cy-15";
metricRight = "=Zhe-cy-15";
unicode = 1130;
},
{
color = 4;
glyphname = "Izhitsa-cy";
kernLeft = V;
kernRight = V;
layers = (
{
hints = (
{
horizontal = 1;
place = (0,0);
type = Stem;
},
{
horizontal = 1;
place = (0,0);
type = Stem;
}
);
layerId = "B965DA2D-85AA-48ED-BC60-A8A438260572";
shapes = (
{
closed = 1;
nodes = (
(222,-4,o),
(227,-3,o),
(227,-3,c),
(397,622,ls),
(410,671,o),
(432,680,o),
(469,680,c),
(469,696,ls),
(469,698,o),
(468,700,o),
(465,700,cs),
(422,700,o),
(391,683,o),
(376,630,cs),
(259,201,l),
(240,132,o),
(229,87,o),
(217,29,c),
(216,29,l),
(203,87,o),
(193,131,o),
(172,201,c),
(28,700,l),
(12,700,ls),
(6,700,o),
(4,698,o),
(6,692,cs),
(203,5,ls),
(204,-1,o),
(207,-4,o),
(214,-4,cs)
);
}
);
width = 458;
},
{
hints = (
{
horizontal = 1;
place = (0,0);
type = Stem;
},
{
horizontal = 1;
place = (0,0);
type = Stem;
}
);
layerId = "113A2EC7-7A34-4A41-8395-62473D9E96C5";
shapes = (
{
closed = 1;
nodes = (
(242,-6,o),
(282,0,o),
(282,0,c),
(388,558,ls),
(393,586,o),
(406,597,o),
(433,597,c),
(433,680,ls),
(433,694,o),
(426,700,o),
(412,700,cs),
(329,700,o),
(290,664,o),
(277,594,cs),
(245,374,ls),
(230,277,o),
(219,163,o),
(212,97,c),
(210,97,l),
(203,163,o),
(189,277,o),
(175,374,cs),
(125,700,l),
(31,700,ls),
(6,700,o),
(2,693,o),
(6,671,c),
(121,53,ls),
(128,16,o),
(146,-6,o),
(184,-6,cs)
);
}
);
width = 423;
},
{
associatedMasterId = "B965DA2D-85AA-48ED-BC60-A8A438260572";
hints = (
{
horizontal = 1;
place = (0,0);
type = Stem;
},
{
horizontal = 1;
place = (0,0);
type = Stem;
}
);
layerId = "C2EC55E9-D853-4AB4-A714-4CD5FECB55D0";
name = "Light Aug 14 16, 18:56";
shapes = (
{
closed = 1;
nodes = (
(7,686,o),
(142,218,o),
(190,48,cs),
(200,12,o),
(206,-10,o),
(211,-10,cs),
(219,-10,o),
(224,-9,o),
(224,-9,c),
(417,700,l),
(400,700,ls),
(393,700,o),
(392,694,o),
(390,686,cs),
(258,201,l),
(239,131,o),
(228,86,o),
(216,27,c),
(203,86,o),
(192,130,o),
(171,201,c),
(27,700,l),
(11,700,ls),
(3,700,o),
(4,694,o),
(7,686,c)
);
}
);
width = 421;
}
);
metricLeft = V;
metricRight = "=V-15";
unicode = 1140;
},
{
color = 4;
glyphname = "Kadescender-cy";
kernLeft = H;
kernRight = "Kadescender-cy";
layers = (
{
hints = (
{
horizontal = 1;
place = (-160,0);
type = Stem;
},
{
horizontal = 1;
place = (-160,0);
type = Stem;
}
);
layerId = "B965DA2D-85AA-48ED-BC60-A8A438260572";
shapes = (
{
closed = 1;
nodes = (
(396,-160,o),
(407,-160,o),
(407,-154,cs),
(407,24,l),
(366,24,l),
(305,233,ls),
(286,298,o),
(252,346,o),
(208,369,c),
(237,384,o),
(263,418,o),
(280,465,cs),
(359,685,ls),
(363,696,o),
(365,700,o),
(353,700,cs),
(348,700,o),
(343,700,o),
(338,699,c),
(258,471,ls),
(237,413,o),
(205,381,o),
(167,381,cs),
(92,381,l),
(92,700,l),
(68,700,o),
(68,700,o),
(68,690,cs),
(68,0,l),
(92,0,o),
(92,0,o),
(92,10,cs),
(92,357,l),
(162,357,ls),
(211,357,o),
(259,303,o),
(282,222,cs),
(346,0,l),
(381,-1,l),
(381,-30,o),
(381,-96,o),
(391,-160,c)
);
}
);
width = 408;
},
{
hints = (
{
horizontal = 1;
place = (-2,0);
type = Stem;
},
{
horizontal = 1;
place = (-2,0);
type = Stem;
}
);
layerId = "113A2EC7-7A34-4A41-8395-62473D9E96C5";
shapes = (
{
closed = 1;
nodes = (
(403,-157,o),
(414,-153,o),
(414,-125,cs),
(414,105,l),
(350,105,l),
(344,211,ls),
(339,299,o),
(312,364,o),
(266,391,c),
(289,406,o),
(310,436,o),
(320,484,cs),
(359,673,ls),
(363,696,o),
(353,701,o),
(313,701,cs),
(294,701,o),
(268,699,o),
(241,693,c),
(210,502,ls),
(202,453,o),
(180,432,o),
(160,432,cs),
(145,432,l),
(145,700,l),
(31,700,o),
(31,700,o),
(31,680,cs),
(31,0,l),
(145,0,o),
(145,0,o),
(145,20,cs),
(145,325,l),
(155,325,ls),
(188,325,o),
(216,311,o),
(221,197,cs),
(230,1,l),
(316,-2,l),
(320,-60,o),
(333,-105,o),
(347,-157,c)
);
}
);
width = 417;
}
);
metricLeft = "En-cy";
unicode = 1178;
},
{
color = 4;
glyphname = "Kaverticalstroke-cy";
kernLeft = H;
kernRight = K;
layers = (
{
layerId = "B965DA2D-85AA-48ED-BC60-A8A438260572";
shapes = (
{
closed = 1;
nodes = (
(377,-1,o),
(383,1,o),
(379,13,cs),
(315,229,ls),
(296,294,o),
(262,342,o),
(218,365,c),
(247,380,o),
(273,414,o),
(290,461,cs),
(369,685,ls),
(373,696,o),
(375,700,o),
(363,700,cs),
(358,700,o),
(353,700,o),
(348,699,c),
(268,467,ls),
(248,409,o),
(215,377,o),
(177,377,cs),
(92,377,l),
(92,700,l),
(68,700,o),
(68,700,o),
(68,690,cs),
(68,0,l),
(92,0,o),
(92,0,o),
(92,10,cs),
(92,353,l),
(172,353,ls),
(221,353,o),
(268,299,o),
(292,218,cs),
(356,0,l),
(360,-1,o),
(365,-1,o),
(369,-1,cs)
);
},
{
closed = 1;
nodes = (
(180,220,o),
(180,220,o),
(180,230,cs),
(180,510,l),
(156,510,o),
(156,510,o),
(156,500,cs),
(156,220,l)
);
}
);
width = 421;
},
{
layerId = "113A2EC7-7A34-4A41-8395-62473D9E96C5";
shapes = (
{
closed = 1;
nodes = (
(408,-2,o),
(416,3,o),
(415,21,cs),
(403,197,ls),
(397,285,o),
(372,350,o),
(326,377,c),
(349,392,o),
(371,422,o),
(380,470,cs),
(419,673,ls),
(423,696,o),
(413,701,o),
(373,701,cs),
(354,701,o),
(328,699,o),
(301,693,c),
(270,488,ls),
(263,439,o),
(240,418,o),
(220,418,cs),
(145,418,l),
(145,700,l),
(31,700,o),
(31,700,o),
(31,680,cs),
(31,0,l),
(145,0,o),
(145,0,o),
(145,20,cs),
(145,311,l),
(215,311,ls),
(248,311,o),
(274,297,o),
(280,183,cs),
(290,1,l),
(318,-1,o),
(343,-2,o),
(368,-2,cs)
);
},
{
closed = 1;
nodes = (
(231,207,o),
(231,207,o),
(231,217,cs),
(231,525,l),
(175,525,o),
(175,525,o),
(175,515,cs),
(175,207,l)
);
}
);
width = 445;
},
{
anchors = (
{
name = top;
pos = (221,700);
}
);
associatedMasterId = "B965DA2D-85AA-48ED-BC60-A8A438260572";
layerId = "686790B6-3A75-47A4-B8C1-83B8EA97264F";
name = "Light Aug 14 16, 21:11";
shapes = (
{
closed = 1;
nodes = (
(342,700,o),
(337,700,o),
(332,699,c),
(252,467,ls),
(232,409,o),
(199,377,o),
(161,377,cs),
(86,377,l),
(86,700,l),
(62,700,o),
(62,700,o),
(62,690,cs),
(62,0,l),
(86,0,o),
(86,0,o),
(86,10,cs),
(86,353,l),
(156,353,ls),
(205,353,o),
(252,299,o),
(276,218,cs),
(340,0,l),
(344,-1,o),
(349,-1,o),
(353,-1,cs),
(361,-1,o),
(367,1,o),
(363,13,cs),
(299,229,ls),
(280,294,o),
(246,342,o),
(202,365,c),
(231,380,o),
(257,414,o),
(274,461,cs),
(353,685,ls),
(357,696,o),
(359,700,o),
(347,700,cs)
);
}
);
visible = 1;
width = 420;
},
{
anchors = (
{
name = top;
pos = (195,700);
}
);
associatedMasterId = "113A2EC7-7A34-4A41-8395-62473D9E96C5";
layerId = "ECD4BB33-A46F-4F39-9134-437FF04B450E";
name = "Bold Aug 14 16, 21:14";
shapes = (
{
closed = 1;
nodes = (
(271,701,o),
(245,699,o),
(218,693,c),
(187,488,ls),
(180,439,o),
(157,418,o),
(137,418,cs),
(122,418,l),
(122,700,l),
(8,700,o),
(8,700,o),
(8,680,cs),
(8,0,l),
(122,0,o),
(122,0,o),
(122,20,cs),
(122,311,l),
(132,311,ls),
(165,311,o),
(191,297,o),
(197,183,cs),
(207,1,l),
(235,-1,o),
(260,-2,o),
(285,-2,cs),
(325,-2,o),
(333,3,o),
(332,21,cs),
(320,197,ls),
(314,285,o),
(289,350,o),
(243,377,c),
(266,392,o),
(288,422,o),
(297,470,cs),
(336,673,ls),
(340,696,o),
(330,701,o),
(290,701,cs)
);
}
);
width = 399;
}
);
metricLeft = H;
metricRight = "Ka-cy";
unicode = 1180;
},
{
color = 4;
glyphname = "Endescender-cy";
kernLeft = H;
kernRight = "Tse-cy";
layers = (
{
hints = (
{
horizontal = 1;
place = (0,0);
type = Stem;
},
{
horizontal = 1;
place = (0,0);
type = Stem;
}
);
layerId = "B965DA2D-85AA-48ED-BC60-A8A438260572";
shapes = (
{
closed = 1;
nodes = (
(431,-160,o),
(442,-160,o),
(442,-154,cs),
(442,24,l),
(391,24,l),
(391,700,l),
(367,700,o),
(367,699,o),
(367,690,cs),
(367,397,l),
(92,397,l),
(92,700,l),
(69,700,o),
(68,700,o),
(68,690,cs),
(68,0,l),
(91,0,o),
(92,0,o),
(92,10,cs),
(92,373,l),
(367,373,l),
(367,0,l),
(416,0,l),
(416,-29,o),
(416,-96,o),
(426,-160,c)
);
}
);
width = 467;
},
{
hints = (
{
horizontal = 1;
place = (0,0);
type = Stem;
},
{
horizontal = 1;
place = (0,0);
type = Stem;
}
);
layerId = "113A2EC7-7A34-4A41-8395-62473D9E96C5";
shapes = (
{
closed = 1;
nodes = (
(390,-157,o),
(401,-153,o),
(401,-125,cs),
(401,105,l),
(351,105,l),
(351,700,l),
(237,700,o),
(239,700,o),
(239,680,cs),
(239,425,l),
(143,425,l),
(143,700,l),
(29,700,o),
(31,700,o),
(31,680,cs),
(31,0,l),
(145,0,o),
(143,0,o),
(143,20,cs),
(143,320,l),
(239,320,l),
(239,0,l),
(303,0,l),
(307,-59,o),
(320,-104,o),
(334,-157,c)
);
}
);
width = 416;
}
);
metricRight = "Tse-cy";
unicode = 1186;
},
{
color = 4;
glyphname = "Ustraitstroke-cy";
kernLeft = Y;
kernRight = Y;
layers = (
{
hints = (
{
horizontal = 1;
place = (700,0);
type = Stem;
},
{
horizontal = 1;
place = (700,0);
type = Stem;
}
);
layerId = "B965DA2D-85AA-48ED-BC60-A8A438260572";
shapes = (
{
closed = 1;
nodes = (
(192,0,o),
(192,0,o),
(192,10,cs),
(192,256,l),
(293,256,ls),
(300,256,o),
(303,260,o),
(304,268,c),
(304,272,o),
(304,276,o),
(303,281,c),
(192,281,l),
(192,286.667,l),
(352,700,l),
(327,700,o),
(326,700,o),
(324,695,cs),
(269,551,ls),
(233,457,o),
(180,311,o),
(180,311,cs),
(180,311,o),
(128,458,o),
(91,551,cs),
(32,700,l),
(5,700,o),
(4,700,o),
(6,695,cs),
(168,287.141,l),
(168,281,l),
(73,281,ls),
(66,281,o),
(63,277,o),
(62,269,c),
(62,265,o),
(62,261,o),
(63,256,c),
(168,256,l),
(168,0,l)
);
}
);
width = 357;
},
{
hints = (
{
horizontal = 1;
place = (700,0);
type = Stem;
},
{
horizontal = 1;
place = (700,0);
type = Stem;
}
);
layerId = "113A2EC7-7A34-4A41-8395-62473D9E96C5";
shapes = (
{
closed = 1;
nodes = (
(245,0,o),
(243,0,o),
(243,20,cs),
(243,167,l),
(284,167,ls),
(310,167,o),
(326,192,o),
(326,225,cs),
(326,240,o),
(323,256,o),
(315,272,c),
(243,272,l),
(243,294.146,l),
(364,700,l),
(250,700,o),
(250,700,o),
(244,680,c),
(220,570,ls),
(210,522,o),
(195,422,o),
(191,377,c),
(187,422,o),
(174,521,o),
(163,569,cs),
(134,700,l),
(3,700,o),
(1,700,o),
(6,683,cs),
(131,286.741,l),
(131,272,l),
(89,272,ls),
(61,272,o),
(44,249,o),
(44,217,cs),
(44,201,o),
(45,186,o),
(52,167,c),
(131,167,l),
(131,0,l)
);
}
);
width = 368;
}
);
unicode = 1200;
},
{
color = 4;
glyphname = "Cheverticalstroke-cy";
kernLeft = "Che-cy";
kernRight = H;
layers = (
{
layerId = "B965DA2D-85AA-48ED-BC60-A8A438260572";
shapes = (
{
closed = 1;
nodes = (
(353,0,o),
(353,0,o),
(353,10,c),
(353,700,l),
(329,700,o),
(329,699,o),
(329,690,c),
(329,340,l),
(282,322,o),
(235,314,o),
(196,314,cs),
(114,314,o),
(63,359,o),
(64,475,c),
(64,700,l),
(40,700,o),
(40,700,o),
(40,690,c),
(40,468,l),
(41,341,o),
(100,290,o),
(194,290,cs),
(232,290,o),
(280,297,o),
(329,311,c),
(329,0,l)
);
},
{
closed = 1;
nodes = (
(206,158,o),
(206,158,o),
(206,168,cs),
(206,448,l),
(182,448,o),
(182,448,o),
(182,438,cs),
(182,158,l)
);
}
);
width = 421;
},
{
layerId = "113A2EC7-7A34-4A41-8395-62473D9E96C5";
shapes = (
{
closed = 1;
nodes = (
(383,0,o),
(384,0,o),
(384,20,c),
(384,700,l),
(275,700,o),
(273,700,o),
(273,680,c),
(273,371,l),
(249,365,o),
(225,362,o),
(200,362,cs),
(159,362,o),
(135,385,o),
(135,458,c),
(135,700,l),
(26,700,o),
(25,700,o),
(25,680,c),
(25,444,l),
(25,308,o),
(68,260,o),
(169,260,cs),
(204,260,o),
(229,263,o),
(273,271,c),
(273,0,l)
);
},
{
closed = 1;
nodes = (
(232,157,o),
(232,157,o),
(232,167,cs),
(232,475,l),
(176,475,o),
(176,475,o),
(176,465,cs),
(176,157,l)
);
}
);
width = 415;
},
{
associatedMasterId = "113A2EC7-7A34-4A41-8395-62473D9E96C5";
layerId = "BC0059B6-7793-45FE-BADC-37369205DED4";
name = "Bold Aug 14 16, 21:21";
shapes = (
{
closed = 1;
nodes = (
(324,700,l),
(215,700,o),
(213,700,o),
(213,680,c),
(213,371,l),
(199,365,o),
(185,362,o),
(170,362,cs),
(148,362,o),
(135,385,o),
(135,458,c),
(135,700,l),
(26,700,o),
(25,700,o),
(25,680,c),
(25,444,l),
(25,308,o),
(59,260,o),
(139,260,cs),
(164,260,o),
(182,263,o),
(213,271,c),
(213,0,l),
(323,0,o),
(324,0,o),
(324,20,c)
);
}
);
width = 369;
},
{
associatedMasterId = "B965DA2D-85AA-48ED-BC60-A8A438260572";
layerId = "B94C45D7-58CD-4C34-8FD5-68AB973F2B64";
name = "Light Aug 14 16, 21:24";
shapes = (
{
closed = 1;
nodes = (
(343,700,l),
(319,700,o),
(319,699,o),
(319,690,c),
(319,340,l),
(274,322,o),
(229,314,o),
(191,314,cs),
(112,314,o),
(63,369,o),
(64,475,c),
(64,700,l),
(40,700,o),
(40,700,o),
(40,690,c),
(40,468,l),
(41,351,o),
(98,290,o),
(189,290,cs),
(226,290,o),
(272,297,o),
(319,311,c),
(319,0,l),
(343,0,o),
(343,0,o),
(343,10,c)
);
}
);
width = 420;
}
);
metricLeft = "Che-cy";
metricRight = H;
unicode = 1208;
},
{
color = 4;
glyphname = "Schwa-cy";
kernLeft = "Ereversed-cy";
kernRight = O;
layers = (
{
layerId = "B965DA2D-85AA-48ED-BC60-A8A438260572";
shapes = (
{
closed = 1;
nodes = (
(269,-10,o),
(385,23,o),
(385,389,cs),
(385,674,o),
(305,710,o),
(199,710,cs),
(124,710,o),
(57,678,o),
(57,667,cs),
(57,661,o),
(59,655,o),
(63,647,c),
(102,675,o),
(147,686,o),
(199,686,cs),
(289,686,o),
(361,660,o),
(361,395,cs),
(361,32,o),
(254,14,o),
(181,14,cs),
(91,14,o),
(66,101,o),
(66,214,cs),
(66,254,o),
(67,296,o),
(71,336,c),
(179,360,o),
(363,356,o),
(363,356,c),
(363,380,l),
(363,380,o),
(186,386,o),
(50,357,c),
(45,316,o),
(42,263,o),
(42,211,cs),
(42,72,o),
(80,-10,o),
(182,-10,cs)
);
}
);
width = 433;
},
{
layerId = "113A2EC7-7A34-4A41-8395-62473D9E96C5";
shapes = (
{
closed = 1;
nodes = (
(274,-10,o),
(375,48,o),
(375,383,cs),
(375,646,o),
(295,710,o),
(182,710,cs),
(105,710,o),
(25,683,o),
(24,640,cs),
(23,614,o),
(28,589,o),
(35,561,c),
(74,581,o),
(113,594,o),
(153,594,cs),
(225,594,o),
(248,546,o),
(248,373,cs),
(248,191,o),
(234,104,o),
(185,104,cs),
(153,104,o),
(137,125,o),
(137,227,cs),
(137,259,o),
(139,283,o),
(145,307,c),
(180,319,o),
(295,320,o),
(295,320,c),
(297,423,l),
(297,423,o),
(123,425,o),
(32,407,c),
(23,354,o),
(16,286,o),
(16,216,cs),
(16,55,o),
(69,-10,o),
(167,-10,cs)
);
}
);
width = 395;
}
);
metricRight = O;
unicode = 1240;
},
